<svg width="391" height="318" viewBox="0 0 391 318" fill="none" xmlns="http://www.w3.org/2000/svg">
<path d="M28 219H357" stroke="#BBECF9" stroke-width="0.5" stroke-dasharray="2 2"/>
<path d="M57 164H357M93.5 137H357" stroke="#BBECF9" stroke-width="0.5" stroke-dasharray="2 2"/>
<path d="M132 121L355 121" stroke="#BBECF9" stroke-width="0.5" stroke-dasharray="2 2"/>
<path d="M329 37L355 37" stroke="#BBECF9" stroke-width="0.5" stroke-dasharray="2 2"/>
<path d="M314.941 250.66L320.827 239.067L320.571 151.906L319.485 144.764L320.546 140.52V133.067H323.748V134.309H326.123V133.067H332.113V134.309H334.178C334.075 133.895 333.93 133.067 334.178 133.067H337.07L337.173 140.52C337.342 141.961 337.652 143.385 338.103 144.764L337.07 151.492V239.067L343.163 250.66V256.354L342.027 256.664L337.896 254.387L337.979 255.836H336.843L337.979 257.492H319.881L320.708 255.836H319.778L319.865 254.387L316.886 256.664L314.924 256.354L314.941 250.66Z" fill="#B2B2B2"/>
<path d="M311.013 122.301L320.513 96.8362C320.489 88.2568 320.514 73.6114 320.712 64.1252L314.214 62.5725V58.1172L325.636 42.1758C326.92 39.2401 328.201 37 329.085 37C329.969 37 331.402 39.2277 332.774 42.1758L343.75 58.1172V62.8789L337.14 64.1211C337.293 72.6342 337.433 85.3791 337.433 96.832L346.728 122.297V131.51L340.015 133.063H334.356V134.305H332.084V133.063H326.094V134.305H323.719V133.063H317.626L311.017 131.51L311.013 122.301Z" fill="#DADADA"/>
<path d="M320.518 96.8362L311.017 122.301V131.514L317.626 133.067M320.518 96.8362C320.493 88.2568 320.518 73.6114 320.716 64.1252M320.518 96.8362L322.48 129.34L320.518 133.067M320.518 96.8362L317.626 133.067M337.454 96.8362L346.749 122.301V131.514L340.036 133.067M337.454 96.8362C337.454 85.3791 337.314 72.6342 337.161 64.1252M337.454 96.8362L335.699 129.34L337.041 133.067M337.454 96.8362L340.036 133.067M317.626 133.067H320.518M320.518 133.067H323.823M320.518 133.067V140.416M320.807 239.067L314.921 250.66V256.354L316.883 256.664L319.861 254.387M320.807 239.067L319.861 254.387M320.807 239.067L320.555 152.942M337.021 239.067L343.114 250.66V256.354L341.978 256.664L337.847 254.387M337.021 239.067L337.847 254.387M337.021 239.067V152.942M337.021 133.067H340.016M337.021 133.067H334.208M337.021 133.067L337.054 140.416M325.64 42.1758C323.608 46.8174 321.58 53.194 321.138 55.2187C320.947 56.0883 320.811 59.4919 320.724 64.1211M325.648 42.1758C326.933 39.2401 328.214 37 329.098 37C329.982 37 331.415 39.2277 332.787 42.1758M325.648 42.1758L314.227 58.1172V62.5684L320.724 64.1211M332.787 42.1758C334.852 46.5897 336.822 52.6143 336.946 55.2187C337.012 56.668 337.095 59.8687 337.169 64.1211M332.787 42.1758L343.762 58.1172V62.8789L337.153 64.1211M319.882 254.387L319.795 255.836H320.724M337.888 254.387L337.971 255.836H336.835M320.724 255.836L319.898 257.492H337.987L336.851 255.836M320.741 255.836H321.877M336.851 255.836H336.232M323.839 133.067C324.033 127.705 325.318 123.303 325.987 121.68V133.067M323.839 133.067C323.839 133.51 323.839 133.957 323.839 134.412H326.008V133.067M326.008 133.067H332.101M332.101 133.067V134.412H334.27C334.27 133.957 334.27 133.51 334.245 133.067M332.101 133.067V121.68C332.766 123.303 334.051 127.705 334.245 133.067M320.547 140.416H322.901L324.657 146.731L322.901 152.942H320.584M320.547 140.416L319.493 144.764L320.584 152.942M337.07 140.416H334.72L332.964 146.731L334.72 152.942H337.037M337.07 140.416L338.128 144.764L337.037 152.942M326.297 255.836L325.987 238.549L321.856 251.074V255.836M326.297 255.836L321.856 256.664V255.836M326.297 255.836H331.564M331.564 255.836L336.211 256.664V255.836M331.564 255.836L331.874 238.446L336.211 251.074V255.836M323.612 51.1816H334.662C333.592 47.3516 330.985 39.7121 329.085 39.7949C327.185 39.8777 324.649 47.422 323.616 51.1816H323.612Z" stroke="#010101" stroke-width="0.5"/>
<path d="M311.012 122.301L320.513 96.8362C320.489 88.2568 320.513 73.6114 320.712 64.1252L314.214 62.5725V58.1172L325.636 42.1758C326.92 39.2401 328.201 37 329.085 37C329.969 37 331.402 39.2277 332.774 42.1758L343.749 58.1172V62.8789L337.14 64.1211C337.293 72.6342 337.433 85.3791 337.433 96.832L346.728 122.297V131.51L340.015 133.063H337.02V239.062L343.113 250.656V256.35L341.977 256.66L337.846 254.383L337.929 255.832H336.793L337.929 257.488H319.881L320.708 255.832H319.778L319.865 254.383L316.886 256.66L314.924 256.35V250.66L320.811 239.067L320.501 133.067H317.609L311 131.514L311.012 122.301Z" stroke="#010101" stroke-width="1.5"/>
<path d="M25.2549 220.558V224.202H28.2704V220.558L27.0477 218.119C26.9279 217.883 26.5933 217.883 26.4735 218.119L25.2549 220.558Z" fill="#DADADA" stroke="black" stroke-width="0.5" stroke-miterlimit="10"/>
<path d="M26.7667 224.202H24.8335V251.613H26.7667H28.5513V224.202H26.7667Z" fill="#B2B2B2" stroke="black" stroke-width="0.5" stroke-miterlimit="10"/>
<path d="M24.8418 225.113H28.5513" stroke="black" stroke-width="0.5" stroke-miterlimit="10"/>
<path d="M28.5554 227.804H24.8335V233.907H28.5554V227.804Z" fill="#4D4D4D" stroke="black" stroke-width="0.5" stroke-miterlimit="10"/>
<path d="M24.8335 251.613L26.6924 254.259L28.5513 251.613H24.8335Z" stroke="black" stroke-width="0.5" stroke-miterlimit="10" stroke-linecap="round" stroke-linejoin="round"/>
<path d="M28.5513 251.613L26.6924 253.116L24.8335 251.613" stroke="black" stroke-width="0.5" stroke-miterlimit="10" stroke-linecap="round" stroke-linejoin="round"/>
<path d="M27.3203 254.097H26.0811V254.925H27.3203V254.097Z" fill="#4D4D4D" stroke="black" stroke-width="0.5" stroke-miterlimit="10"/>
<path d="M25.6803 256.921L26.7006 254.925L27.8118 256.921H25.6803Z" fill="#4D4D4D" stroke="black" stroke-width="0.5" stroke-miterlimit="10" stroke-linecap="round" stroke-linejoin="round"/>
<path d="M26.7585 254.925C27.0724 254.925 27.3244 254.673 27.3244 254.358V254.097H26.8122L28.4563 251.758C28.5224 251.662 28.5595 251.547 28.5595 251.431V224.202H28.2787V220.695C28.2787 220.604 28.258 220.517 28.2167 220.438L27.2294 218.504C27.0146 218.086 26.4156 218.094 26.2132 218.521L25.3127 220.446C25.2755 220.521 25.259 220.604 25.259 220.686V224.206H24.8376V251.435C24.8376 251.551 24.8748 251.667 24.9409 251.762L26.585 254.101H26.0893V254.362C26.0893 254.677 26.3413 254.929 26.6552 254.929H26.7585V254.925Z" stroke="black" stroke-width="1.5" stroke-miterlimit="10" stroke-linecap="round" stroke-linejoin="round"/>
<path d="M25.6803 256.921H27.8118L26.7006 254.925L25.6803 256.921Z" stroke="black" stroke-width="1.5" stroke-miterlimit="10" stroke-linecap="round" stroke-linejoin="round"/>
<path d="M60.6192 176.874H53.1382V254.718H60.6192V176.874Z" fill="#B2B2B2" stroke="black" stroke-width="0.5" stroke-miterlimit="10"/>
<path d="M60.3094 171.285H53.1382V176.874H60.3094V171.285Z" fill="#DADADA" stroke="black" stroke-width="0.5" stroke-miterlimit="10"/>
<path d="M60.4126 170.477H53.3901V171.305H60.4126V170.477Z" fill="#DADADA" stroke="black" stroke-width="0.5" stroke-miterlimit="10"/>
<path d="M53.7578 177.496V171.239C53.7578 171.239 53.3902 170.477 52.8862 171.239V176.692C52.8862 176.692 52.9317 177.081 53.7578 177.496Z" fill="#DADADA" stroke="black" stroke-width="0.5" stroke-miterlimit="10"/>
<path d="M59.8962 177.496V171.264C59.8962 171.264 60.4126 170.477 60.8587 171.264V176.87C60.8587 176.874 60.6191 177.471 59.8962 177.496Z" fill="#DADADA" stroke="black" stroke-width="0.5" stroke-miterlimit="10"/>
<path d="M53.3901 170.477L54.6294 165.922H59.1733L60.4126 170.477H53.3901Z" fill="#DADADA" stroke="black" stroke-width="0.5" stroke-miterlimit="10"/>
<path d="M54.6294 165.922C54.6294 163.438 56.9014 163.442 56.9014 163.442C56.9014 163.442 59.1733 163.438 59.1733 165.922H54.6294Z" fill="#DADADA" stroke="black" stroke-width="0.5" stroke-miterlimit="10"/>
<path d="M56.8724 254.718L55.8687 257.016H57.8928L56.8724 254.718Z" fill="#4D4D4D" stroke="black" stroke-width="0.5" stroke-miterlimit="10" stroke-linecap="round" stroke-linejoin="round"/>
<path d="M53.8239 254.718L52.8201 257.016H54.8442L53.8239 254.718Z" fill="#4D4D4D" stroke="black" stroke-width="0.5" stroke-miterlimit="10" stroke-linecap="round" stroke-linejoin="round"/>
<path d="M59.859 254.718L58.8552 257.016H60.8793L59.859 254.718Z" fill="#4D4D4D" stroke="black" stroke-width="0.5" stroke-miterlimit="10" stroke-linecap="round" stroke-linejoin="round"/>
<path d="M53.1382 186.522H60.6192" stroke="black" stroke-width="0.5" stroke-miterlimit="10" stroke-linecap="round" stroke-linejoin="round"/>
<path d="M53.1382 198.153H60.6192" stroke="black" stroke-width="0.5" stroke-miterlimit="10" stroke-linecap="round" stroke-linejoin="round"/>
<path d="M53.1382 252.722H60.3094" stroke="black" stroke-width="0.5" stroke-miterlimit="10" stroke-linecap="round" stroke-linejoin="round"/>
<path d="M51.7957 254.946H53.6917L53.006 251.807C52.9151 251.397 52.3244 251.414 52.2624 251.832L51.7957 254.946Z" fill="#B2B2B2" stroke="black" stroke-width="0.5" stroke-miterlimit="10"/>
<path d="M61.7015 254.946H59.8054L60.4911 251.807C60.582 251.397 61.1727 251.414 61.2347 251.832L61.7015 254.946Z" fill="#B2B2B2" stroke="black" stroke-width="0.5" stroke-miterlimit="10"/>
<path d="M60.6192 177.202L60.8588 176.874V171.264C60.8588 171.264 60.8257 170.891 60.4126 170.891V170.477L59.1734 165.922C59.1734 165.922 59.1734 163.442 56.9014 163.442C56.9014 163.442 54.6294 163.438 54.6294 165.922L53.3902 170.477V170.804C53.3902 170.804 52.9771 170.891 52.8862 171.239V176.692L53.1382 177.077V251.65C53.1382 251.65 52.4401 250.971 52.2955 251.716L51.7957 254.946H53.6917L52.8201 257.016H54.8442L53.8239 254.718H56.8725L55.8687 257.016H57.8928L56.9551 254.718H59.8632L58.8594 257.016H60.8835L59.9665 254.946H61.7097L61.2471 251.832C61.2471 251.832 61.2471 251.385 60.6274 251.509V177.202H60.6192Z" stroke="black" stroke-width="1.5" stroke-miterlimit="10" stroke-linecap="round" stroke-linejoin="round"/>
<path d="M60.6192 177.202L60.8588 176.874V171.264C60.8588 171.264 60.8257 170.891 60.4126 170.891V170.477L59.1734 165.922C59.1734 165.922 59.1734 163.442 56.9014 163.442C56.9014 163.442 54.6294 163.438 54.6294 165.922L53.3902 170.477V170.804C53.3902 170.804 52.9771 170.891 52.8862 171.239V176.692L53.1382 177.077V251.65C53.1382 251.65 52.4401 250.971 52.2955 251.716L51.7957 254.946H53.6917L52.8201 257.016H54.8442L53.8239 254.718H56.8725L55.8687 257.016H57.8928L56.9551 254.718H59.8632L58.8594 257.016H60.8835L59.9665 254.946H61.7097L61.2471 251.832C61.2471 251.832 61.2471 251.385 60.6274 251.509V177.202H60.6192Z" stroke="black" stroke-width="1.5" stroke-miterlimit="10" stroke-linecap="round" stroke-linejoin="round"/>
<path d="M97.1895 150.002H89.7085V253.497H97.1895V150.002Z" fill="#B2B2B2" stroke="black" stroke-width="0.5" stroke-miterlimit="10"/>
<path d="M96.8797 144.412H89.7085V150.002H96.8797V144.412Z" fill="#DADADA" stroke="black" stroke-width="0.5" stroke-miterlimit="10"/>
<path d="M96.979 143.605H89.9565V144.433H96.979V143.605Z" fill="#DADADA" stroke="black" stroke-width="0.5" stroke-miterlimit="10"/>
<path d="M90.3284 150.623V144.366C90.3284 144.366 89.9607 143.605 89.4568 144.366V149.82C89.4526 149.82 89.5022 150.209 90.3284 150.623Z" fill="#DADADA" stroke="black" stroke-width="0.5" stroke-miterlimit="10"/>
<path d="M96.4626 150.623V144.395C96.4626 144.395 96.979 143.609 97.4251 144.395V150.002C97.4251 150.002 97.1855 150.602 96.4626 150.623Z" fill="#DADADA" stroke="black" stroke-width="0.5" stroke-miterlimit="10"/>
<path d="M89.9565 143.604L91.1958 139.05H95.7397L96.979 143.604H89.9565Z" fill="#DADADA" stroke="black" stroke-width="0.5" stroke-miterlimit="10"/>
<path d="M91.1958 139.05C91.1958 136.565 93.4678 136.57 93.4678 136.57C93.4678 136.57 95.7397 136.565 95.7397 139.05H91.1958Z" fill="#DADADA" stroke="black" stroke-width="0.5" stroke-miterlimit="10"/>
<path d="M96.7642 253.29H90.1548V254.946H96.7642V253.29Z" fill="#B2B2B2" stroke="black" stroke-width="0.5" stroke-miterlimit="10"/>
<path d="M90.6586 254.627L89.9771 256.772H96.9995L96.2064 254.627H90.6586Z" fill="#4D4D4D" stroke="black" stroke-width="0.5" stroke-miterlimit="10"/>
<path d="M94.645 256.772H92.1707V257.174H94.645V256.772Z" fill="#4D4D4D" stroke="black" stroke-width="0.5" stroke-miterlimit="10"/>
<path d="M96.2064 254.627L94.645 256.772L93.4883 254.627L92.1706 256.772L90.6587 254.627H96.2064Z" fill="#4D4D4D" stroke="black" stroke-width="0.5" stroke-miterlimit="10" stroke-linecap="round" stroke-linejoin="round"/>
<path d="M89.9772 256.772H92.1706V257.174H94.645V256.772H96.9996L96.3222 254.946H96.7642V253.29H97.9828L97.2516 233.112V150.523L97.4912 150.196V144.59C97.4912 144.59 97.4581 144.217 97.0451 144.217V143.803L95.8058 139.249C95.8058 139.249 95.8058 136.768 93.5338 136.768C93.5338 136.768 91.2619 136.764 91.2619 139.249L90.0226 143.803V144.13C90.0226 144.13 89.6095 144.217 89.5186 144.565V150.018L89.7706 150.403V233.257L89.2253 253.294H90.1548V254.95H90.5555L89.9772 256.772Z" stroke="black" stroke-width="1.5" stroke-miterlimit="10" stroke-linecap="round" stroke-linejoin="round"/>
<path d="M13.221 271V266.436H16.063V267.241H14.18V268.375H15.79V269.18H14.18V271H13.221ZM16.2697 271L17.7187 266.436H18.8667L20.3157 271H19.3007L18.6707 268.648C18.6054 268.415 18.54 268.17 18.4747 267.913C18.414 267.656 18.351 267.407 18.2857 267.164H18.2577C18.2017 267.407 18.141 267.656 18.0757 267.913C18.015 268.17 17.952 268.415 17.8867 268.648L17.2497 271H16.2697ZM17.1937 269.866V269.117H19.3777V269.866H17.1937ZM20.8362 271V266.436H21.7952V270.195H23.6292V271H20.8362ZM26.3081 271.084C25.9207 271.084 25.5684 270.995 25.2511 270.818C24.9337 270.641 24.6794 270.377 24.4881 270.027C24.2967 269.677 24.2011 269.248 24.2011 268.739C24.2011 268.361 24.2571 268.025 24.3691 267.731C24.4811 267.437 24.6351 267.187 24.8311 266.982C25.0317 266.772 25.2604 266.616 25.5171 266.513C25.7784 266.406 26.0514 266.352 26.3361 266.352C26.6301 266.352 26.8914 266.41 27.1201 266.527C27.3534 266.644 27.5447 266.781 27.6941 266.94L27.1831 267.556C27.0664 267.444 26.9427 267.353 26.8121 267.283C26.6814 267.213 26.5297 267.178 26.3571 267.178C26.1377 267.178 25.9394 267.241 25.7621 267.367C25.5847 267.488 25.4447 267.663 25.3421 267.892C25.2394 268.121 25.1881 268.394 25.1881 268.711C25.1881 269.033 25.2347 269.311 25.3281 269.544C25.4214 269.773 25.5544 269.948 25.7271 270.069C25.9044 270.19 26.1097 270.251 26.3431 270.251C26.5344 270.251 26.7047 270.209 26.8541 270.125C27.0081 270.041 27.1434 269.936 27.2601 269.81L27.7711 270.412C27.5844 270.631 27.3674 270.799 27.1201 270.916C26.8727 271.028 26.6021 271.084 26.3081 271.084ZM30.3196 271.084C29.9136 271.084 29.5543 270.988 29.2416 270.797C28.9336 270.606 28.6933 270.333 28.5206 269.978C28.348 269.619 28.2616 269.192 28.2616 268.697C28.2616 268.202 28.348 267.78 28.5206 267.43C28.6933 267.08 28.9336 266.814 29.2416 266.632C29.5543 266.445 29.9136 266.352 30.3196 266.352C30.7256 266.352 31.0826 266.445 31.3906 266.632C31.6986 266.814 31.939 267.08 32.1116 267.43C32.2843 267.78 32.3706 268.202 32.3706 268.697C32.3706 269.192 32.2843 269.619 32.1116 269.978C31.939 270.333 31.6986 270.606 31.3906 270.797C31.0826 270.988 30.7256 271.084 30.3196 271.084ZM30.3196 270.251C30.5343 270.251 30.721 270.188 30.8796 270.062C31.043 269.936 31.1666 269.756 31.2506 269.523C31.3393 269.29 31.3836 269.014 31.3836 268.697C31.3836 268.38 31.3393 268.109 31.2506 267.885C31.1666 267.656 31.043 267.481 30.8796 267.36C30.721 267.239 30.5343 267.178 30.3196 267.178C30.1003 267.178 29.909 267.239 29.7456 267.36C29.587 267.481 29.4633 267.656 29.3746 267.885C29.2906 268.109 29.2486 268.38 29.2486 268.697C29.2486 269.014 29.2906 269.29 29.3746 269.523C29.4633 269.756 29.587 269.936 29.7456 270.062C29.909 270.188 30.1003 270.251 30.3196 270.251ZM33.2503 271V266.436H34.2373L35.4973 268.802L35.9593 269.796H35.9873C35.9639 269.553 35.9359 269.287 35.9033 268.998C35.8753 268.709 35.8613 268.431 35.8613 268.165V266.436H36.7783V271H35.7913L34.5313 268.627L34.0693 267.64H34.0413C34.0646 267.883 34.0903 268.146 34.1183 268.431C34.1509 268.716 34.1673 268.991 34.1673 269.257V271H33.2503ZM24.6913 280.084C24.458 280.084 24.255 280.04 24.0823 279.951C23.9097 279.862 23.765 279.753 23.6483 279.622L23.9353 279.3C24.0287 279.412 24.1407 279.501 24.2713 279.566C24.402 279.627 24.535 279.657 24.6703 279.657C24.8943 279.657 25.0973 279.592 25.2793 279.461C25.466 279.33 25.613 279.113 25.7203 278.81C25.8323 278.507 25.8883 278.098 25.8883 277.585C25.8883 277.221 25.8487 276.911 25.7693 276.654C25.6947 276.393 25.5803 276.194 25.4263 276.059C25.2723 275.924 25.081 275.856 24.8523 275.856C24.703 275.856 24.5677 275.9 24.4463 275.989C24.325 276.073 24.227 276.192 24.1523 276.346C24.0823 276.495 24.0473 276.67 24.0473 276.871C24.0473 277.072 24.0777 277.247 24.1383 277.396C24.2037 277.545 24.2993 277.662 24.4253 277.746C24.5513 277.825 24.7123 277.865 24.9083 277.865C25.0577 277.865 25.221 277.816 25.3983 277.718C25.5757 277.615 25.746 277.445 25.9093 277.207L25.9233 277.634C25.7833 277.821 25.613 277.972 25.4123 278.089C25.2163 278.201 25.0203 278.257 24.8243 278.257C24.5677 278.257 24.3437 278.206 24.1523 278.103C23.961 277.996 23.814 277.839 23.7113 277.634C23.6087 277.429 23.5573 277.174 23.5573 276.871C23.5573 276.591 23.6157 276.344 23.7323 276.129C23.8537 275.914 24.0123 275.749 24.2083 275.632C24.4043 275.511 24.619 275.45 24.8523 275.45C25.0763 275.45 25.2793 275.494 25.4613 275.583C25.648 275.672 25.809 275.807 25.9443 275.989C26.0797 276.166 26.1847 276.39 26.2593 276.661C26.3387 276.927 26.3783 277.235 26.3783 277.585C26.3783 278.038 26.3317 278.425 26.2383 278.747C26.145 279.064 26.019 279.321 25.8603 279.517C25.7017 279.713 25.522 279.858 25.3213 279.951C25.1207 280.04 24.9107 280.084 24.6913 280.084Z" fill="white"/>
<path d="M42.1883 271V266.436H45.0303V267.241H43.1473V268.375H44.7573V269.18H43.1473V271H42.1883ZM45.237 271L46.686 266.436H47.834L49.283 271H48.268L47.638 268.648C47.5726 268.415 47.5073 268.17 47.442 267.913C47.3813 267.656 47.3183 267.407 47.253 267.164H47.225C47.169 267.407 47.1083 267.656 47.043 267.913C46.9823 268.17 46.9193 268.415 46.854 268.648L46.217 271H45.237ZM46.161 269.866V269.117H48.345V269.866H46.161ZM49.8035 271V266.436H50.7625V270.195H52.5965V271H49.8035ZM55.2754 271.084C54.888 271.084 54.5357 270.995 54.2184 270.818C53.901 270.641 53.6467 270.377 53.4554 270.027C53.264 269.677 53.1684 269.248 53.1684 268.739C53.1684 268.361 53.2244 268.025 53.3364 267.731C53.4484 267.437 53.6024 267.187 53.7984 266.982C53.999 266.772 54.2277 266.616 54.4844 266.513C54.7457 266.406 55.0187 266.352 55.3034 266.352C55.5974 266.352 55.8587 266.41 56.0874 266.527C56.3207 266.644 56.512 266.781 56.6614 266.94L56.1504 267.556C56.0337 267.444 55.91 267.353 55.7794 267.283C55.6487 267.213 55.497 267.178 55.3244 267.178C55.105 267.178 54.9067 267.241 54.7294 267.367C54.552 267.488 54.412 267.663 54.3094 267.892C54.2067 268.121 54.1554 268.394 54.1554 268.711C54.1554 269.033 54.202 269.311 54.2954 269.544C54.3887 269.773 54.5217 269.948 54.6944 270.069C54.8717 270.19 55.077 270.251 55.3104 270.251C55.5017 270.251 55.672 270.209 55.8214 270.125C55.9754 270.041 56.1107 269.936 56.2274 269.81L56.7384 270.412C56.5517 270.631 56.3347 270.799 56.0874 270.916C55.84 271.028 55.5694 271.084 55.2754 271.084ZM59.2869 271.084C58.8809 271.084 58.5216 270.988 58.2089 270.797C57.9009 270.606 57.6606 270.333 57.4879 269.978C57.3152 269.619 57.2289 269.192 57.2289 268.697C57.2289 268.202 57.3152 267.78 57.4879 267.43C57.6606 267.08 57.9009 266.814 58.2089 266.632C58.5216 266.445 58.8809 266.352 59.2869 266.352C59.6929 266.352 60.0499 266.445 60.3579 266.632C60.6659 266.814 60.9062 267.08 61.0789 267.43C61.2516 267.78 61.3379 268.202 61.3379 268.697C61.3379 269.192 61.2516 269.619 61.0789 269.978C60.9062 270.333 60.6659 270.606 60.3579 270.797C60.0499 270.988 59.6929 271.084 59.2869 271.084ZM59.2869 270.251C59.5016 270.251 59.6882 270.188 59.8469 270.062C60.0102 269.936 60.1339 269.756 60.2179 269.523C60.3066 269.29 60.3509 269.014 60.3509 268.697C60.3509 268.38 60.3066 268.109 60.2179 267.885C60.1339 267.656 60.0102 267.481 59.8469 267.36C59.6882 267.239 59.5016 267.178 59.2869 267.178C59.0676 267.178 58.8762 267.239 58.7129 267.36C58.5542 267.481 58.4306 267.656 58.3419 267.885C58.2579 268.109 58.2159 268.38 58.2159 268.697C58.2159 269.014 58.2579 269.29 58.3419 269.523C58.4306 269.756 58.5542 269.936 58.7129 270.062C58.8762 270.188 59.0676 270.251 59.2869 270.251ZM62.2176 271V266.436H63.2046L64.4646 268.802L64.9266 269.796H64.9546C64.9312 269.553 64.9032 269.287 64.8706 268.998C64.8426 268.709 64.8286 268.431 64.8286 268.165V266.436H65.7456V271H64.7586L63.4986 268.627L63.0366 267.64H63.0086C63.0319 267.883 63.0576 268.146 63.0856 268.431C63.1182 268.716 63.1346 268.991 63.1346 269.257V271H62.2176ZM69.2757 271.084C68.991 271.084 68.7437 271.033 68.5337 270.93C68.3237 270.823 68.1487 270.699 68.0087 270.559L68.5197 269.985C68.599 270.074 68.7017 270.151 68.8277 270.216C68.9584 270.277 69.089 270.307 69.2197 270.307C69.397 270.307 69.558 270.256 69.7027 270.153C69.8474 270.05 69.9617 269.88 70.0457 269.642C70.1344 269.399 70.1787 269.073 70.1787 268.662C70.1787 268.293 70.1437 268.002 70.0737 267.787C70.0037 267.572 69.9104 267.421 69.7937 267.332C69.6817 267.239 69.5557 267.192 69.4157 267.192C69.3084 267.192 69.208 267.22 69.1147 267.276C69.026 267.327 68.9537 267.409 68.8977 267.521C68.8464 267.633 68.8207 267.775 68.8207 267.948C68.8207 268.111 68.8464 268.244 68.8977 268.347C68.9537 268.445 69.0284 268.52 69.1217 268.571C69.215 268.618 69.3224 268.641 69.4437 268.641C69.565 268.641 69.691 268.604 69.8217 268.529C69.9524 268.454 70.0714 268.324 70.1787 268.137L70.2207 268.781C70.104 268.949 69.9524 269.082 69.7657 269.18C69.5837 269.278 69.4157 269.327 69.2617 269.327C69.0097 269.327 68.7834 269.278 68.5827 269.18C68.382 269.077 68.2257 268.926 68.1137 268.725C68.0017 268.52 67.9457 268.261 67.9457 267.948C67.9457 267.645 68.011 267.383 68.1417 267.164C68.277 266.94 68.4544 266.77 68.6737 266.653C68.893 266.532 69.1357 266.471 69.4017 266.471C69.6164 266.471 69.8217 266.513 70.0177 266.597C70.2184 266.681 70.3957 266.812 70.5497 266.989C70.7037 267.166 70.8274 267.395 70.9207 267.675C71.014 267.95 71.0607 268.279 71.0607 268.662C71.0607 269.082 71.0117 269.446 70.9137 269.754C70.8157 270.057 70.6827 270.307 70.5147 270.503C70.3467 270.699 70.1554 270.846 69.9407 270.944C69.7307 271.037 69.509 271.084 69.2757 271.084ZM51.3601 280L49.8761 275.401H50.4291L51.1991 277.935C51.2831 278.21 51.3578 278.467 51.4231 278.705C51.4885 278.938 51.5631 279.19 51.6471 279.461H51.6751C51.7638 279.19 51.8408 278.938 51.9061 278.705C51.9761 278.467 52.0508 278.21 52.1301 277.935L52.9001 275.401H53.4251L51.9551 280H51.3601ZM55.175 280V279.573H56.204V276.178H55.392V275.849C55.5927 275.816 55.7677 275.774 55.917 275.723C56.0664 275.667 56.2017 275.604 56.323 275.534H56.715V279.573H57.646V280H55.175ZM58.8372 280.084C58.7346 280.084 58.6436 280.047 58.5642 279.972C58.4896 279.897 58.4522 279.799 58.4522 279.678C58.4522 279.552 58.4896 279.452 58.5642 279.377C58.6436 279.302 58.7346 279.265 58.8372 279.265C58.9446 279.265 59.0356 279.302 59.1102 279.377C59.1849 279.452 59.2222 279.552 59.2222 279.678C59.2222 279.799 59.1849 279.897 59.1102 279.972C59.0356 280.047 58.9446 280.084 58.8372 280.084ZM61.4075 280.084C60.9689 280.084 60.6235 279.883 60.3715 279.482C60.1242 279.076 60.0005 278.5 60.0005 277.753C60.0005 277.002 60.1242 276.43 60.3715 276.038C60.6235 275.646 60.9689 275.45 61.4075 275.45C61.8509 275.45 62.1962 275.648 62.4435 276.045C62.6909 276.437 62.8145 277.006 62.8145 277.753C62.8145 278.5 62.6909 279.076 62.4435 279.482C62.1962 279.883 61.8509 280.084 61.4075 280.084ZM61.4075 279.671C61.5895 279.671 61.7482 279.603 61.8835 279.468C62.0235 279.333 62.1309 279.123 62.2055 278.838C62.2802 278.553 62.3175 278.192 62.3175 277.753C62.3175 277.31 62.2802 276.95 62.2055 276.675C62.1309 276.395 62.0235 276.19 61.8835 276.059C61.7482 275.928 61.5895 275.863 61.4075 275.863C61.2255 275.863 61.0669 275.928 60.9315 276.059C60.7962 276.19 60.6889 276.395 60.6095 276.675C60.5349 276.95 60.4975 277.31 60.4975 277.753C60.4975 278.192 60.5349 278.553 60.6095 278.838C60.6889 279.123 60.7962 279.333 60.9315 279.468C61.0669 279.603 61.2255 279.671 61.4075 279.671Z" fill="white"/>
<path d="M79.6883 271V266.436H82.5303V267.241H80.6473V268.375H82.2573V269.18H80.6473V271H79.6883ZM82.737 271L84.186 266.436H85.334L86.783 271H85.768L85.138 268.648C85.0726 268.415 85.0073 268.17 84.942 267.913C84.8813 267.656 84.8183 267.407 84.753 267.164H84.725C84.669 267.407 84.6083 267.656 84.543 267.913C84.4823 268.17 84.4193 268.415 84.354 268.648L83.717 271H82.737ZM83.661 269.866V269.117H85.845V269.866H83.661ZM87.3035 271V266.436H88.2625V270.195H90.0965V271H87.3035ZM92.7754 271.084C92.388 271.084 92.0357 270.995 91.7184 270.818C91.401 270.641 91.1467 270.377 90.9554 270.027C90.764 269.677 90.6684 269.248 90.6684 268.739C90.6684 268.361 90.7244 268.025 90.8364 267.731C90.9484 267.437 91.1024 267.187 91.2984 266.982C91.499 266.772 91.7277 266.616 91.9844 266.513C92.2457 266.406 92.5187 266.352 92.8034 266.352C93.0974 266.352 93.3587 266.41 93.5874 266.527C93.8207 266.644 94.012 266.781 94.1614 266.94L93.6504 267.556C93.5337 267.444 93.41 267.353 93.2794 267.283C93.1487 267.213 92.997 267.178 92.8244 267.178C92.605 267.178 92.4067 267.241 92.2294 267.367C92.052 267.488 91.912 267.663 91.8094 267.892C91.7067 268.121 91.6554 268.394 91.6554 268.711C91.6554 269.033 91.702 269.311 91.7954 269.544C91.8887 269.773 92.0217 269.948 92.1944 270.069C92.3717 270.19 92.577 270.251 92.8104 270.251C93.0017 270.251 93.172 270.209 93.3214 270.125C93.4754 270.041 93.6107 269.936 93.7274 269.81L94.2384 270.412C94.0517 270.631 93.8347 270.799 93.5874 270.916C93.34 271.028 93.0694 271.084 92.7754 271.084ZM96.7869 271.084C96.3809 271.084 96.0216 270.988 95.7089 270.797C95.4009 270.606 95.1606 270.333 94.9879 269.978C94.8152 269.619 94.7289 269.192 94.7289 268.697C94.7289 268.202 94.8152 267.78 94.9879 267.43C95.1606 267.08 95.4009 266.814 95.7089 266.632C96.0216 266.445 96.3809 266.352 96.7869 266.352C97.1929 266.352 97.5499 266.445 97.8579 266.632C98.1659 266.814 98.4062 267.08 98.5789 267.43C98.7516 267.78 98.8379 268.202 98.8379 268.697C98.8379 269.192 98.7516 269.619 98.5789 269.978C98.4062 270.333 98.1659 270.606 97.8579 270.797C97.5499 270.988 97.1929 271.084 96.7869 271.084ZM96.7869 270.251C97.0016 270.251 97.1882 270.188 97.3469 270.062C97.5102 269.936 97.6339 269.756 97.7179 269.523C97.8066 269.29 97.8509 269.014 97.8509 268.697C97.8509 268.38 97.8066 268.109 97.7179 267.885C97.6339 267.656 97.5102 267.481 97.3469 267.36C97.1882 267.239 97.0016 267.178 96.7869 267.178C96.5676 267.178 96.3762 267.239 96.2129 267.36C96.0542 267.481 95.9306 267.656 95.8419 267.885C95.7579 268.109 95.7159 268.38 95.7159 268.697C95.7159 269.014 95.7579 269.29 95.8419 269.523C95.9306 269.756 96.0542 269.936 96.2129 270.062C96.3762 270.188 96.5676 270.251 96.7869 270.251ZM99.7176 271V266.436H100.705L101.965 268.802L102.427 269.796H102.455C102.431 269.553 102.403 269.287 102.371 268.998C102.343 268.709 102.329 268.431 102.329 268.165V266.436H103.246V271H102.259L100.999 268.627L100.537 267.64H100.509C100.532 267.883 100.558 268.146 100.586 268.431C100.618 268.716 100.635 268.991 100.635 269.257V271H99.7176ZM106.776 271.084C106.491 271.084 106.244 271.033 106.034 270.93C105.824 270.823 105.649 270.699 105.509 270.559L106.02 269.985C106.099 270.074 106.202 270.151 106.328 270.216C106.458 270.277 106.589 270.307 106.72 270.307C106.897 270.307 107.058 270.256 107.203 270.153C107.347 270.05 107.462 269.88 107.546 269.642C107.634 269.399 107.679 269.073 107.679 268.662C107.679 268.293 107.644 268.002 107.574 267.787C107.504 267.572 107.41 267.421 107.294 267.332C107.182 267.239 107.056 267.192 106.916 267.192C106.808 267.192 106.708 267.22 106.615 267.276C106.526 267.327 106.454 267.409 106.398 267.521C106.346 267.633 106.321 267.775 106.321 267.948C106.321 268.111 106.346 268.244 106.398 268.347C106.454 268.445 106.528 268.52 106.622 268.571C106.715 268.618 106.822 268.641 106.944 268.641C107.065 268.641 107.191 268.604 107.322 268.529C107.452 268.454 107.571 268.324 107.679 268.137L107.721 268.781C107.604 268.949 107.452 269.082 107.266 269.18C107.084 269.278 106.916 269.327 106.762 269.327C106.51 269.327 106.283 269.278 106.083 269.18C105.882 269.077 105.726 268.926 105.614 268.725C105.502 268.52 105.446 268.261 105.446 267.948C105.446 267.645 105.511 267.383 105.642 267.164C105.777 266.94 105.954 266.77 106.174 266.653C106.393 266.532 106.636 266.471 106.902 266.471C107.116 266.471 107.322 266.513 107.518 266.597C107.718 266.681 107.896 266.812 108.05 266.989C108.204 267.166 108.327 267.395 108.421 267.675C108.514 267.95 108.561 268.279 108.561 268.662C108.561 269.082 108.512 269.446 108.414 269.754C108.316 270.057 108.183 270.307 108.015 270.503C107.847 270.699 107.655 270.846 107.441 270.944C107.231 271.037 107.009 271.084 106.776 271.084ZM89.0037 280L87.5197 275.401H88.0727L88.8427 277.935C88.9267 278.21 89.0014 278.467 89.0667 278.705C89.132 278.938 89.2067 279.19 89.2907 279.461H89.3187C89.4074 279.19 89.4844 278.938 89.5497 278.705C89.6197 278.467 89.6944 278.21 89.7737 277.935L90.5437 275.401H91.0687L89.5987 280H89.0037ZM92.8186 280V279.573H93.8476V276.178H93.0356V275.849C93.2363 275.816 93.4113 275.774 93.5606 275.723C93.7099 275.667 93.8453 275.604 93.9666 275.534H94.3586V279.573H95.2896V280H92.8186ZM96.4808 280.084C96.3781 280.084 96.2871 280.047 96.2078 279.972C96.1331 279.897 96.0958 279.799 96.0958 279.678C96.0958 279.552 96.1331 279.452 96.2078 279.377C96.2871 279.302 96.3781 279.265 96.4808 279.265C96.5881 279.265 96.6791 279.302 96.7538 279.377C96.8285 279.452 96.8658 279.552 96.8658 279.678C96.8658 279.799 96.8285 279.897 96.7538 279.972C96.6791 280.047 96.5881 280.084 96.4808 280.084ZM97.6721 280V279.573H98.7011V276.178H97.8891V275.849C98.0898 275.816 98.2648 275.774 98.4141 275.723C98.5634 275.667 98.6988 275.604 98.8201 275.534H99.2121V279.573H100.143V280H97.6721Z" fill="white"/>
<path d="M117.188 271V266.436H120.03V267.241H118.147V268.375H119.757V269.18H118.147V271H117.188ZM120.237 271L121.686 266.436H122.834L124.283 271H123.268L122.638 268.648C122.573 268.415 122.507 268.17 122.442 267.913C122.381 267.656 122.318 267.407 122.253 267.164H122.225C122.169 267.407 122.108 267.656 122.043 267.913C121.982 268.17 121.919 268.415 121.854 268.648L121.217 271H120.237ZM121.161 269.866V269.117H123.345V269.866H121.161ZM124.803 271V266.436H125.762V270.195H127.596V271H124.803ZM130.275 271.084C129.888 271.084 129.536 270.995 129.218 270.818C128.901 270.641 128.647 270.377 128.455 270.027C128.264 269.677 128.168 269.248 128.168 268.739C128.168 268.361 128.224 268.025 128.336 267.731C128.448 267.437 128.602 267.187 128.798 266.982C128.999 266.772 129.228 266.616 129.484 266.513C129.746 266.406 130.019 266.352 130.303 266.352C130.597 266.352 130.859 266.41 131.087 266.527C131.321 266.644 131.512 266.781 131.661 266.94L131.15 267.556C131.034 267.444 130.91 267.353 130.779 267.283C130.649 267.213 130.497 267.178 130.324 267.178C130.105 267.178 129.907 267.241 129.729 267.367C129.552 267.488 129.412 267.663 129.309 267.892C129.207 268.121 129.155 268.394 129.155 268.711C129.155 269.033 129.202 269.311 129.295 269.544C129.389 269.773 129.522 269.948 129.694 270.069C129.872 270.19 130.077 270.251 130.31 270.251C130.502 270.251 130.672 270.209 130.821 270.125C130.975 270.041 131.111 269.936 131.227 269.81L131.738 270.412C131.552 270.631 131.335 270.799 131.087 270.916C130.84 271.028 130.569 271.084 130.275 271.084ZM134.287 271.084C133.881 271.084 133.522 270.988 133.209 270.797C132.901 270.606 132.661 270.333 132.488 269.978C132.315 269.619 132.229 269.192 132.229 268.697C132.229 268.202 132.315 267.78 132.488 267.43C132.661 267.08 132.901 266.814 133.209 266.632C133.522 266.445 133.881 266.352 134.287 266.352C134.693 266.352 135.05 266.445 135.358 266.632C135.666 266.814 135.906 267.08 136.079 267.43C136.252 267.78 136.338 268.202 136.338 268.697C136.338 269.192 136.252 269.619 136.079 269.978C135.906 270.333 135.666 270.606 135.358 270.797C135.05 270.988 134.693 271.084 134.287 271.084ZM134.287 270.251C134.502 270.251 134.688 270.188 134.847 270.062C135.01 269.936 135.134 269.756 135.218 269.523C135.307 269.29 135.351 269.014 135.351 268.697C135.351 268.38 135.307 268.109 135.218 267.885C135.134 267.656 135.01 267.481 134.847 267.36C134.688 267.239 134.502 267.178 134.287 267.178C134.068 267.178 133.876 267.239 133.713 267.36C133.554 267.481 133.431 267.656 133.342 267.885C133.258 268.109 133.216 268.38 133.216 268.697C133.216 269.014 133.258 269.29 133.342 269.523C133.431 269.756 133.554 269.936 133.713 270.062C133.876 270.188 134.068 270.251 134.287 270.251ZM137.218 271V266.436H138.205L139.465 268.802L139.927 269.796H139.955C139.931 269.553 139.903 269.287 139.871 268.998C139.843 268.709 139.829 268.431 139.829 268.165V266.436H140.746V271H139.759L138.499 268.627L138.037 267.64H138.009C138.032 267.883 138.058 268.146 138.086 268.431C138.118 268.716 138.135 268.991 138.135 269.257V271H137.218ZM144.276 271.084C143.991 271.084 143.744 271.033 143.534 270.93C143.324 270.823 143.149 270.699 143.009 270.559L143.52 269.985C143.599 270.074 143.702 270.151 143.828 270.216C143.958 270.277 144.089 270.307 144.22 270.307C144.397 270.307 144.558 270.256 144.703 270.153C144.847 270.05 144.962 269.88 145.046 269.642C145.134 269.399 145.179 269.073 145.179 268.662C145.179 268.293 145.144 268.002 145.074 267.787C145.004 267.572 144.91 267.421 144.794 267.332C144.682 267.239 144.556 267.192 144.416 267.192C144.308 267.192 144.208 267.22 144.115 267.276C144.026 267.327 143.954 267.409 143.898 267.521C143.846 267.633 143.821 267.775 143.821 267.948C143.821 268.111 143.846 268.244 143.898 268.347C143.954 268.445 144.028 268.52 144.122 268.571C144.215 268.618 144.322 268.641 144.444 268.641C144.565 268.641 144.691 268.604 144.822 268.529C144.952 268.454 145.071 268.324 145.179 268.137L145.221 268.781C145.104 268.949 144.952 269.082 144.766 269.18C144.584 269.278 144.416 269.327 144.262 269.327C144.01 269.327 143.783 269.278 143.583 269.18C143.382 269.077 143.226 268.926 143.114 268.725C143.002 268.52 142.946 268.261 142.946 267.948C142.946 267.645 143.011 267.383 143.142 267.164C143.277 266.94 143.454 266.77 143.674 266.653C143.893 266.532 144.136 266.471 144.402 266.471C144.616 266.471 144.822 266.513 145.018 266.597C145.218 266.681 145.396 266.812 145.55 266.989C145.704 267.166 145.827 267.395 145.921 267.675C146.014 267.95 146.061 268.279 146.061 268.662C146.061 269.082 146.012 269.446 145.914 269.754C145.816 270.057 145.683 270.307 145.515 270.503C145.347 270.699 145.155 270.846 144.941 270.944C144.731 271.037 144.509 271.084 144.276 271.084ZM126.36 280L124.876 275.401H125.429L126.199 277.935C126.283 278.21 126.358 278.467 126.423 278.705C126.488 278.938 126.563 279.19 126.647 279.461H126.675C126.764 279.19 126.841 278.938 126.906 278.705C126.976 278.467 127.051 278.21 127.13 277.935L127.9 275.401H128.425L126.955 280H126.36ZM130.175 280V279.573H131.204V276.178H130.392V275.849C130.593 275.816 130.768 275.774 130.917 275.723C131.066 275.667 131.202 275.604 131.323 275.534H131.715V279.573H132.646V280H130.175ZM133.837 280.084C133.735 280.084 133.644 280.047 133.564 279.972C133.49 279.897 133.452 279.799 133.452 279.678C133.452 279.552 133.49 279.452 133.564 279.377C133.644 279.302 133.735 279.265 133.837 279.265C133.945 279.265 134.036 279.302 134.11 279.377C134.185 279.452 134.222 279.552 134.222 279.678C134.222 279.799 134.185 279.897 134.11 279.972C134.036 280.047 133.945 280.084 133.837 280.084ZM134.966 280V279.699C135.423 279.237 135.81 278.833 136.128 278.488C136.445 278.138 136.685 277.825 136.849 277.55C137.012 277.275 137.094 277.013 137.094 276.766C137.094 276.505 137.021 276.29 136.877 276.122C136.737 275.954 136.515 275.87 136.212 275.87C136.025 275.87 135.848 275.921 135.68 276.024C135.516 276.127 135.369 276.257 135.239 276.416L134.938 276.122C135.124 275.921 135.323 275.76 135.533 275.639C135.743 275.513 135.99 275.45 136.275 275.45C136.545 275.45 136.779 275.504 136.975 275.611C137.175 275.718 137.329 275.87 137.437 276.066C137.544 276.257 137.598 276.484 137.598 276.745C137.598 277.03 137.516 277.317 137.353 277.606C137.194 277.895 136.972 278.203 136.688 278.53C136.408 278.852 136.083 279.207 135.715 279.594C135.836 279.585 135.962 279.578 136.093 279.573C136.223 279.564 136.347 279.559 136.464 279.559H137.815V280H134.966Z" fill="white"/>
<path d="M155.188 271V266.436H158.03V267.241H156.147V268.375H157.757V269.18H156.147V271H155.188ZM158.237 271L159.686 266.436H160.834L162.283 271H161.268L160.638 268.648C160.573 268.415 160.507 268.17 160.442 267.913C160.381 267.656 160.318 267.407 160.253 267.164H160.225C160.169 267.407 160.108 267.656 160.043 267.913C159.982 268.17 159.919 268.415 159.854 268.648L159.217 271H158.237ZM159.161 269.866V269.117H161.345V269.866H159.161ZM162.803 271V266.436H163.762V270.195H165.596V271H162.803ZM168.275 271.084C167.888 271.084 167.536 270.995 167.218 270.818C166.901 270.641 166.647 270.377 166.455 270.027C166.264 269.677 166.168 269.248 166.168 268.739C166.168 268.361 166.224 268.025 166.336 267.731C166.448 267.437 166.602 267.187 166.798 266.982C166.999 266.772 167.228 266.616 167.484 266.513C167.746 266.406 168.019 266.352 168.303 266.352C168.597 266.352 168.859 266.41 169.087 266.527C169.321 266.644 169.512 266.781 169.661 266.94L169.15 267.556C169.034 267.444 168.91 267.353 168.779 267.283C168.649 267.213 168.497 267.178 168.324 267.178C168.105 267.178 167.907 267.241 167.729 267.367C167.552 267.488 167.412 267.663 167.309 267.892C167.207 268.121 167.155 268.394 167.155 268.711C167.155 269.033 167.202 269.311 167.295 269.544C167.389 269.773 167.522 269.948 167.694 270.069C167.872 270.19 168.077 270.251 168.31 270.251C168.502 270.251 168.672 270.209 168.821 270.125C168.975 270.041 169.111 269.936 169.227 269.81L169.738 270.412C169.552 270.631 169.335 270.799 169.087 270.916C168.84 271.028 168.569 271.084 168.275 271.084ZM172.287 271.084C171.881 271.084 171.522 270.988 171.209 270.797C170.901 270.606 170.661 270.333 170.488 269.978C170.315 269.619 170.229 269.192 170.229 268.697C170.229 268.202 170.315 267.78 170.488 267.43C170.661 267.08 170.901 266.814 171.209 266.632C171.522 266.445 171.881 266.352 172.287 266.352C172.693 266.352 173.05 266.445 173.358 266.632C173.666 266.814 173.906 267.08 174.079 267.43C174.252 267.78 174.338 268.202 174.338 268.697C174.338 269.192 174.252 269.619 174.079 269.978C173.906 270.333 173.666 270.606 173.358 270.797C173.05 270.988 172.693 271.084 172.287 271.084ZM172.287 270.251C172.502 270.251 172.688 270.188 172.847 270.062C173.01 269.936 173.134 269.756 173.218 269.523C173.307 269.29 173.351 269.014 173.351 268.697C173.351 268.38 173.307 268.109 173.218 267.885C173.134 267.656 173.01 267.481 172.847 267.36C172.688 267.239 172.502 267.178 172.287 267.178C172.068 267.178 171.876 267.239 171.713 267.36C171.554 267.481 171.431 267.656 171.342 267.885C171.258 268.109 171.216 268.38 171.216 268.697C171.216 269.014 171.258 269.29 171.342 269.523C171.431 269.756 171.554 269.936 171.713 270.062C171.876 270.188 172.068 270.251 172.287 270.251ZM175.218 271V266.436H176.205L177.465 268.802L177.927 269.796H177.955C177.931 269.553 177.903 269.287 177.871 268.998C177.843 268.709 177.829 268.431 177.829 268.165V266.436H178.746V271H177.759L176.499 268.627L176.037 267.64H176.009C176.032 267.883 176.058 268.146 176.086 268.431C176.118 268.716 176.135 268.991 176.135 269.257V271H175.218ZM182.276 271.084C181.991 271.084 181.744 271.033 181.534 270.93C181.324 270.823 181.149 270.699 181.009 270.559L181.52 269.985C181.599 270.074 181.702 270.151 181.828 270.216C181.958 270.277 182.089 270.307 182.22 270.307C182.397 270.307 182.558 270.256 182.703 270.153C182.847 270.05 182.962 269.88 183.046 269.642C183.134 269.399 183.179 269.073 183.179 268.662C183.179 268.293 183.144 268.002 183.074 267.787C183.004 267.572 182.91 267.421 182.794 267.332C182.682 267.239 182.556 267.192 182.416 267.192C182.308 267.192 182.208 267.22 182.115 267.276C182.026 267.327 181.954 267.409 181.898 267.521C181.846 267.633 181.821 267.775 181.821 267.948C181.821 268.111 181.846 268.244 181.898 268.347C181.954 268.445 182.028 268.52 182.122 268.571C182.215 268.618 182.322 268.641 182.444 268.641C182.565 268.641 182.691 268.604 182.822 268.529C182.952 268.454 183.071 268.324 183.179 268.137L183.221 268.781C183.104 268.949 182.952 269.082 182.766 269.18C182.584 269.278 182.416 269.327 182.262 269.327C182.01 269.327 181.783 269.278 181.583 269.18C181.382 269.077 181.226 268.926 181.114 268.725C181.002 268.52 180.946 268.261 180.946 267.948C180.946 267.645 181.011 267.383 181.142 267.164C181.277 266.94 181.454 266.77 181.674 266.653C181.893 266.532 182.136 266.471 182.402 266.471C182.616 266.471 182.822 266.513 183.018 266.597C183.218 266.681 183.396 266.812 183.55 266.989C183.704 267.166 183.827 267.395 183.921 267.675C184.014 267.95 184.061 268.279 184.061 268.662C184.061 269.082 184.012 269.446 183.914 269.754C183.816 270.057 183.683 270.307 183.515 270.503C183.347 270.699 183.155 270.846 182.941 270.944C182.731 271.037 182.509 271.084 182.276 271.084ZM159.613 280V275.401H160.943C161.256 275.401 161.529 275.441 161.762 275.52C162 275.595 162.185 275.716 162.315 275.884C162.446 276.047 162.511 276.262 162.511 276.528C162.511 276.757 162.453 276.962 162.336 277.144C162.22 277.326 162.049 277.452 161.825 277.522V277.55C162.11 277.601 162.339 277.72 162.511 277.907C162.689 278.089 162.777 278.339 162.777 278.656C162.777 278.955 162.705 279.204 162.56 279.405C162.416 279.606 162.213 279.755 161.951 279.853C161.69 279.951 161.389 280 161.048 280H159.613ZM160.131 279.587H160.964C161.375 279.587 161.695 279.51 161.923 279.356C162.152 279.202 162.266 278.964 162.266 278.642C162.266 278.348 162.154 278.131 161.93 277.991C161.706 277.846 161.384 277.774 160.964 277.774H160.131V279.587ZM160.131 277.375H160.838C161.249 277.375 161.545 277.305 161.727 277.165C161.909 277.025 162 276.834 162 276.591C162 276.306 161.905 276.106 161.713 275.989C161.522 275.872 161.24 275.814 160.866 275.814H160.131V277.375ZM164.212 280.084C164.086 280.084 163.981 280.056 163.897 280C163.813 279.949 163.752 279.872 163.715 279.769C163.678 279.662 163.659 279.531 163.659 279.377V275.002H164.163V279.419C164.163 279.503 164.179 279.564 164.212 279.601C164.245 279.638 164.282 279.657 164.324 279.657C164.338 279.657 164.354 279.657 164.373 279.657C164.392 279.652 164.417 279.648 164.45 279.643L164.52 280.035C164.483 280.044 164.438 280.054 164.387 280.063C164.34 280.077 164.282 280.084 164.212 280.084ZM166.704 280.084C166.429 280.084 166.172 280.014 165.934 279.874C165.696 279.734 165.505 279.533 165.36 279.272C165.215 279.006 165.143 278.684 165.143 278.306C165.143 277.928 165.215 277.606 165.36 277.34C165.505 277.074 165.696 276.871 165.934 276.731C166.172 276.591 166.429 276.521 166.704 276.521C166.979 276.521 167.234 276.591 167.467 276.731C167.705 276.871 167.896 277.074 168.041 277.34C168.19 277.606 168.265 277.928 168.265 278.306C168.265 278.684 168.19 279.006 168.041 279.272C167.896 279.533 167.705 279.734 167.467 279.874C167.234 280.014 166.979 280.084 166.704 280.084ZM166.704 279.657C166.909 279.657 167.089 279.601 167.243 279.489C167.402 279.377 167.523 279.221 167.607 279.02C167.696 278.815 167.74 278.577 167.74 278.306C167.74 278.04 167.696 277.804 167.607 277.599C167.523 277.394 167.402 277.235 167.243 277.123C167.089 277.006 166.909 276.948 166.704 276.948C166.503 276.948 166.324 277.006 166.165 277.123C166.011 277.235 165.89 277.394 165.801 277.599C165.717 277.804 165.675 278.04 165.675 278.306C165.675 278.577 165.717 278.815 165.801 279.02C165.89 279.221 166.011 279.377 166.165 279.489C166.324 279.601 166.503 279.657 166.704 279.657ZM170.505 280.084C170.207 280.084 169.938 280.014 169.7 279.874C169.462 279.734 169.273 279.533 169.133 279.272C168.993 279.006 168.923 278.684 168.923 278.306C168.923 277.928 168.998 277.606 169.147 277.34C169.301 277.074 169.5 276.871 169.742 276.731C169.985 276.591 170.251 276.521 170.54 276.521C170.764 276.521 170.956 276.563 171.114 276.647C171.273 276.726 171.411 276.82 171.527 276.927L171.261 277.263C171.163 277.17 171.056 277.095 170.939 277.039C170.827 276.978 170.701 276.948 170.561 276.948C170.347 276.948 170.155 277.006 169.987 277.123C169.824 277.235 169.693 277.394 169.595 277.599C169.502 277.804 169.455 278.04 169.455 278.306C169.455 278.577 169.5 278.815 169.588 279.02C169.682 279.221 169.81 279.377 169.973 279.489C170.137 279.601 170.328 279.657 170.547 279.657C170.711 279.657 170.862 279.622 171.002 279.552C171.142 279.482 171.266 279.4 171.373 279.307L171.597 279.65C171.448 279.785 171.28 279.893 171.093 279.972C170.907 280.047 170.711 280.084 170.505 280.084ZM172.368 280V275.002H172.865V278.46H172.886L174.391 276.605H174.958L173.824 277.963L175.112 280H174.559L173.53 278.32L172.865 279.104V280H172.368ZM178.209 280.084C177.971 280.084 177.761 280.056 177.579 280C177.402 279.939 177.246 279.862 177.11 279.769C176.98 279.676 176.863 279.578 176.76 279.475L177.019 279.139C177.155 279.27 177.311 279.389 177.488 279.496C177.67 279.603 177.897 279.657 178.167 279.657C178.354 279.657 178.524 279.613 178.678 279.524C178.832 279.435 178.954 279.312 179.042 279.153C179.131 278.994 179.175 278.808 179.175 278.593C179.175 278.271 179.087 278.021 178.909 277.844C178.732 277.662 178.494 277.571 178.195 277.571C178.037 277.571 177.899 277.594 177.782 277.641C177.67 277.688 177.547 277.755 177.411 277.844L177.131 277.669L177.278 275.534H179.469V275.975H177.726L177.6 277.368C177.712 277.307 177.824 277.261 177.936 277.228C178.048 277.191 178.174 277.172 178.314 277.172C178.571 277.172 178.802 277.223 179.007 277.326C179.217 277.424 179.383 277.576 179.504 277.781C179.63 277.986 179.693 278.25 179.693 278.572C179.693 278.894 179.623 279.169 179.483 279.398C179.343 279.622 179.159 279.792 178.93 279.909C178.706 280.026 178.466 280.084 178.209 280.084Z" fill="white"/>
<path d="M208.221 271V266.436H211.063V267.241H209.18V268.375H210.79V269.18H209.18V271H208.221ZM211.27 271L212.719 266.436H213.867L215.316 271H214.301L213.671 268.648C213.605 268.415 213.54 268.17 213.475 267.913C213.414 267.656 213.351 267.407 213.286 267.164H213.258C213.202 267.407 213.141 267.656 213.076 267.913C213.015 268.17 212.952 268.415 212.887 268.648L212.25 271H211.27ZM212.194 269.866V269.117H214.378V269.866H212.194ZM215.836 271V266.436H216.795V270.195H218.629V271H215.836ZM221.308 271.084C220.921 271.084 220.568 270.995 220.251 270.818C219.934 270.641 219.679 270.377 219.488 270.027C219.297 269.677 219.201 269.248 219.201 268.739C219.201 268.361 219.257 268.025 219.369 267.731C219.481 267.437 219.635 267.187 219.831 266.982C220.032 266.772 220.26 266.616 220.517 266.513C220.778 266.406 221.051 266.352 221.336 266.352C221.63 266.352 221.891 266.41 222.12 266.527C222.353 266.644 222.545 266.781 222.694 266.94L222.183 267.556C222.066 267.444 221.943 267.353 221.812 267.283C221.681 267.213 221.53 267.178 221.357 267.178C221.138 267.178 220.939 267.241 220.762 267.367C220.585 267.488 220.445 267.663 220.342 267.892C220.239 268.121 220.188 268.394 220.188 268.711C220.188 269.033 220.235 269.311 220.328 269.544C220.421 269.773 220.554 269.948 220.727 270.069C220.904 270.19 221.11 270.251 221.343 270.251C221.534 270.251 221.705 270.209 221.854 270.125C222.008 270.041 222.143 269.936 222.26 269.81L222.771 270.412C222.584 270.631 222.367 270.799 222.12 270.916C221.873 271.028 221.602 271.084 221.308 271.084ZM225.32 271.084C224.914 271.084 224.554 270.988 224.242 270.797C223.934 270.606 223.693 270.333 223.521 269.978C223.348 269.619 223.262 269.192 223.262 268.697C223.262 268.202 223.348 267.78 223.521 267.43C223.693 267.08 223.934 266.814 224.242 266.632C224.554 266.445 224.914 266.352 225.32 266.352C225.726 266.352 226.083 266.445 226.391 266.632C226.699 266.814 226.939 267.08 227.112 267.43C227.284 267.78 227.371 268.202 227.371 268.697C227.371 269.192 227.284 269.619 227.112 269.978C226.939 270.333 226.699 270.606 226.391 270.797C226.083 270.988 225.726 271.084 225.32 271.084ZM225.32 270.251C225.534 270.251 225.721 270.188 225.88 270.062C226.043 269.936 226.167 269.756 226.251 269.523C226.339 269.29 226.384 269.014 226.384 268.697C226.384 268.38 226.339 268.109 226.251 267.885C226.167 267.656 226.043 267.481 225.88 267.36C225.721 267.239 225.534 267.178 225.32 267.178C225.1 267.178 224.909 267.239 224.746 267.36C224.587 267.481 224.463 267.656 224.375 267.885C224.291 268.109 224.249 268.38 224.249 268.697C224.249 269.014 224.291 269.29 224.375 269.523C224.463 269.756 224.587 269.936 224.746 270.062C224.909 270.188 225.1 270.251 225.32 270.251ZM228.25 271V266.436H229.237L230.497 268.802L230.959 269.796H230.987C230.964 269.553 230.936 269.287 230.903 268.998C230.875 268.709 230.861 268.431 230.861 268.165V266.436H231.778V271H230.791L229.531 268.627L229.069 267.64H229.041C229.065 267.883 229.09 268.146 229.118 268.431C229.151 268.716 229.167 268.991 229.167 269.257V271H228.25ZM210.579 280V275.436H211.538V277.214H213.204V275.436H214.163V280H213.204V278.054H211.538V280H210.579ZM215.269 280V275.436H218.097V276.241H216.228V277.235H217.817V278.047H216.228V279.195H218.167V280H215.269ZM218.495 280L219.944 275.436H221.092L222.541 280H221.526L220.896 277.648C220.831 277.415 220.766 277.17 220.7 276.913C220.64 276.656 220.577 276.407 220.511 276.164H220.483C220.427 276.407 220.367 276.656 220.301 276.913C220.241 277.17 220.178 277.415 220.112 277.648L219.475 280H218.495ZM219.419 278.866V278.117H221.603V278.866H219.419ZM223.86 280L222.467 275.436H223.482L224.063 277.613C224.137 277.87 224.2 278.117 224.252 278.355C224.308 278.588 224.371 278.833 224.441 279.09H224.469C224.543 278.833 224.609 278.588 224.665 278.355C224.721 278.117 224.781 277.87 224.847 277.613L225.414 275.436H226.401L225.008 280H223.86ZM227.687 280V278.348L226.308 275.436H227.337L227.778 276.521C227.839 276.694 227.9 276.862 227.96 277.025C228.026 277.188 228.091 277.356 228.156 277.529H228.184C228.254 277.356 228.322 277.188 228.387 277.025C228.453 276.862 228.518 276.694 228.583 276.521L229.017 275.436H230.025L228.646 278.348V280H227.687Z" fill="white"/>
<path d="M260.721 271V266.436H263.563V267.241H261.68V268.375H263.29V269.18H261.68V271H260.721ZM263.77 271L265.219 266.436H266.367L267.816 271H266.801L266.171 268.648C266.105 268.415 266.04 268.17 265.975 267.913C265.914 267.656 265.851 267.407 265.786 267.164H265.758C265.702 267.407 265.641 267.656 265.576 267.913C265.515 268.17 265.452 268.415 265.387 268.648L264.75 271H263.77ZM264.694 269.866V269.117H266.878V269.866H264.694ZM268.336 271V266.436H269.295V270.195H271.129V271H268.336ZM273.808 271.084C273.421 271.084 273.068 270.995 272.751 270.818C272.434 270.641 272.179 270.377 271.988 270.027C271.797 269.677 271.701 269.248 271.701 268.739C271.701 268.361 271.757 268.025 271.869 267.731C271.981 267.437 272.135 267.187 272.331 266.982C272.532 266.772 272.76 266.616 273.017 266.513C273.278 266.406 273.551 266.352 273.836 266.352C274.13 266.352 274.391 266.41 274.62 266.527C274.853 266.644 275.045 266.781 275.194 266.94L274.683 267.556C274.566 267.444 274.443 267.353 274.312 267.283C274.181 267.213 274.03 267.178 273.857 267.178C273.638 267.178 273.439 267.241 273.262 267.367C273.085 267.488 272.945 267.663 272.842 267.892C272.739 268.121 272.688 268.394 272.688 268.711C272.688 269.033 272.735 269.311 272.828 269.544C272.921 269.773 273.054 269.948 273.227 270.069C273.404 270.19 273.61 270.251 273.843 270.251C274.034 270.251 274.205 270.209 274.354 270.125C274.508 270.041 274.643 269.936 274.76 269.81L275.271 270.412C275.084 270.631 274.867 270.799 274.62 270.916C274.373 271.028 274.102 271.084 273.808 271.084ZM277.82 271.084C277.414 271.084 277.054 270.988 276.742 270.797C276.434 270.606 276.193 270.333 276.021 269.978C275.848 269.619 275.762 269.192 275.762 268.697C275.762 268.202 275.848 267.78 276.021 267.43C276.193 267.08 276.434 266.814 276.742 266.632C277.054 266.445 277.414 266.352 277.82 266.352C278.226 266.352 278.583 266.445 278.891 266.632C279.199 266.814 279.439 267.08 279.612 267.43C279.784 267.78 279.871 268.202 279.871 268.697C279.871 269.192 279.784 269.619 279.612 269.978C279.439 270.333 279.199 270.606 278.891 270.797C278.583 270.988 278.226 271.084 277.82 271.084ZM277.82 270.251C278.034 270.251 278.221 270.188 278.38 270.062C278.543 269.936 278.667 269.756 278.751 269.523C278.839 269.29 278.884 269.014 278.884 268.697C278.884 268.38 278.839 268.109 278.751 267.885C278.667 267.656 278.543 267.481 278.38 267.36C278.221 267.239 278.034 267.178 277.82 267.178C277.6 267.178 277.409 267.239 277.246 267.36C277.087 267.481 276.963 267.656 276.875 267.885C276.791 268.109 276.749 268.38 276.749 268.697C276.749 269.014 276.791 269.29 276.875 269.523C276.963 269.756 277.087 269.936 277.246 270.062C277.409 270.188 277.6 270.251 277.82 270.251ZM280.75 271V266.436H281.737L282.997 268.802L283.459 269.796H283.487C283.464 269.553 283.436 269.287 283.403 268.998C283.375 268.709 283.361 268.431 283.361 268.165V266.436H284.278V271H283.291L282.031 268.627L281.569 267.64H281.541C281.565 267.883 281.59 268.146 281.618 268.431C281.651 268.716 281.667 268.991 281.667 269.257V271H280.75ZM258.609 280V275.436H259.568V277.214H261.234V275.436H262.193V280H261.234V278.054H259.568V280H258.609ZM263.298 280V275.436H266.126V276.241H264.257V277.235H265.846V278.047H264.257V279.195H266.196V280H263.298ZM266.525 280L267.974 275.436H269.122L270.571 280H269.556L268.926 277.648C268.86 277.415 268.795 277.17 268.73 276.913C268.669 276.656 268.606 276.407 268.541 276.164H268.513C268.457 276.407 268.396 276.656 268.331 276.913C268.27 277.17 268.207 277.415 268.142 277.648L267.505 280H266.525ZM267.449 278.866V278.117H269.633V278.866H267.449ZM271.889 280L270.496 275.436H271.511L272.092 277.613C272.167 277.87 272.23 278.117 272.281 278.355C272.337 278.588 272.4 278.833 272.47 279.09H272.498C272.573 278.833 272.638 278.588 272.694 278.355C272.75 278.117 272.811 277.87 272.876 277.613L273.443 275.436H274.43L273.037 280H271.889ZM275.717 280V278.348L274.338 275.436H275.367L275.808 276.521C275.868 276.694 275.929 276.862 275.99 277.025C276.055 277.188 276.12 277.356 276.186 277.529H276.214C276.284 277.356 276.351 277.188 276.417 277.025C276.482 276.862 276.547 276.694 276.613 276.521L277.047 275.436H278.055L276.676 278.348V280H275.717ZM280.048 280V275.401H281.378C281.691 275.401 281.964 275.441 282.197 275.52C282.435 275.595 282.62 275.716 282.75 275.884C282.881 276.047 282.946 276.262 282.946 276.528C282.946 276.757 282.888 276.962 282.771 277.144C282.655 277.326 282.484 277.452 282.26 277.522V277.55C282.545 277.601 282.774 277.72 282.946 277.907C283.124 278.089 283.212 278.339 283.212 278.656C283.212 278.955 283.14 279.204 282.995 279.405C282.851 279.606 282.648 279.755 282.386 279.853C282.125 279.951 281.824 280 281.483 280H280.048ZM280.566 279.587H281.399C281.81 279.587 282.13 279.51 282.358 279.356C282.587 279.202 282.701 278.964 282.701 278.642C282.701 278.348 282.589 278.131 282.365 277.991C282.141 277.846 281.819 277.774 281.399 277.774H280.566V279.587ZM280.566 277.375H281.273C281.684 277.375 281.98 277.305 282.162 277.165C282.344 277.025 282.435 276.834 282.435 276.591C282.435 276.306 282.34 276.106 282.148 275.989C281.957 275.872 281.675 275.814 281.301 275.814H280.566V277.375ZM285.123 280.084C284.885 280.084 284.675 280.056 284.493 280C284.316 279.939 284.159 279.862 284.024 279.769C283.893 279.676 283.777 279.578 283.674 279.475L283.933 279.139C284.068 279.27 284.225 279.389 284.402 279.496C284.584 279.603 284.81 279.657 285.081 279.657C285.268 279.657 285.438 279.613 285.592 279.524C285.746 279.435 285.867 279.312 285.956 279.153C286.045 278.994 286.089 278.808 286.089 278.593C286.089 278.271 286 278.021 285.823 277.844C285.646 277.662 285.408 277.571 285.109 277.571C284.95 277.571 284.813 277.594 284.696 277.641C284.584 277.688 284.46 277.755 284.325 277.844L284.045 277.669L284.192 275.534H286.383V275.975H284.64L284.514 277.368C284.626 277.307 284.738 277.261 284.85 277.228C284.962 277.191 285.088 277.172 285.228 277.172C285.485 277.172 285.716 277.223 285.921 277.326C286.131 277.424 286.297 277.576 286.418 277.781C286.544 277.986 286.607 278.25 286.607 278.572C286.607 278.894 286.537 279.169 286.397 279.398C286.257 279.622 286.073 279.792 285.844 279.909C285.62 280.026 285.38 280.084 285.123 280.084Z" fill="white"/>
<path d="M134.94 146.279H128.33V252.693H134.94V146.279Z" fill="#B2B2B2" stroke="black" stroke-width="0.5" stroke-miterlimit="10"/>
<path d="M128.33 163.309H134.94" stroke="black" stroke-width="0.5" stroke-miterlimit="10"/>
<path d="M128.33 176.07H134.94" stroke="black" stroke-width="0.5" stroke-miterlimit="10"/>
<path d="M135.146 252.486H128.124V254.556H135.146V252.486Z" fill="#4D4D4D" stroke="black" stroke-width="0.5" stroke-miterlimit="10"/>
<path d="M128.805 254.556L128.124 256.701H135.146L134.353 254.556H128.805Z" fill="#4D4D4D" stroke="black" stroke-width="0.5" stroke-miterlimit="10"/>
<path d="M132.791 256.701H130.317V257.102H132.791V256.701Z" fill="#4D4D4D" stroke="black" stroke-width="0.5" stroke-miterlimit="10"/>
<path d="M134.353 254.556L132.791 256.701L131.635 254.556L130.317 256.701L128.805 254.556H134.353Z" fill="#4D4D4D" stroke="black" stroke-width="0.5" stroke-miterlimit="10" stroke-linecap="round" stroke-linejoin="round"/>
<path d="M128.413 146.258H135.022L136.468 143.98H127.004L128.413 146.258Z" fill="#DADADA" stroke="black" stroke-width="0.5" stroke-miterlimit="10"/>
<path d="M135.811 127.36L134.621 123.257C133.746 120.238 129.458 120.288 128.656 123.331L127.582 127.41C127.194 128.88 127 130.391 127 131.91V143.98H136.464V131.981C136.468 130.416 136.245 128.863 135.811 127.36Z" fill="#DADADA" stroke="black" stroke-width="0.5" stroke-miterlimit="10"/>
<path d="M131.717 121V143.98" stroke="black" stroke-width="0.5" stroke-miterlimit="10"/>
<path d="M136.468 143.98L135.022 146.258L134.939 252.486H135.307V254.887H134.629L135.307 256.713H132.952V257.115H130.478V256.713H128.284L128.863 254.887H128.004V252.486H128.33L128.413 146.258L127.004 143.98" stroke="black" stroke-width="1.5" stroke-miterlimit="10" stroke-linecap="round" stroke-linejoin="round"/>
<path d="M136.509 144.014V132.014C136.509 130.453 136.29 128.896 135.852 127.393L134.663 123.29C133.787 120.267 129.499 120.321 128.698 123.364L127.624 127.443C127.235 128.913 127.041 130.424 127.041 131.944V144.014" stroke="black" stroke-width="1.5" stroke-miterlimit="10"/>
<path d="M166.632 146.331H173.241L174.687 144.054H165.223L166.632 146.331Z" fill="#DADADA" stroke="black" stroke-width="0.5" stroke-miterlimit="10"/>
<path d="M174.03 127.433L172.841 123.33C171.965 120.311 167.677 120.361 166.876 123.404L165.802 127.483C165.413 128.953 165.219 130.464 165.219 131.984V144.054H174.683V132.054C174.687 130.489 174.468 128.932 174.03 127.433Z" fill="#DADADA" stroke="black" stroke-width="0.5" stroke-miterlimit="10"/>
<path d="M169.937 121.073V144.054" stroke="black" stroke-width="0.5" stroke-miterlimit="10"/>
<path d="M167.227 254.459L166.545 256.604H173.568L172.775 254.459H167.227Z" fill="#4D4D4D" stroke="black" stroke-width="0.5" stroke-miterlimit="10"/>
<path d="M171.213 256.604H168.739V257.006H171.213V256.604Z" fill="#4D4D4D" stroke="black" stroke-width="0.5" stroke-miterlimit="10"/>
<path d="M172.775 254.459L171.213 256.604L170.057 254.459L168.739 256.604L167.227 254.459H172.775Z" fill="#4D4D4D" stroke="black" stroke-width="0.5" stroke-miterlimit="10" stroke-linecap="round" stroke-linejoin="round"/>
<path d="M173.448 247.983H166.839V254.608H173.448V247.983Z" fill="#4D4D4D" stroke="black" stroke-width="0.5" stroke-miterlimit="10"/>
<path d="M166.425 176.351H173.448V247.983H166.839L166.425 176.351Z" fill="#B2B2B2" stroke="black" stroke-width="0.5" stroke-miterlimit="10"/>
<path d="M166.425 233.545L165.723 253.275H169.97L167.454 233.499C167.376 232.866 166.45 232.912 166.425 233.545Z" fill="#4D4D4D" stroke="black" stroke-width="0.5" stroke-miterlimit="10"/>
<path d="M170.317 253.275H174.481L173.7 233.694C173.675 233.056 172.742 233.019 172.667 233.653L170.317 253.275Z" fill="#4D4D4D" stroke="black" stroke-width="0.5" stroke-miterlimit="10"/>
<path d="M169.495 253.275L167.574 245.996C167.392 245.313 166.405 245.4 166.343 246.104L165.723 253.275H174.481L173.659 245.996C173.584 245.325 172.63 245.271 172.481 245.93L170.796 253.275" fill="#4D4D4D"/>
<path d="M169.495 253.275L167.574 245.996C167.392 245.313 166.405 245.4 166.343 246.104L165.723 253.275H174.481L173.659 245.996C173.584 245.325 172.63 245.271 172.481 245.93L170.796 253.275" stroke="black" stroke-width="0.5" stroke-miterlimit="10"/>
<path d="M166.752 245.528L166.963 233.048" stroke="black" stroke-width="0.5" stroke-miterlimit="10"/>
<path d="M173.06 245.528L173.279 233.206" stroke="black" stroke-width="0.5" stroke-miterlimit="10"/>
<path d="M173.448 163.101H166.425V176.351H173.448V163.101Z" fill="#4D4D4D" stroke="black" stroke-width="0.5" stroke-miterlimit="10"/>
<path d="M166.012 178.835H168.429V175.647C168.094 174.413 166.347 174.413 166.012 175.647V178.835Z" fill="#4D4D4D" stroke="black" stroke-width="0.5" stroke-miterlimit="10"/>
<path d="M171.498 178.835H174.076V175.531C173.7 174.268 171.907 174.276 171.548 175.547L171.498 175.721V178.835Z" fill="#4D4D4D" stroke="black" stroke-width="0.5" stroke-miterlimit="10"/>
<path d="M173.448 146.124H166.425V163.101H173.448V146.124Z" fill="#B2B2B2" stroke="black" stroke-width="0.5" stroke-miterlimit="10"/>
<path d="M173.448 178.835V233.197L173.7 233.698L174.48 253.279H173.448V254.613H172.828L173.567 256.608H171.213V257.01H168.738V256.608H166.545L167.227 254.613H166.838V253.279H165.723L166.425 233.549L166.747 233.048L166.425 178.835H166.012V175.647L166.425 175.001V146.124L165 143.958V131.889C165 130.369 165.194 128.858 165.582 127.388L166.656 123.309C167.458 120.27 171.746 120.216 172.621 123.235L173.811 127.338C174.245 128.837 174.468 130.394 174.468 131.959V143.958L173.452 146.124L173.654 174.901L174.075 175.531V178.835H173.448Z" stroke="black" stroke-width="1.5" stroke-miterlimit="10"/>
<path d="M315.075 271.084C314.776 271.084 314.478 271.028 314.179 270.916C313.885 270.799 313.624 270.634 313.395 270.419L313.948 269.761C314.111 269.91 314.293 270.029 314.494 270.118C314.699 270.207 314.9 270.251 315.096 270.251C315.325 270.251 315.495 270.209 315.607 270.125C315.724 270.036 315.782 269.915 315.782 269.761C315.782 269.658 315.754 269.574 315.698 269.509C315.642 269.444 315.563 269.388 315.46 269.341C315.362 269.29 315.245 269.236 315.11 269.18L314.508 268.921C314.349 268.856 314.2 268.769 314.06 268.662C313.92 268.555 313.806 268.422 313.717 268.263C313.628 268.1 313.584 267.908 313.584 267.689C313.584 267.437 313.652 267.211 313.787 267.01C313.927 266.809 314.116 266.651 314.354 266.534C314.597 266.413 314.872 266.352 315.18 266.352C315.446 266.352 315.705 266.403 315.957 266.506C316.214 266.609 316.438 266.753 316.629 266.94L316.139 267.549C315.994 267.432 315.845 267.341 315.691 267.276C315.537 267.211 315.367 267.178 315.18 267.178C314.993 267.178 314.842 267.218 314.725 267.297C314.613 267.376 314.557 267.488 314.557 267.633C314.557 267.731 314.587 267.813 314.648 267.878C314.709 267.943 314.793 268.002 314.9 268.053C315.012 268.1 315.133 268.151 315.264 268.207L315.852 268.445C316.039 268.52 316.2 268.613 316.335 268.725C316.47 268.837 316.575 268.972 316.65 269.131C316.729 269.285 316.769 269.469 316.769 269.684C316.769 269.936 316.701 270.169 316.566 270.384C316.435 270.594 316.242 270.764 315.985 270.895C315.733 271.021 315.43 271.084 315.075 271.084ZM318.461 271V267.241H317.18V266.436H320.701V267.241H319.42V271H318.461ZM320.84 271L322.289 266.436H323.437L324.886 271H323.871L323.241 268.648C323.175 268.415 323.11 268.17 323.045 267.913C322.984 267.656 322.921 267.407 322.856 267.164H322.828C322.772 267.407 322.711 267.656 322.646 267.913C322.585 268.17 322.522 268.415 322.457 268.648L321.82 271H320.84ZM321.764 269.866V269.117H323.948V269.866H321.764ZM325.406 271V266.436H327.016C327.338 266.436 327.63 266.478 327.891 266.562C328.152 266.646 328.36 266.791 328.514 266.996C328.673 267.201 328.752 267.481 328.752 267.836C328.752 268.177 328.673 268.457 328.514 268.676C328.36 268.891 328.152 269.052 327.891 269.159C327.63 269.262 327.338 269.313 327.016 269.313H326.365V271H325.406ZM327.884 271L326.841 269.054L327.513 268.452L328.962 271H327.884ZM326.365 268.543H326.932C327.217 268.543 327.434 268.485 327.583 268.368C327.732 268.247 327.807 268.069 327.807 267.836C327.807 267.598 327.732 267.432 327.583 267.339C327.434 267.246 327.217 267.199 326.932 267.199H326.365V268.543ZM331.03 271.084C330.731 271.084 330.433 271.028 330.134 270.916C329.84 270.799 329.579 270.634 329.35 270.419L329.903 269.761C330.066 269.91 330.248 270.029 330.449 270.118C330.654 270.207 330.855 270.251 331.051 270.251C331.28 270.251 331.45 270.209 331.562 270.125C331.679 270.036 331.737 269.915 331.737 269.761C331.737 269.658 331.709 269.574 331.653 269.509C331.597 269.444 331.518 269.388 331.415 269.341C331.317 269.29 331.2 269.236 331.065 269.18L330.463 268.921C330.304 268.856 330.155 268.769 330.015 268.662C329.875 268.555 329.761 268.422 329.672 268.263C329.583 268.1 329.539 267.908 329.539 267.689C329.539 267.437 329.607 267.211 329.742 267.01C329.882 266.809 330.071 266.651 330.309 266.534C330.552 266.413 330.827 266.352 331.135 266.352C331.401 266.352 331.66 266.403 331.912 266.506C332.169 266.609 332.393 266.753 332.584 266.94L332.094 267.549C331.949 267.432 331.8 267.341 331.646 267.276C331.492 267.211 331.322 267.178 331.135 267.178C330.948 267.178 330.797 267.218 330.68 267.297C330.568 267.376 330.512 267.488 330.512 267.633C330.512 267.731 330.542 267.813 330.603 267.878C330.664 267.943 330.748 268.002 330.855 268.053C330.967 268.1 331.088 268.151 331.219 268.207L331.807 268.445C331.994 268.52 332.155 268.613 332.29 268.725C332.425 268.837 332.53 268.972 332.605 269.131C332.684 269.285 332.724 269.469 332.724 269.684C332.724 269.936 332.656 270.169 332.521 270.384C332.39 270.594 332.197 270.764 331.94 270.895C331.688 271.021 331.385 271.084 331.03 271.084ZM333.513 271V266.436H334.472V268.214H336.138V266.436H337.097V271H336.138V269.054H334.472V271H333.513ZM338.203 271V266.436H339.162V271H338.203ZM340.267 271V266.436H341.793C342.129 266.436 342.433 266.48 342.703 266.569C342.974 266.658 343.189 266.809 343.347 267.024C343.511 267.234 343.592 267.521 343.592 267.885C343.592 268.235 343.513 268.522 343.354 268.746C343.196 268.97 342.981 269.138 342.71 269.25C342.444 269.357 342.148 269.411 341.821 269.411H341.226V271H340.267ZM341.226 268.641H341.758C342.062 268.641 342.286 268.578 342.43 268.452C342.575 268.321 342.647 268.132 342.647 267.885C342.647 267.628 342.568 267.451 342.409 267.353C342.255 267.25 342.029 267.199 341.73 267.199H341.226V268.641Z" fill="white"/>
<path d="M217.063 146.37H223.672L225.118 144.093H215.654L217.063 146.37Z" fill="#DADADA" stroke="black" stroke-width="0.5" stroke-miterlimit="10"/>
<path d="M224.466 127.472L223.276 123.369C222.4 120.35 218.112 120.4 217.311 123.443L216.237 127.522C215.849 128.992 215.654 130.503 215.654 132.023V144.093H225.118V132.093C225.118 130.528 224.899 128.971 224.466 127.472Z" fill="#DADADA" stroke="black" stroke-width="0.5" stroke-miterlimit="10"/>
<path d="M220.368 121.112V144.093" stroke="black" stroke-width="0.5" stroke-miterlimit="10"/>
<path d="M217.658 254.498L216.98 256.643H224.003L223.206 254.498H217.658Z" fill="#4D4D4D" stroke="black" stroke-width="0.5" stroke-miterlimit="10"/>
<path d="M221.644 256.643H219.17V257.045H221.644V256.643Z" fill="#4D4D4D" stroke="black" stroke-width="0.5" stroke-miterlimit="10"/>
<path d="M223.206 254.498L221.648 256.643L220.492 254.498L219.17 256.643L217.658 254.498H223.206Z" fill="#4D4D4D" stroke="black" stroke-width="0.5" stroke-miterlimit="10" stroke-linecap="round" stroke-linejoin="round"/>
<path d="M223.879 248.022H217.27V254.647H223.879V248.022Z" fill="#4D4D4D" stroke="black" stroke-width="0.5" stroke-miterlimit="10"/>
<path d="M216.857 176.389H223.879V248.022H217.27L216.857 176.389Z" fill="#B2B2B2" stroke="black" stroke-width="0.5" stroke-miterlimit="10"/>
<path d="M216.861 233.584L216.159 253.314H220.405L217.89 233.538C217.807 232.905 216.882 232.946 216.861 233.584Z" fill="#B2B2B2" stroke="black" stroke-width="0.5" stroke-miterlimit="10"/>
<path d="M220.752 253.314H224.912L224.131 233.733C224.106 233.095 223.173 233.058 223.098 233.691L220.752 253.314Z" fill="#B2B2B2" stroke="black" stroke-width="0.5" stroke-miterlimit="10"/>
<path d="M219.926 253.314L218.005 246.035C217.823 245.352 216.836 245.438 216.774 246.142L216.154 253.314H224.912L224.09 246.035C224.015 245.364 223.061 245.31 222.912 245.968L221.227 253.314" fill="#B2B2B2"/>
<path d="M219.926 253.314L218.005 246.035C217.823 245.352 216.836 245.438 216.774 246.142L216.154 253.314H224.912L224.09 246.035C224.015 245.364 223.061 245.31 222.912 245.968L221.227 253.314" stroke="black" stroke-width="0.5" stroke-miterlimit="10"/>
<path d="M217.183 245.567L217.398 233.083" stroke="black" stroke-width="0.5" stroke-miterlimit="10"/>
<path d="M223.491 245.567L223.71 233.244" stroke="black" stroke-width="0.5" stroke-miterlimit="10"/>
<path d="M223.879 163.139H216.857V176.389H223.879V163.139Z" fill="#B2B2B2" stroke="black" stroke-width="0.5" stroke-miterlimit="10"/>
<path d="M216.443 178.874H218.86V175.686C218.525 174.452 216.778 174.452 216.443 175.686V178.874Z" fill="#4D4D4D" stroke="black" stroke-width="0.5" stroke-miterlimit="10"/>
<path d="M221.516 178.874H224.094V175.57C223.718 174.307 221.925 174.315 221.566 175.586L221.516 175.76V178.874Z" fill="#4D4D4D" stroke="black" stroke-width="0.5" stroke-miterlimit="10"/>
<path d="M223.879 146.163H216.857V163.139H223.879V146.163Z" fill="#B2B2B2" stroke="black" stroke-width="0.5" stroke-miterlimit="10"/>
<path d="M209.111 176.953H215.791V175.445C215.791 173.859 215.535 172.282 215.039 170.775C214.192 168.216 210.561 168.278 209.801 170.862C209.392 172.249 209.173 173.686 209.148 175.131L209.111 176.953Z" fill="#B2B2B2" stroke="black" stroke-width="0.5" stroke-miterlimit="10"/>
<path d="M224.808 176.953H231.488V175.445C231.488 173.859 231.232 172.282 230.736 170.775C229.889 168.216 226.258 168.278 225.498 170.862C225.089 172.249 224.87 173.686 224.846 175.131L224.808 176.953Z" fill="#B2B2B2" stroke="black" stroke-width="0.5" stroke-miterlimit="10"/>
<path d="M215.791 176.953H208.768V253.14H215.791V176.953Z" fill="#B2B2B2" stroke="black" stroke-width="0.5" stroke-miterlimit="10"/>
<path d="M231.901 176.953H224.879V253.14H231.901V176.953Z" fill="#B2B2B2" stroke="black" stroke-width="0.5" stroke-miterlimit="10"/>
<path d="M208.417 179.462H210.834V176.273C210.499 175.04 208.752 175.04 208.417 176.273V179.462Z" fill="#4D4D4D" stroke="black" stroke-width="0.5" stroke-miterlimit="10"/>
<path d="M213.49 179.462H216.068V176.157C215.692 174.895 213.899 174.903 213.539 176.174L213.49 176.348V179.462Z" fill="#4D4D4D" stroke="black" stroke-width="0.5" stroke-miterlimit="10"/>
<path d="M224.528 179.462H226.944V176.273C226.61 175.04 224.862 175.04 224.528 176.273V179.462Z" fill="#4D4D4D" stroke="black" stroke-width="0.5" stroke-miterlimit="10"/>
<path d="M215.828 248.105H209.219V254.73H215.828V248.105Z" fill="#4D4D4D" stroke="black" stroke-width="0.5" stroke-miterlimit="10"/>
<path d="M229.6 179.462H232.178V176.157C231.802 174.895 230.009 174.903 229.65 176.174L229.6 176.348V179.462Z" fill="#4D4D4D" stroke="black" stroke-width="0.5" stroke-miterlimit="10"/>
<path d="M231.938 248.105H225.329V254.73H231.938V248.105Z" fill="#4D4D4D" stroke="black" stroke-width="0.5" stroke-miterlimit="10"/>
<path d="M208.707 233.87L208.004 253.6H212.251L209.735 233.824C209.653 233.191 208.727 233.232 208.707 233.87Z" fill="#B2B2B2" stroke="black" stroke-width="0.5" stroke-miterlimit="10"/>
<path d="M212.598 253.6H216.757L215.977 234.019C215.952 233.381 215.018 233.344 214.944 233.977L212.598 253.6Z" fill="#B2B2B2" stroke="black" stroke-width="0.5" stroke-miterlimit="10"/>
<path d="M211.771 253.6L209.851 246.32C209.669 245.637 208.682 245.724 208.62 246.428L208 253.6H216.757L215.935 246.32C215.861 245.65 214.907 245.596 214.758 246.254L213.073 253.6" fill="#B2B2B2"/>
<path d="M211.771 253.6L209.851 246.32C209.669 245.637 208.682 245.724 208.62 246.428L208 253.6H216.757L215.935 246.32C215.861 245.65 214.907 245.596 214.758 246.254L213.073 253.6" stroke="black" stroke-width="0.5" stroke-miterlimit="10"/>
<path d="M209.029 245.853L209.244 233.369" stroke="black" stroke-width="0.5" stroke-miterlimit="10"/>
<path d="M215.556 233.53L215.336 245.853" stroke="black" stroke-width="0.5" stroke-miterlimit="10"/>
<path d="M224.738 233.932L224.036 253.662H228.283L225.771 233.886C225.688 233.253 224.763 233.298 224.738 233.932Z" fill="#B2B2B2" stroke="black" stroke-width="0.5" stroke-miterlimit="10"/>
<path d="M228.634 253.662H232.793L232.013 234.081C231.988 233.443 231.054 233.406 230.98 234.039L228.634 253.662Z" fill="#B2B2B2" stroke="black" stroke-width="0.5" stroke-miterlimit="10"/>
<path d="M227.807 253.662L225.887 246.383C225.705 245.699 224.718 245.786 224.656 246.49L224.036 253.662H232.793L231.971 246.383C231.897 245.712 230.943 245.658 230.794 246.316L229.109 253.662" fill="#B2B2B2"/>
<path d="M227.807 253.662L225.887 246.383C225.705 245.699 224.718 245.786 224.656 246.49L224.036 253.662H232.793L231.971 246.383C231.897 245.712 230.943 245.658 230.794 246.316L229.109 253.662" stroke="black" stroke-width="0.5" stroke-miterlimit="10"/>
<path d="M225.065 245.915L225.28 233.435" stroke="black" stroke-width="0.5" stroke-miterlimit="10"/>
<path d="M231.372 245.915L231.592 233.592" stroke="black" stroke-width="0.5" stroke-miterlimit="10"/>
<path d="M225.717 254.581L225.04 256.726H232.062L231.265 254.581H225.717Z" fill="#4D4D4D" stroke="black" stroke-width="0.5" stroke-miterlimit="10"/>
<path d="M229.708 256.726H227.233V257.127H229.708V256.726Z" fill="#4D4D4D" stroke="black" stroke-width="0.5" stroke-miterlimit="10"/>
<path d="M231.265 254.581L229.708 256.726L228.551 254.581L227.233 256.726L225.717 254.581H231.265Z" fill="#4D4D4D" stroke="black" stroke-width="0.5" stroke-miterlimit="10" stroke-linecap="round" stroke-linejoin="round"/>
<path d="M209.607 254.581L208.929 256.726H215.952L215.155 254.581H209.607Z" fill="#4D4D4D" stroke="black" stroke-width="0.5" stroke-miterlimit="10"/>
<path d="M213.597 256.726H211.123V257.127H213.597V256.726Z" fill="#4D4D4D" stroke="black" stroke-width="0.5" stroke-miterlimit="10"/>
<path d="M215.155 254.581L213.597 256.726L212.441 254.581L211.123 256.726L209.607 254.581H215.155Z" fill="#4D4D4D" stroke="black" stroke-width="0.5" stroke-miterlimit="10" stroke-linecap="round" stroke-linejoin="round"/>
<path d="M228.183 173.64H212.073V174.054H228.183V173.64Z" fill="#B2B2B2" stroke="black" stroke-width="0.5" stroke-miterlimit="10"/>
<path d="M223.916 146.126L224.932 143.96V131.96C224.932 130.399 224.713 128.843 224.275 127.34L223.086 123.236C222.21 120.218 217.922 120.267 217.121 123.311L216.047 127.389C215.658 128.859 215.464 130.37 215.464 131.89V143.96L216.889 146.126L216.856 173.64H215.791C215.791 173.64 215.514 168.899 212.453 168.887C212.453 168.887 208.888 168.344 209.14 175.441L208.421 176.269V179.458H208.772L208.71 233.865L208.008 253.595H209.227V254.73H209.57L208.938 256.726H211.131V257.127H213.605V256.726H215.96L215.221 254.73H215.84V253.595H216.77V253.31H217.282V254.643H217.625L216.993 256.639H219.186V257.04H221.661V256.639H224.015L223.276 254.643H223.895V253.31L224.073 253.314L224.052 253.658H225.345V254.726H225.688L225.056 256.722H227.25V257.123H229.724V256.722H232.079L231.339 254.726H231.959V253.658H232.814L231.922 233.588V179.462H232.198V176.157L231.509 175.213C231.509 175.213 231.649 168.899 228.171 168.887C228.171 168.887 225.519 168.05 224.899 173.64H223.899L223.916 146.126Z" stroke="black" stroke-width="1.5" stroke-miterlimit="10"/>
<path d="M215.667 174.054L215.791 175.445L216.067 176.158V179.462H215.791V233.435L215.977 234.019L216.443 242.913L216.861 233.584L217.183 233.083L216.856 178.874H216.443V175.681L216.856 175.035V174.054" stroke="black" stroke-width="1.5" stroke-miterlimit="10"/>
<path d="M223.879 174.054V175.139L224.094 175.57V178.874H223.879V233.083L224.131 233.733L224.433 242.577L224.738 233.932L224.879 233.244V179.462H224.528V176.269L224.879 175.677V174.054" stroke="black" stroke-width="1.5" stroke-miterlimit="10"/>
<path d="M269.063 146.444H275.673L277.118 144.167H267.655L269.063 146.444Z" fill="#DADADA" stroke="black" stroke-width="0.5" stroke-miterlimit="10"/>
<path d="M276.461 127.547L275.272 123.443C274.396 120.421 270.108 120.474 269.307 123.518L268.233 127.596C267.845 129.066 267.65 130.577 267.65 132.097V144.167H277.114V132.167C277.118 130.602 276.895 129.045 276.461 127.547Z" fill="#DADADA" stroke="black" stroke-width="0.5" stroke-miterlimit="10"/>
<path d="M272.368 121.187V144.167" stroke="black" stroke-width="0.5" stroke-miterlimit="10"/>
<path d="M269.658 254.573L268.977 256.713H275.999L275.206 254.573H269.658Z" fill="#4D4D4D" stroke="black" stroke-width="0.5" stroke-miterlimit="10"/>
<path d="M273.644 256.713H271.17V257.115H273.644V256.713Z" fill="#4D4D4D" stroke="black" stroke-width="0.5" stroke-miterlimit="10"/>
<path d="M275.206 254.573L273.644 256.713L272.488 254.573L271.17 256.713L269.658 254.573H275.206Z" fill="#4D4D4D" stroke="black" stroke-width="0.5" stroke-miterlimit="10" stroke-linecap="round" stroke-linejoin="round"/>
<path d="M275.879 248.097H269.27V254.722H275.879V248.097Z" fill="#4D4D4D" stroke="black" stroke-width="0.5" stroke-miterlimit="10"/>
<path d="M268.857 176.464H275.879V248.097H269.27L268.857 176.464Z" fill="#B2B2B2" stroke="black" stroke-width="0.5" stroke-miterlimit="10"/>
<path d="M275.879 163.214H268.857V176.464H275.879V163.214Z" fill="#B2B2B2" stroke="black" stroke-width="0.5" stroke-miterlimit="10"/>
<path d="M268.444 178.948H270.86V175.76C270.526 174.526 268.778 174.526 268.444 175.76V178.948Z" fill="#4D4D4D" stroke="black" stroke-width="0.5" stroke-miterlimit="10"/>
<path d="M273.516 178.948H276.094V175.644C275.718 174.381 273.925 174.389 273.566 175.661L273.516 175.835V178.948Z" fill="#4D4D4D" stroke="black" stroke-width="0.5" stroke-miterlimit="10"/>
<path d="M275.879 146.237H268.857V163.214H275.879V146.237Z" fill="#B2B2B2" stroke="black" stroke-width="0.5" stroke-miterlimit="10"/>
<path d="M261.111 177.027H267.791V175.52C267.791 173.934 267.535 172.356 267.039 170.849C266.192 168.29 262.561 168.352 261.801 170.936C261.392 172.323 261.173 173.76 261.148 175.205L261.111 177.027Z" fill="#B2B2B2" stroke="black" stroke-width="0.5" stroke-miterlimit="10"/>
<path d="M276.809 177.027H283.488V175.52C283.488 173.934 283.232 172.356 282.736 170.849C281.89 168.29 278.259 168.352 277.498 170.936C277.089 172.323 276.871 173.76 276.846 175.205L276.809 177.027Z" fill="#B2B2B2" stroke="black" stroke-width="0.5" stroke-miterlimit="10"/>
<path d="M267.791 177.027H260.769V253.215H267.791V177.027Z" fill="#B2B2B2" stroke="black" stroke-width="0.5" stroke-miterlimit="10"/>
<path d="M283.901 177.027H276.879V253.215H283.901V177.027Z" fill="#B2B2B2" stroke="black" stroke-width="0.5" stroke-miterlimit="10"/>
<path d="M260.417 179.536H262.834V176.348C262.499 175.114 260.752 175.114 260.417 176.348V179.536Z" fill="#4D4D4D" stroke="black" stroke-width="0.5" stroke-miterlimit="10"/>
<path d="M265.486 179.536H268.064V176.232C267.688 174.969 265.895 174.977 265.535 176.249L265.486 176.422V179.536Z" fill="#4D4D4D" stroke="black" stroke-width="0.5" stroke-miterlimit="10"/>
<path d="M276.528 179.536H278.944V176.348C278.61 175.114 276.862 175.114 276.528 176.348V179.536Z" fill="#4D4D4D" stroke="black" stroke-width="0.5" stroke-miterlimit="10"/>
<path d="M267.828 248.18H261.219V254.805H267.828V248.18Z" fill="#4D4D4D" stroke="black" stroke-width="0.5" stroke-miterlimit="10"/>
<path d="M281.596 179.536H284.174V176.232C283.798 174.969 282.005 174.977 281.646 176.249L281.596 176.422V179.536Z" fill="#4D4D4D" stroke="black" stroke-width="0.5" stroke-miterlimit="10"/>
<path d="M283.938 248.18H277.329V254.805H283.938V248.18Z" fill="#4D4D4D" stroke="black" stroke-width="0.5" stroke-miterlimit="10"/>
<path d="M277.717 254.655L277.036 256.8H284.058L283.265 254.655H277.717Z" fill="#4D4D4D" stroke="black" stroke-width="0.5" stroke-miterlimit="10"/>
<path d="M281.704 256.8H279.229V257.202H281.704V256.8Z" fill="#4D4D4D" stroke="black" stroke-width="0.5" stroke-miterlimit="10"/>
<path d="M283.265 254.655L281.703 256.8L280.547 254.655L279.229 256.8L277.717 254.655H283.265Z" fill="#4D4D4D" stroke="black" stroke-width="0.5" stroke-miterlimit="10" stroke-linecap="round" stroke-linejoin="round"/>
<path d="M261.607 254.655L260.925 256.8H267.948L267.155 254.655H261.607Z" fill="#4D4D4D" stroke="black" stroke-width="0.5" stroke-miterlimit="10"/>
<path d="M265.593 256.8H263.119V257.202H265.593V256.8Z" fill="#4D4D4D" stroke="black" stroke-width="0.5" stroke-miterlimit="10"/>
<path d="M267.155 254.655L265.593 256.8L264.437 254.655L263.119 256.8L261.607 254.655H267.155Z" fill="#4D4D4D" stroke="black" stroke-width="0.5" stroke-miterlimit="10" stroke-linecap="round" stroke-linejoin="round"/>
<path d="M280.419 173.715H264.309V174.129H280.419V173.715Z" fill="#B2B2B2" stroke="black" stroke-width="0.5" stroke-miterlimit="10"/>
<path d="M264.523 248.18V174.129" stroke="black" stroke-width="0.5" stroke-miterlimit="10"/>
<path d="M280.63 248.312V174.129" stroke="black" stroke-width="0.5" stroke-miterlimit="10"/>
<path d="M272.364 173.922V248.312" stroke="black" stroke-width="0.5" stroke-miterlimit="10"/>
<path d="M275.916 146.126L276.932 143.96V131.96C276.932 130.399 276.713 128.843 276.276 127.34L275.086 123.236C274.21 120.218 269.922 120.267 269.121 123.311L268.047 127.389C267.659 128.859 267.464 130.37 267.464 131.89V143.96L268.89 146.126L268.857 173.64H267.791C267.791 173.64 267.514 168.899 264.453 168.887C264.453 168.887 260.888 168.344 261.14 175.441L260.421 176.269V179.458H260.772L260.711 233.865L260.008 253.595H261.227V254.73H261.57L260.938 256.726H263.131V257.127H265.606V256.726H267.96L267.221 254.73H267.84V253.595H268.77V253.31H269.282V254.643H269.625L268.993 256.639H271.186V257.04H273.661V256.639H276.015L275.276 254.643H275.896V253.31L276.073 253.314L276.053 253.658H277.346V254.726H277.688L277.056 256.722H279.25V257.123H281.724V256.722H284.079L283.339 254.726H283.959V253.658H284.814L283.922 233.588V179.462H284.199V176.158L283.509 175.213C283.509 175.213 283.649 168.899 280.171 168.887C280.171 168.887 277.519 168.05 276.899 173.64H275.9L275.916 146.126Z" stroke="black" stroke-width="1.5" stroke-miterlimit="10"/>
<path d="M268.857 233.658L268.154 253.388H272.401L269.885 233.613C269.807 232.979 268.881 233.021 268.857 233.658Z" fill="#4D4D4D" stroke="black" stroke-width="0.5" stroke-miterlimit="10"/>
<path d="M272.748 253.388H276.908L276.127 233.807C276.102 233.17 275.168 233.133 275.094 233.766L272.748 253.388Z" fill="#4D4D4D" stroke="black" stroke-width="0.5" stroke-miterlimit="10"/>
<path d="M271.926 253.388L270.005 246.109C269.823 245.426 268.836 245.513 268.774 246.217L268.154 253.388H276.912L276.09 246.109C276.015 245.438 275.061 245.385 274.912 246.043L273.227 253.388" fill="#4D4D4D"/>
<path d="M271.926 253.388L270.005 246.109C269.823 245.426 268.836 245.513 268.774 246.217L268.154 253.388H276.912L276.09 246.109C276.015 245.438 275.061 245.385 274.912 246.043L273.227 253.388" stroke="black" stroke-width="0.5" stroke-miterlimit="10"/>
<path d="M269.179 245.641L269.394 233.157" stroke="black" stroke-width="0.5" stroke-miterlimit="10"/>
<path d="M275.491 245.641L275.71 233.315" stroke="black" stroke-width="0.5" stroke-miterlimit="10"/>
<path d="M260.702 233.944L260 253.674H264.247L261.731 233.899C261.652 233.265 260.727 233.306 260.702 233.944Z" fill="#4D4D4D" stroke="black" stroke-width="0.5" stroke-miterlimit="10"/>
<path d="M264.594 253.674H268.753L267.973 234.093C267.948 233.455 267.014 233.418 266.94 234.052L264.594 253.674Z" fill="#4D4D4D" stroke="black" stroke-width="0.5" stroke-miterlimit="10"/>
<path d="M263.771 253.674L261.851 246.395C261.669 245.712 260.682 245.799 260.62 246.503L260 253.674H268.757L267.935 246.395C267.861 245.724 266.907 245.67 266.758 246.329L265.073 253.674" fill="#4D4D4D"/>
<path d="M263.771 253.674L261.851 246.395C261.669 245.712 260.682 245.799 260.62 246.503L260 253.674H268.757L267.935 246.395C267.861 245.724 266.907 245.67 266.758 246.329L265.073 253.674" stroke="black" stroke-width="0.5" stroke-miterlimit="10"/>
<path d="M261.024 245.927L261.24 233.443" stroke="black" stroke-width="0.5" stroke-miterlimit="10"/>
<path d="M267.336 245.927L267.556 233.6" stroke="black" stroke-width="0.5" stroke-miterlimit="10"/>
<path d="M276.738 234.006L276.036 253.736H280.283L277.767 233.961C277.688 233.327 276.763 233.369 276.738 234.006Z" fill="#4D4D4D" stroke="black" stroke-width="0.5" stroke-miterlimit="10"/>
<path d="M280.63 253.736H284.789L284.009 234.155C283.984 233.518 283.05 233.48 282.976 234.114L280.63 253.736Z" fill="#4D4D4D" stroke="black" stroke-width="0.5" stroke-miterlimit="10"/>
<path d="M279.808 253.736L277.887 246.457C277.705 245.774 276.718 245.861 276.656 246.565L276.036 253.736H284.794L283.971 246.457C283.897 245.786 282.943 245.732 282.794 246.391L281.109 253.736" fill="#4D4D4D"/>
<path d="M279.808 253.736L277.887 246.457C277.705 245.774 276.718 245.861 276.656 246.565L276.036 253.736H284.794L283.971 246.457C283.897 245.786 282.943 245.732 282.794 246.391L281.109 253.736" stroke="black" stroke-width="0.5" stroke-miterlimit="10"/>
<path d="M277.061 245.989L277.276 233.505" stroke="black" stroke-width="0.5" stroke-miterlimit="10"/>
<path d="M283.373 245.989L283.592 233.667" stroke="black" stroke-width="0.5" stroke-miterlimit="10"/>
<path d="M275.722 174.24V175.325L275.937 175.756V179.06H275.722V233.273L275.974 233.919L276.276 242.764L276.586 234.118L276.722 233.431V179.648H276.371V176.46L276.722 175.864V174.24" stroke="black" stroke-width="1.5" stroke-miterlimit="10"/>
<path d="M268.006 174.133L268.13 175.52L268.407 176.232V179.536H268.13V233.509L268.316 234.093L268.782 242.991L269.196 233.662L269.522 233.161L269.196 178.948H268.782V175.76L269.196 175.114V174.133" stroke="black" stroke-width="1.5" stroke-miterlimit="10"/>
<path d="M12 258H357V202.25M360 35H357V90.75M357 146.5H360M357 146.5V90.75M357 146.5V202.25M357 90.75H360M357 202.25H360" stroke="white"/>
<path d="M363.116 37V36.573H364.145V33.178H363.333V32.849C363.534 32.8163 363.709 32.7743 363.858 32.723C364.008 32.667 364.143 32.604 364.264 32.534H364.656V36.573H365.587V37H363.116ZM366.212 37V36.699C366.669 36.237 367.056 35.8333 367.374 35.488C367.691 35.138 367.931 34.8253 368.095 34.55C368.258 34.2747 368.34 34.0133 368.34 33.766C368.34 33.5047 368.267 33.29 368.123 33.122C367.983 32.954 367.761 32.87 367.458 32.87C367.271 32.87 367.094 32.9213 366.926 33.024C366.762 33.1267 366.615 33.2573 366.485 33.416L366.184 33.122C366.37 32.9213 366.569 32.7603 366.779 32.639C366.989 32.513 367.236 32.45 367.521 32.45C367.791 32.45 368.025 32.5037 368.221 32.611C368.421 32.7183 368.575 32.87 368.683 33.066C368.79 33.2573 368.844 33.4837 368.844 33.745C368.844 34.0297 368.762 34.3167 368.599 34.606C368.44 34.8953 368.218 35.2033 367.934 35.53C367.654 35.852 367.329 36.2067 366.961 36.594C367.082 36.5847 367.208 36.5777 367.339 36.573C367.469 36.5637 367.593 36.559 367.71 36.559H369.061V37H366.212ZM371.099 37.084C370.66 37.084 370.315 36.8833 370.063 36.482C369.816 36.076 369.692 35.4997 369.692 34.753C369.692 34.0017 369.816 33.43 370.063 33.038C370.315 32.646 370.66 32.45 371.099 32.45C371.542 32.45 371.888 32.6483 372.135 33.045C372.382 33.437 372.506 34.0063 372.506 34.753C372.506 35.4997 372.382 36.076 372.135 36.482C371.888 36.8833 371.542 37.084 371.099 37.084ZM371.099 36.671C371.281 36.671 371.44 36.6033 371.575 36.468C371.715 36.3327 371.822 36.1227 371.897 35.838C371.972 35.5533 372.009 35.1917 372.009 34.753C372.009 34.3097 371.972 33.9503 371.897 33.675C371.822 33.395 371.715 33.1897 371.575 33.059C371.44 32.9283 371.281 32.863 371.099 32.863C370.917 32.863 370.758 32.9283 370.623 33.059C370.488 33.1897 370.38 33.395 370.301 33.675C370.226 33.9503 370.189 34.3097 370.189 34.753C370.189 35.1917 370.226 35.5533 370.301 35.838C370.38 36.1227 370.488 36.3327 370.623 36.468C370.758 36.6033 370.917 36.671 371.099 36.671ZM374.819 37V33.605H375.239L375.281 34.109H375.302C375.451 33.9457 375.614 33.808 375.792 33.696C375.974 33.5793 376.163 33.521 376.359 33.521C376.625 33.521 376.83 33.5817 376.975 33.703C377.124 33.8197 377.231 33.9783 377.297 34.179C377.479 33.983 377.661 33.8243 377.843 33.703C378.029 33.5817 378.223 33.521 378.424 33.521C378.774 33.521 379.033 33.633 379.201 33.857C379.369 34.081 379.453 34.41 379.453 34.844V37H378.942V34.907C378.942 34.5803 378.888 34.3423 378.781 34.193C378.673 34.0437 378.505 33.969 378.277 33.969C378.141 33.969 377.999 34.0157 377.85 34.109C377.705 34.1977 377.551 34.333 377.388 34.515V37H376.877V34.907C376.877 34.5803 376.823 34.3423 376.716 34.193C376.613 34.0437 376.447 33.969 376.219 33.969C375.948 33.969 375.649 34.151 375.323 34.515V37H374.819Z" fill="white"/>
<path d="M364.346 93.084C364.112 93.084 363.909 93.0397 363.737 92.951C363.564 92.8623 363.419 92.7527 363.303 92.622L363.59 92.3C363.683 92.412 363.795 92.5007 363.926 92.566C364.056 92.6267 364.189 92.657 364.325 92.657C364.549 92.657 364.752 92.5917 364.934 92.461C365.12 92.3303 365.267 92.1133 365.375 91.81C365.487 91.5067 365.543 91.0983 365.543 90.585C365.543 90.221 365.503 89.9107 365.424 89.654C365.349 89.3927 365.235 89.1943 365.081 89.059C364.927 88.9237 364.735 88.856 364.507 88.856C364.357 88.856 364.222 88.9003 364.101 88.989C363.979 89.073 363.881 89.192 363.807 89.346C363.737 89.4953 363.702 89.6703 363.702 89.871C363.702 90.0717 363.732 90.2467 363.793 90.396C363.858 90.5453 363.954 90.662 364.08 90.746C364.206 90.8253 364.367 90.865 364.563 90.865C364.712 90.865 364.875 90.816 365.053 90.718C365.23 90.6153 365.4 90.445 365.564 90.207L365.578 90.634C365.438 90.8207 365.267 90.9723 365.067 91.089C364.871 91.201 364.675 91.257 364.479 91.257C364.222 91.257 363.998 91.2057 363.807 91.103C363.615 90.9957 363.468 90.8393 363.366 90.634C363.263 90.4287 363.212 90.1743 363.212 89.871C363.212 89.591 363.27 89.3437 363.387 89.129C363.508 88.9143 363.667 88.7487 363.863 88.632C364.059 88.5107 364.273 88.45 364.507 88.45C364.731 88.45 364.934 88.4943 365.116 88.583C365.302 88.6717 365.463 88.807 365.599 88.989C365.734 89.1663 365.839 89.3903 365.914 89.661C365.993 89.927 366.033 90.235 366.033 90.585C366.033 91.0377 365.986 91.425 365.893 91.747C365.799 92.0643 365.673 92.321 365.515 92.517C365.356 92.713 365.176 92.8577 364.976 92.951C364.775 93.0397 364.565 93.084 364.346 93.084ZM368.099 93.084C367.66 93.084 367.315 92.8833 367.063 92.482C366.816 92.076 366.692 91.4997 366.692 90.753C366.692 90.0017 366.816 89.43 367.063 89.038C367.315 88.646 367.66 88.45 368.099 88.45C368.542 88.45 368.888 88.6483 369.135 89.045C369.382 89.437 369.506 90.0063 369.506 90.753C369.506 91.4997 369.382 92.076 369.135 92.482C368.888 92.8833 368.542 93.084 368.099 93.084ZM368.099 92.671C368.281 92.671 368.44 92.6033 368.575 92.468C368.715 92.3327 368.822 92.1227 368.897 91.838C368.972 91.5533 369.009 91.1917 369.009 90.753C369.009 90.3097 368.972 89.9503 368.897 89.675C368.822 89.395 368.715 89.1897 368.575 89.059C368.44 88.9283 368.281 88.863 368.099 88.863C367.917 88.863 367.758 88.9283 367.623 89.059C367.488 89.1897 367.38 89.395 367.301 89.675C367.226 89.9503 367.189 90.3097 367.189 90.753C367.189 91.1917 367.226 91.5533 367.301 91.838C367.38 92.1227 367.488 92.3327 367.623 92.468C367.758 92.6033 367.917 92.671 368.099 92.671ZM371.819 93V89.605H372.239L372.281 90.109H372.302C372.451 89.9457 372.614 89.808 372.792 89.696C372.974 89.5793 373.163 89.521 373.359 89.521C373.625 89.521 373.83 89.5817 373.975 89.703C374.124 89.8197 374.231 89.9783 374.297 90.179C374.479 89.983 374.661 89.8243 374.843 89.703C375.029 89.5817 375.223 89.521 375.424 89.521C375.774 89.521 376.033 89.633 376.201 89.857C376.369 90.081 376.453 90.41 376.453 90.844V93H375.942V90.907C375.942 90.5803 375.888 90.3423 375.781 90.193C375.673 90.0437 375.505 89.969 375.277 89.969C375.141 89.969 374.999 90.0157 374.85 90.109C374.705 90.1977 374.551 90.333 374.388 90.515V93H373.877V90.907C373.877 90.5803 373.823 90.3423 373.716 90.193C373.613 90.0437 373.447 89.969 373.219 89.969C372.948 89.969 372.649 90.151 372.323 90.515V93H371.819Z" fill="white"/>
<path d="M364.794 149.084C364.574 149.084 364.371 149.04 364.185 148.951C363.998 148.862 363.837 148.729 363.702 148.552C363.571 148.37 363.466 148.146 363.387 147.88C363.312 147.609 363.275 147.299 363.275 146.949C363.275 146.492 363.321 146.104 363.415 145.787C363.508 145.47 363.632 145.213 363.786 145.017C363.944 144.821 364.124 144.679 364.325 144.59C364.53 144.497 364.742 144.45 364.962 144.45C365.195 144.45 365.396 144.494 365.564 144.583C365.736 144.667 365.883 144.777 366.005 144.912L365.718 145.234C365.624 145.122 365.512 145.036 365.382 144.975C365.256 144.91 365.12 144.877 364.976 144.877C364.756 144.877 364.553 144.942 364.367 145.073C364.185 145.204 364.038 145.421 363.926 145.724C363.814 146.023 363.758 146.431 363.758 146.949C363.758 147.313 363.797 147.626 363.877 147.887C363.956 148.144 364.073 148.34 364.227 148.475C364.381 148.61 364.572 148.678 364.801 148.678C364.95 148.678 365.085 148.636 365.207 148.552C365.333 148.463 365.431 148.342 365.501 148.188C365.571 148.034 365.606 147.859 365.606 147.663C365.606 147.462 365.573 147.287 365.508 147.138C365.447 146.989 365.354 146.874 365.228 146.795C365.102 146.711 364.941 146.669 364.745 146.669C364.595 146.669 364.432 146.718 364.255 146.816C364.077 146.914 363.907 147.082 363.744 147.32L363.73 146.9C363.874 146.709 364.045 146.557 364.241 146.445C364.437 146.333 364.633 146.277 364.829 146.277C365.085 146.277 365.307 146.331 365.494 146.438C365.685 146.541 365.832 146.695 365.935 146.9C366.037 147.101 366.089 147.355 366.089 147.663C366.089 147.943 366.03 148.19 365.914 148.405C365.797 148.615 365.641 148.781 365.445 148.902C365.249 149.023 365.032 149.084 364.794 149.084ZM368.099 149.084C367.66 149.084 367.315 148.883 367.063 148.482C366.816 148.076 366.692 147.5 366.692 146.753C366.692 146.002 366.816 145.43 367.063 145.038C367.315 144.646 367.66 144.45 368.099 144.45C368.542 144.45 368.888 144.648 369.135 145.045C369.382 145.437 369.506 146.006 369.506 146.753C369.506 147.5 369.382 148.076 369.135 148.482C368.888 148.883 368.542 149.084 368.099 149.084ZM368.099 148.671C368.281 148.671 368.44 148.603 368.575 148.468C368.715 148.333 368.822 148.123 368.897 147.838C368.972 147.553 369.009 147.192 369.009 146.753C369.009 146.31 368.972 145.95 368.897 145.675C368.822 145.395 368.715 145.19 368.575 145.059C368.44 144.928 368.281 144.863 368.099 144.863C367.917 144.863 367.758 144.928 367.623 145.059C367.488 145.19 367.38 145.395 367.301 145.675C367.226 145.95 367.189 146.31 367.189 146.753C367.189 147.192 367.226 147.553 367.301 147.838C367.38 148.123 367.488 148.333 367.623 148.468C367.758 148.603 367.917 148.671 368.099 148.671ZM371.819 149V145.605H372.239L372.281 146.109H372.302C372.451 145.946 372.614 145.808 372.792 145.696C372.974 145.579 373.163 145.521 373.359 145.521C373.625 145.521 373.83 145.582 373.975 145.703C374.124 145.82 374.231 145.978 374.297 146.179C374.479 145.983 374.661 145.824 374.843 145.703C375.029 145.582 375.223 145.521 375.424 145.521C375.774 145.521 376.033 145.633 376.201 145.857C376.369 146.081 376.453 146.41 376.453 146.844V149H375.942V146.907C375.942 146.58 375.888 146.342 375.781 146.193C375.673 146.044 375.505 145.969 375.277 145.969C375.141 145.969 374.999 146.016 374.85 146.109C374.705 146.198 374.551 146.333 374.388 146.515V149H373.877V146.907C373.877 146.58 373.823 146.342 373.716 146.193C373.613 146.044 373.447 145.969 373.219 145.969C372.948 145.969 372.649 146.151 372.323 146.515V149H371.819Z" fill="white"/>
<path d="M364.577 204.084C364.339 204.084 364.129 204.054 363.947 203.993C363.765 203.932 363.606 203.855 363.471 203.762C363.335 203.664 363.219 203.561 363.121 203.454L363.38 203.118C363.515 203.258 363.674 203.384 363.856 203.496C364.042 203.603 364.273 203.657 364.549 203.657C364.829 203.657 365.057 203.58 365.235 203.426C365.417 203.267 365.508 203.057 365.508 202.796C365.508 202.614 365.459 202.453 365.361 202.313C365.267 202.173 365.113 202.066 364.899 201.991C364.689 201.912 364.404 201.872 364.045 201.872V201.473C364.367 201.473 364.621 201.436 364.808 201.361C364.999 201.282 365.137 201.177 365.221 201.046C365.305 200.915 365.347 200.768 365.347 200.605C365.347 200.381 365.274 200.204 365.13 200.073C364.985 199.938 364.789 199.87 364.542 199.87C364.35 199.87 364.173 199.914 364.01 200.003C363.846 200.087 363.699 200.197 363.569 200.332L363.289 200.003C363.461 199.844 363.65 199.714 363.856 199.611C364.061 199.504 364.294 199.45 364.556 199.45C364.808 199.45 365.032 199.494 365.228 199.583C365.424 199.672 365.578 199.8 365.69 199.968C365.806 200.131 365.865 200.332 365.865 200.57C365.865 200.845 365.788 201.072 365.634 201.249C365.484 201.422 365.286 201.552 365.039 201.641V201.669C365.221 201.711 365.386 201.783 365.536 201.886C365.685 201.984 365.804 202.112 365.893 202.271C365.981 202.425 366.026 202.605 366.026 202.81C366.026 203.076 365.96 203.305 365.83 203.496C365.699 203.683 365.524 203.827 365.305 203.93C365.085 204.033 364.843 204.084 364.577 204.084ZM368.099 204.084C367.66 204.084 367.315 203.883 367.063 203.482C366.816 203.076 366.692 202.5 366.692 201.753C366.692 201.002 366.816 200.43 367.063 200.038C367.315 199.646 367.66 199.45 368.099 199.45C368.542 199.45 368.888 199.648 369.135 200.045C369.382 200.437 369.506 201.006 369.506 201.753C369.506 202.5 369.382 203.076 369.135 203.482C368.888 203.883 368.542 204.084 368.099 204.084ZM368.099 203.671C368.281 203.671 368.44 203.603 368.575 203.468C368.715 203.333 368.822 203.123 368.897 202.838C368.972 202.553 369.009 202.192 369.009 201.753C369.009 201.31 368.972 200.95 368.897 200.675C368.822 200.395 368.715 200.19 368.575 200.059C368.44 199.928 368.281 199.863 368.099 199.863C367.917 199.863 367.758 199.928 367.623 200.059C367.488 200.19 367.38 200.395 367.301 200.675C367.226 200.95 367.189 201.31 367.189 201.753C367.189 202.192 367.226 202.553 367.301 202.838C367.38 203.123 367.488 203.333 367.623 203.468C367.758 203.603 367.917 203.671 368.099 203.671ZM371.819 204V200.605H372.239L372.281 201.109H372.302C372.451 200.946 372.614 200.808 372.792 200.696C372.974 200.579 373.163 200.521 373.359 200.521C373.625 200.521 373.83 200.582 373.975 200.703C374.124 200.82 374.231 200.978 374.297 201.179C374.479 200.983 374.661 200.824 374.843 200.703C375.029 200.582 375.223 200.521 375.424 200.521C375.774 200.521 376.033 200.633 376.201 200.857C376.369 201.081 376.453 201.41 376.453 201.844V204H375.942V201.907C375.942 201.58 375.888 201.342 375.781 201.193C375.673 201.044 375.505 200.969 375.277 200.969C375.141 200.969 374.999 201.016 374.85 201.109C374.705 201.198 374.551 201.333 374.388 201.515V204H373.877V201.907C373.877 201.58 373.823 201.342 373.716 201.193C373.613 201.044 373.447 200.969 373.219 200.969C372.948 200.969 372.649 201.151 372.323 201.515V204H371.819Z" fill="white"/>
</svg>
