<svg width="391" height="320" viewBox="0 0 391 320" fill="none" xmlns="http://www.w3.org/2000/svg">
<g clip-path="url(#clip0_25_7)">
<g filter="url(#filter0_d_25_7)">
<path d="M204.163 300.043L194.521 297.102V118.735L191.63 118.1L190.007 106.63L197.869 105.881V102.262L192.443 102.056V89.6858H190.273V86.5552H197.869V83.9509H196.784V76.4309C196.784 76.4309 189.741 77.2882 190.007 77.2285V68.1189L197.869 67.012V62.4165L190.414 62.6878V61.3151L197.869 60.2354V52.6232L190.517 52.8945V51.511L197.869 50.4421V43.7903L196.513 44.0724V40.421C196.513 40.421 200.582 39.2056 202.752 38.9018V35.9882H205.291V11.7465H207.576L208.172 0L209.263 11.7465H211.053V35.9882H214.146V38.9072C214.146 38.9072 218.638 39.6777 219.919 40.4373V44.067L219.029 43.812V50.3445L226.321 51.5056V53.1658L219.029 52.6124V60.1595L226.218 61.3097V62.9699L219.029 62.4219V67.1802L225.811 68.1189V78.1075C225.811 78.1075 221.199 76.5666 220.114 76.6046V83.9454H219.029V86.5498H226.082V89.6803H223.739V102.051L219.029 102.3V106.131L225.811 106.625L224.428 118.094L221.742 118.751V297.173L204.163 300.043Z" fill="#D9D9D9" fill-opacity="0.4" stroke="black"/>
</g>
<path d="M57.2297 113V112.573H58.2587V109.178H57.4467V108.849C57.6474 108.816 57.8224 108.774 57.9717 108.723C58.1211 108.667 58.2564 108.604 58.3777 108.534H58.7697V112.573H59.7007V113H57.2297ZM60.3249 113V112.699C60.7823 112.237 61.1696 111.833 61.4869 111.488C61.8043 111.138 62.0446 110.825 62.2079 110.55C62.3713 110.275 62.4529 110.013 62.4529 109.766C62.4529 109.505 62.3806 109.29 62.2359 109.122C62.0959 108.954 61.8743 108.87 61.5709 108.87C61.3843 108.87 61.2069 108.921 61.0389 109.024C60.8756 109.127 60.7286 109.257 60.5979 109.416L60.2969 109.122C60.4836 108.921 60.6819 108.76 60.8919 108.639C61.1019 108.513 61.3493 108.45 61.6339 108.45C61.9046 108.45 62.1379 108.504 62.3339 108.611C62.5346 108.718 62.6886 108.87 62.7959 109.066C62.9033 109.257 62.9569 109.484 62.9569 109.745C62.9569 110.03 62.8753 110.317 62.7119 110.606C62.5533 110.895 62.3316 111.203 62.0469 111.53C61.7669 111.852 61.4426 112.207 61.0739 112.594C61.1953 112.585 61.3213 112.578 61.4519 112.573C61.5826 112.564 61.7063 112.559 61.8229 112.559H63.1739V113H60.3249ZM65.2122 113.084C64.7736 113.084 64.4282 112.883 64.1762 112.482C63.9289 112.076 63.8052 111.5 63.8052 110.753C63.8052 110.002 63.9289 109.43 64.1762 109.038C64.4282 108.646 64.7736 108.45 65.2122 108.45C65.6556 108.45 66.0009 108.648 66.2482 109.045C66.4956 109.437 66.6192 110.006 66.6192 110.753C66.6192 111.5 66.4956 112.076 66.2482 112.482C66.0009 112.883 65.6556 113.084 65.2122 113.084ZM65.2122 112.671C65.3942 112.671 65.5529 112.603 65.6882 112.468C65.8282 112.333 65.9356 112.123 66.0102 111.838C66.0849 111.553 66.1222 111.192 66.1222 110.753C66.1222 110.31 66.0849 109.95 66.0102 109.675C65.9356 109.395 65.8282 109.19 65.6882 109.059C65.5529 108.928 65.3942 108.863 65.2122 108.863C65.0302 108.863 64.8716 108.928 64.7362 109.059C64.6009 109.19 64.4936 109.395 64.4142 109.675C64.3396 109.95 64.3022 110.31 64.3022 110.753C64.3022 111.192 64.3396 111.553 64.4142 111.838C64.4936 112.123 64.6009 112.333 64.7362 112.468C64.8716 112.603 65.0302 112.671 65.2122 112.671ZM68.9319 113V109.605H69.3519L69.3939 110.109H69.4149C69.5642 109.946 69.7276 109.808 69.9049 109.696C70.0869 109.579 70.2759 109.521 70.4719 109.521C70.7379 109.521 70.9432 109.582 71.0879 109.703C71.2372 109.82 71.3446 109.978 71.4099 110.179C71.5919 109.983 71.7739 109.824 71.9559 109.703C72.1426 109.582 72.3362 109.521 72.5369 109.521C72.8869 109.521 73.1459 109.633 73.3139 109.857C73.4819 110.081 73.5659 110.41 73.5659 110.844V113H73.0549V110.907C73.0549 110.58 73.0012 110.342 72.8939 110.193C72.7866 110.044 72.6186 109.969 72.3899 109.969C72.2546 109.969 72.1122 110.016 71.9629 110.109C71.8182 110.198 71.6642 110.333 71.5009 110.515V113H70.9899V110.907C70.9899 110.58 70.9362 110.342 70.8289 110.193C70.7262 110.044 70.5606 109.969 70.3319 109.969C70.0612 109.969 69.7626 110.151 69.4359 110.515V113H68.9319Z" fill="white"/>
<path d="M317.159 50V49.573H318.188V46.178H317.376V45.849C317.577 45.8163 317.752 45.7743 317.901 45.723C318.051 45.667 318.186 45.604 318.307 45.534H318.699V49.573H319.63V50H317.159ZM320.255 50V49.699C320.712 49.237 321.099 48.8333 321.417 48.488C321.734 48.138 321.974 47.8253 322.138 47.55C322.301 47.2747 322.383 47.0133 322.383 46.766C322.383 46.5047 322.31 46.29 322.166 46.122C322.026 45.954 321.804 45.87 321.501 45.87C321.314 45.87 321.137 45.9213 320.969 46.024C320.805 46.1267 320.658 46.2573 320.528 46.416L320.227 46.122C320.413 45.9213 320.612 45.7603 320.822 45.639C321.032 45.513 321.279 45.45 321.564 45.45C321.834 45.45 322.068 45.5037 322.264 45.611C322.464 45.7183 322.618 45.87 322.726 46.066C322.833 46.2573 322.887 46.4837 322.887 46.745C322.887 47.0297 322.805 47.3167 322.642 47.606C322.483 47.8953 322.261 48.2033 321.977 48.53C321.697 48.852 321.372 49.2067 321.004 49.594C321.125 49.5847 321.251 49.5777 321.382 49.573C321.512 49.5637 321.636 49.559 321.753 49.559H323.104V50H320.255ZM324.68 50C324.703 49.4307 324.762 48.9197 324.855 48.467C324.948 48.0143 325.086 47.5897 325.268 47.193C325.45 46.7917 325.688 46.3857 325.982 45.975H323.728V45.534H326.57V45.842C326.304 46.1827 326.087 46.5117 325.919 46.829C325.751 47.1417 325.618 47.459 325.52 47.781C325.427 48.103 325.357 48.4437 325.31 48.803C325.263 49.1623 325.228 49.5613 325.205 50H324.68ZM327.327 51.162L327.194 50.854C327.386 50.77 327.535 50.6533 327.642 50.504C327.75 50.3547 327.803 50.182 327.803 49.986L327.733 49.496L328.006 49.895C327.974 49.9417 327.932 49.9743 327.88 49.993C327.834 50.007 327.785 50.014 327.733 50.014C327.626 50.014 327.533 49.9813 327.453 49.916C327.379 49.8507 327.341 49.7573 327.341 49.636C327.341 49.5193 327.381 49.4283 327.46 49.363C327.544 49.2977 327.638 49.265 327.74 49.265C327.885 49.265 327.997 49.321 328.076 49.433C328.156 49.545 328.195 49.699 328.195 49.895C328.195 50.1843 328.116 50.4387 327.957 50.658C327.803 50.8773 327.593 51.0453 327.327 51.162ZM330.206 50.084C329.968 50.084 329.758 50.0537 329.576 49.993C329.394 49.9323 329.235 49.8553 329.1 49.762C328.964 49.664 328.848 49.5613 328.75 49.454L329.009 49.118C329.144 49.258 329.303 49.384 329.485 49.496C329.671 49.6033 329.902 49.657 330.178 49.657C330.458 49.657 330.686 49.58 330.864 49.426C331.046 49.2673 331.137 49.0573 331.137 48.796C331.137 48.614 331.088 48.453 330.99 48.313C330.896 48.173 330.742 48.0657 330.528 47.991C330.318 47.9117 330.033 47.872 329.674 47.872V47.473C329.996 47.473 330.25 47.4357 330.437 47.361C330.628 47.2817 330.766 47.1767 330.85 47.046C330.934 46.9153 330.976 46.7683 330.976 46.605C330.976 46.381 330.903 46.2037 330.759 46.073C330.614 45.9377 330.418 45.87 330.171 45.87C329.979 45.87 329.802 45.9143 329.639 46.003C329.475 46.087 329.328 46.1967 329.198 46.332L328.918 46.003C329.09 45.8443 329.279 45.7137 329.485 45.611C329.69 45.5037 329.923 45.45 330.185 45.45C330.437 45.45 330.661 45.4943 330.857 45.583C331.053 45.6717 331.207 45.8 331.319 45.968C331.435 46.1313 331.494 46.332 331.494 46.57C331.494 46.8453 331.417 47.0717 331.263 47.249C331.113 47.4217 330.915 47.5523 330.668 47.641V47.669C330.85 47.711 331.015 47.7833 331.165 47.886C331.314 47.984 331.433 48.1123 331.522 48.271C331.61 48.425 331.655 48.6047 331.655 48.81C331.655 49.076 331.589 49.3047 331.459 49.496C331.328 49.6827 331.153 49.8273 330.934 49.93C330.714 50.0327 330.472 50.084 330.206 50.084ZM334.002 50V46.605H334.422L334.464 47.109H334.485C334.635 46.9457 334.798 46.808 334.975 46.696C335.157 46.5793 335.346 46.521 335.542 46.521C335.808 46.521 336.014 46.5817 336.158 46.703C336.308 46.8197 336.415 46.9783 336.48 47.179C336.662 46.983 336.844 46.8243 337.026 46.703C337.213 46.5817 337.407 46.521 337.607 46.521C337.957 46.521 338.216 46.633 338.384 46.857C338.552 47.081 338.636 47.41 338.636 47.844V50H338.125V47.907C338.125 47.5803 338.072 47.3423 337.964 47.193C337.857 47.0437 337.689 46.969 337.46 46.969C337.325 46.969 337.183 47.0157 337.033 47.109C336.889 47.1977 336.735 47.333 336.571 47.515V50H336.06V47.907C336.06 47.5803 336.007 47.3423 335.899 47.193C335.797 47.0437 335.631 46.969 335.402 46.969C335.132 46.969 334.833 47.151 334.506 47.515V50H334.002Z" fill="white"/>
<path d="M278.495 37V30.466H276.273V29.773H281.52V30.466H279.309V37H278.495ZM285.224 37.132C284.623 37.132 284.091 36.978 283.629 36.67C283.167 36.362 282.804 35.9257 282.54 35.361C282.283 34.7963 282.155 34.129 282.155 33.359C282.155 32.589 282.283 31.929 282.54 31.379C282.804 30.8217 283.167 30.3927 283.629 30.092C284.091 29.7913 284.623 29.641 285.224 29.641C285.818 29.641 286.346 29.7913 286.808 30.092C287.27 30.3927 287.629 30.8217 287.886 31.379C288.15 31.929 288.282 32.589 288.282 33.359C288.282 34.129 288.15 34.7963 287.886 35.361C287.629 35.9257 287.27 36.362 286.808 36.67C286.346 36.978 285.818 37.132 285.224 37.132ZM285.224 36.417C285.664 36.417 286.049 36.2923 286.379 36.043C286.716 35.7863 286.977 35.4307 287.16 34.976C287.343 34.514 287.435 33.975 287.435 33.359C287.435 32.743 287.343 32.2113 287.16 31.764C286.977 31.3167 286.716 30.972 286.379 30.73C286.049 30.4807 285.664 30.356 285.224 30.356C284.777 30.356 284.384 30.4807 284.047 30.73C283.717 30.972 283.46 31.3167 283.277 31.764C283.094 32.2113 283.002 32.743 283.002 33.359C283.002 33.975 283.094 34.514 283.277 34.976C283.46 35.4307 283.717 35.7863 284.047 36.043C284.384 36.2923 284.777 36.417 285.224 36.417ZM289.867 37V29.773H292.078C292.562 29.773 292.991 29.839 293.365 29.971C293.739 30.0957 294.033 30.3047 294.245 30.598C294.458 30.8913 294.564 31.2837 294.564 31.775C294.564 32.2443 294.458 32.6367 294.245 32.952C294.033 33.26 293.739 33.491 293.365 33.645C292.991 33.799 292.562 33.876 292.078 33.876H290.681V37H289.867ZM293.838 37L291.913 33.656L292.573 33.26L294.762 37H293.838ZM290.681 33.216H291.946C292.526 33.216 292.969 33.0987 293.277 32.864C293.593 32.622 293.75 32.259 293.75 31.775C293.75 31.2837 293.593 30.939 293.277 30.741C292.969 30.5357 292.526 30.433 291.946 30.433H290.681V33.216ZM296.066 37V29.773H298.277C298.761 29.773 299.19 29.839 299.564 29.971C299.938 30.0957 300.231 30.3047 300.444 30.598C300.656 30.8913 300.763 31.2837 300.763 31.775C300.763 32.2443 300.656 32.6367 300.444 32.952C300.231 33.26 299.938 33.491 299.564 33.645C299.19 33.799 298.761 33.876 298.277 33.876H296.88V37H296.066ZM300.037 37L298.112 33.656L298.772 33.26L300.961 37H300.037ZM296.88 33.216H298.145C298.724 33.216 299.168 33.0987 299.476 32.864C299.791 32.622 299.949 32.259 299.949 31.775C299.949 31.2837 299.791 30.939 299.476 30.741C299.168 30.5357 298.724 30.433 298.145 30.433H296.88V33.216ZM302.264 37V29.773H306.367V30.466H303.078V32.853H305.85V33.535H303.078V36.307H306.477V37H302.264ZM310.235 37V29.773H314.338V30.466H311.049V32.853H313.821V33.535H311.049V36.307H314.448V37H310.235ZM316.003 37V29.773H316.839L319.567 34.459L320.359 35.944H320.403C320.381 35.5773 320.356 35.2033 320.326 34.822C320.304 34.4333 320.293 34.0557 320.293 33.689V29.773H321.063V37H320.227L317.499 32.314L316.707 30.829H316.663C316.693 31.1883 316.718 31.555 316.74 31.929C316.762 32.2957 316.773 32.666 316.773 33.04V37H316.003ZM324.6 37V30.466H322.378V29.773H327.625V30.466H325.414V37H324.6ZM328.948 37V29.773H333.051V30.466H329.762V32.853H332.534V33.535H329.762V36.307H333.161V37H328.948ZM334.716 37V29.773H335.53V36.307H338.72V37H334.716Z" fill="white"/>
<path d="M218.5 41.5H340.5" stroke="#BBECF9"/>
<circle r="1.5" transform="matrix(-1 0 0 1 218.5 41.5)" fill="white"/>
<path d="M171.176 292.15L178.908 276.959L178.571 162.749L177.144 153.39L178.539 147.829V138.062H182.744V139.69H185.863V138.062H193.73V139.69H196.443C196.308 139.148 196.118 138.062 196.443 138.062H200.241L200.377 147.829C200.599 149.717 201.006 151.583 201.598 153.39L200.241 162.206V276.959L208.244 292.15V299.611L206.752 300.018L201.326 297.034L201.435 298.932H199.943L201.435 301.103H177.665L178.75 298.932H177.529L177.643 297.034L173.732 300.018L171.154 299.611L171.176 292.15Z" fill="#B2B2B2"/>
<path d="M166.016 123.956L178.495 90.588C178.463 79.3461 178.495 60.1556 178.756 47.7255L170.221 45.6909V39.8529L185.223 18.9642C186.91 15.1174 188.592 12.1821 189.753 12.1821C190.915 12.1821 192.797 15.1011 194.599 18.9642L209.014 39.8529V46.0924L200.333 47.72C200.534 58.8752 200.719 75.5753 200.719 90.5826L212.926 123.95V136.022L204.11 138.057H196.677V139.685H193.692V138.057H185.825V139.685H182.706V138.057H174.703L166.022 136.022L166.016 123.956Z" fill="#DADADA"/>
<path d="M178.501 90.588L166.022 123.956V136.028L174.703 138.062M178.501 90.588C178.468 79.3461 178.501 60.1556 178.761 47.7255M178.501 90.588L181.078 133.179L178.501 138.062M178.501 90.588L174.703 138.062M200.746 90.588L212.953 123.956V136.028L204.137 138.062M200.746 90.588C200.746 75.5753 200.561 58.8752 200.361 47.7255M200.746 90.588L198.44 133.179L200.203 138.062M200.746 90.588L204.137 138.062M174.703 138.062H178.501M178.501 138.062H182.841M178.501 138.062V147.693M178.88 276.959L171.149 292.15V299.611L173.726 300.018L177.638 297.033M178.88 276.959L177.638 297.033M178.88 276.959L178.55 164.105M200.176 276.959L208.179 292.15V299.611L206.687 300.018L201.261 297.033M200.176 276.959L201.261 297.033M200.176 276.959V164.105M200.176 138.062H204.11M200.176 138.062H196.481M200.176 138.062L200.22 147.693M185.228 18.9642C182.559 25.0463 179.895 33.4018 179.315 36.0549C179.065 37.1943 178.886 41.6542 178.772 47.72M185.239 18.9642C186.927 15.1174 188.609 12.1821 189.77 12.1821C190.931 12.1821 192.814 15.1011 194.615 18.9642M185.239 18.9642L170.237 39.8529V45.6854L178.772 47.72M194.615 18.9642C197.328 24.7479 199.916 32.6422 200.078 36.0549C200.165 37.9539 200.274 42.1479 200.371 47.72M194.615 18.9642L209.031 39.8529V46.0924L200.35 47.72M177.665 297.033L177.551 298.932H178.772M201.315 297.033L201.424 298.932H199.932M178.772 298.932L177.687 301.103H201.446L199.954 298.932M178.794 298.932H180.286M199.954 298.932H199.14M182.863 138.062C183.118 131.036 184.805 125.269 185.684 123.142V138.062M182.863 138.062C182.863 138.643 182.863 139.229 182.863 139.826H185.711V138.062M185.711 138.062H193.714M193.714 138.062V139.826H196.563C196.563 139.229 196.563 138.643 196.53 138.062M193.714 138.062V123.142C194.588 125.269 196.275 131.036 196.53 138.062M178.539 147.693H181.631L183.937 155.967L181.631 164.105H178.588M178.539 147.693L177.155 153.39L178.588 164.105M200.241 147.693H197.154L194.848 155.967L197.154 164.105H200.198M200.241 147.693L201.63 153.39L200.198 164.105M186.091 298.932L185.684 276.28L180.259 292.693V298.932M186.091 298.932L180.259 300.018V298.932M186.091 298.932H193.009M193.009 298.932L199.113 300.018V298.932M193.009 298.932L193.416 276.145L199.113 292.693V298.932M182.564 30.7649H197.078C195.673 25.7462 192.249 15.7359 189.753 15.8444C187.258 15.9529 183.926 25.8385 182.57 30.7649H182.564Z" stroke="#010101" stroke-width="0.5"/>
<path d="M166.016 123.956L178.495 90.588C178.463 79.3461 178.495 60.1556 178.756 47.7255L170.221 45.6909V39.8529L185.223 18.9642C186.91 15.1174 188.592 12.1821 189.753 12.1821C190.915 12.1821 192.797 15.1011 194.599 18.9642L209.014 39.8529V46.0924L200.333 47.72C200.534 58.8752 200.719 75.5753 200.719 90.5826L212.926 123.95V136.022L204.11 138.057H200.176V276.953L208.179 292.145V299.605L206.687 300.012L201.261 297.028L201.37 298.927H199.878L201.37 301.097H177.665L178.75 298.927H177.529L177.643 297.028L173.732 300.012L171.154 299.605V292.15L178.886 276.959L178.479 138.062H174.681L166 136.028L166.016 123.956Z" stroke="#010101" stroke-width="1.5"/>
<path d="M58.644 223V218.401H59.918C60.2587 218.401 60.5573 218.445 60.814 218.534C61.0707 218.618 61.269 218.758 61.409 218.954C61.5537 219.145 61.626 219.407 61.626 219.738C61.626 220.055 61.556 220.317 61.416 220.522C61.276 220.727 61.08 220.881 60.828 220.984C60.576 221.087 60.282 221.138 59.946 221.138H59.162V223H58.644ZM59.162 220.711H59.869C60.289 220.711 60.5993 220.634 60.8 220.48C61.0053 220.321 61.108 220.074 61.108 219.738C61.108 219.393 61.0007 219.155 60.786 219.024C60.576 218.889 60.261 218.821 59.841 218.821H59.162V220.711ZM62.5257 223V219.605H62.9457L62.9877 220.228H63.0087C63.1253 220.013 63.2653 219.843 63.4287 219.717C63.5967 219.586 63.7787 219.521 63.9747 219.521C64.0447 219.521 64.1077 219.528 64.1637 219.542C64.2197 219.551 64.2733 219.568 64.3247 219.591L64.2267 220.039C64.1707 220.02 64.1193 220.006 64.0727 219.997C64.0307 219.988 63.9747 219.983 63.9047 219.983C63.76 219.983 63.6083 220.044 63.4497 220.165C63.291 220.282 63.151 220.489 63.0297 220.788V223H62.5257ZM66.1312 223.084C65.8559 223.084 65.5992 223.014 65.3612 222.874C65.1232 222.734 64.9319 222.533 64.7872 222.272C64.6425 222.006 64.5702 221.684 64.5702 221.306C64.5702 220.928 64.6425 220.606 64.7872 220.34C64.9319 220.074 65.1232 219.871 65.3612 219.731C65.5992 219.591 65.8559 219.521 66.1312 219.521C66.4065 219.521 66.6609 219.591 66.8942 219.731C67.1322 219.871 67.3235 220.074 67.4682 220.34C67.6175 220.606 67.6922 220.928 67.6922 221.306C67.6922 221.684 67.6175 222.006 67.4682 222.272C67.3235 222.533 67.1322 222.734 66.8942 222.874C66.6609 223.014 66.4065 223.084 66.1312 223.084ZM66.1312 222.657C66.3365 222.657 66.5162 222.601 66.6702 222.489C66.8289 222.377 66.9502 222.221 67.0342 222.02C67.1229 221.815 67.1672 221.577 67.1672 221.306C67.1672 221.04 67.1229 220.804 67.0342 220.599C66.9502 220.394 66.8289 220.235 66.6702 220.123C66.5162 220.006 66.3365 219.948 66.1312 219.948C65.9305 219.948 65.7509 220.006 65.5922 220.123C65.4382 220.235 65.3169 220.394 65.2282 220.599C65.1442 220.804 65.1022 221.04 65.1022 221.306C65.1022 221.577 65.1442 221.815 65.2282 222.02C65.3169 222.221 65.4382 222.377 65.5922 222.489C65.7509 222.601 65.9305 222.657 66.1312 222.657ZM68.6165 224.456V219.605H69.0365L69.0785 220.011H69.0995C69.2535 219.876 69.4238 219.761 69.6105 219.668C69.8018 219.57 69.9978 219.521 70.1985 219.521C70.4925 219.521 70.7398 219.593 70.9405 219.738C71.1412 219.878 71.2905 220.079 71.3885 220.34C71.4912 220.597 71.5425 220.9 71.5425 221.25C71.5425 221.637 71.4725 221.969 71.3325 222.244C71.1972 222.515 71.0175 222.722 70.7935 222.867C70.5695 223.012 70.3292 223.084 70.0725 223.084C69.9185 223.084 69.7598 223.049 69.5965 222.979C69.4332 222.909 69.2698 222.811 69.1065 222.685L69.1205 223.287V224.456H68.6165ZM69.9885 222.65C70.1892 222.65 70.3665 222.594 70.5205 222.482C70.6745 222.37 70.7958 222.209 70.8845 221.999C70.9732 221.789 71.0175 221.542 71.0175 221.257C71.0175 221 70.9848 220.774 70.9195 220.578C70.8588 220.382 70.7585 220.23 70.6185 220.123C70.4832 220.011 70.3035 219.955 70.0795 219.955C69.9302 219.955 69.7762 219.997 69.6175 220.081C69.4635 220.16 69.2978 220.282 69.1205 220.445V222.279C69.2885 222.414 69.4472 222.51 69.5965 222.566C69.7458 222.622 69.8765 222.65 69.9885 222.65ZM73.4588 223.084C73.1088 223.084 72.8498 222.972 72.6818 222.748C72.5138 222.524 72.4298 222.195 72.4298 221.761V219.605H72.9338V221.698C72.9338 222.025 72.9875 222.265 73.0948 222.419C73.2021 222.568 73.3748 222.643 73.6128 222.643C73.7901 222.643 73.9511 222.596 74.0958 222.503C74.2405 222.405 74.3968 222.251 74.5648 222.041V219.605H75.0758V223H74.6488L74.6068 222.461H74.5858C74.4271 222.648 74.2591 222.799 74.0818 222.916C73.9045 223.028 73.6968 223.084 73.4588 223.084ZM76.8121 223.084C76.6861 223.084 76.5811 223.056 76.4971 223C76.4131 222.949 76.3524 222.872 76.3151 222.769C76.2777 222.662 76.2591 222.531 76.2591 222.377V218.002H76.7631V222.419C76.7631 222.503 76.7794 222.564 76.8121 222.601C76.8447 222.638 76.8821 222.657 76.9241 222.657C76.9381 222.657 76.9544 222.657 76.9731 222.657C76.9917 222.652 77.0174 222.648 77.0501 222.643L77.1201 223.035C77.0827 223.044 77.0384 223.054 76.9871 223.063C76.9404 223.077 76.8821 223.084 76.8121 223.084ZM78.8771 223.084C78.6344 223.084 78.4034 223.04 78.1841 222.951C77.9647 222.858 77.7757 222.746 77.6171 222.615L77.8761 222.272C78.0254 222.389 78.1794 222.487 78.3381 222.566C78.4967 222.645 78.6834 222.685 78.8981 222.685C79.1314 222.685 79.3064 222.629 79.4231 222.517C79.5397 222.405 79.5981 222.272 79.5981 222.118C79.5981 221.997 79.5584 221.896 79.4791 221.817C79.3997 221.733 79.2994 221.663 79.1781 221.607C79.0567 221.546 78.9331 221.493 78.8071 221.446C78.6484 221.39 78.4897 221.322 78.3311 221.243C78.1724 221.164 78.0394 221.063 77.9321 220.942C77.8294 220.821 77.7781 220.664 77.7781 220.473C77.7781 220.207 77.8784 219.983 78.0791 219.801C78.2844 219.614 78.5691 219.521 78.9331 219.521C79.1384 219.521 79.3297 219.558 79.5071 219.633C79.6844 219.708 79.8361 219.796 79.9621 219.899L79.7171 220.228C79.6004 220.144 79.4791 220.074 79.3531 220.018C79.2317 219.957 79.0917 219.927 78.9331 219.927C78.7091 219.927 78.5434 219.981 78.4361 220.088C78.3287 220.191 78.2751 220.31 78.2751 220.445C78.2751 220.557 78.3101 220.65 78.3801 220.725C78.4547 220.795 78.5504 220.856 78.6671 220.907C78.7837 220.958 78.9074 221.01 79.0381 221.061C79.2061 221.122 79.3694 221.192 79.5281 221.271C79.6914 221.346 79.8267 221.446 79.9341 221.572C80.0414 221.698 80.0951 221.871 80.0951 222.09C80.0951 222.267 80.0484 222.433 79.9551 222.587C79.8617 222.736 79.7241 222.858 79.5421 222.951C79.3601 223.04 79.1384 223.084 78.8771 223.084ZM82.2162 223.084C81.9408 223.084 81.6842 223.014 81.4462 222.874C81.2082 222.734 81.0168 222.533 80.8722 222.272C80.7275 222.006 80.6552 221.684 80.6552 221.306C80.6552 220.928 80.7275 220.606 80.8722 220.34C81.0168 220.074 81.2082 219.871 81.4462 219.731C81.6842 219.591 81.9408 219.521 82.2162 219.521C82.4915 219.521 82.7458 219.591 82.9792 219.731C83.2172 219.871 83.4085 220.074 83.5532 220.34C83.7025 220.606 83.7772 220.928 83.7772 221.306C83.7772 221.684 83.7025 222.006 83.5532 222.272C83.4085 222.533 83.2172 222.734 82.9792 222.874C82.7458 223.014 82.4915 223.084 82.2162 223.084ZM82.2162 222.657C82.4215 222.657 82.6012 222.601 82.7552 222.489C82.9138 222.377 83.0352 222.221 83.1192 222.02C83.2078 221.815 83.2522 221.577 83.2522 221.306C83.2522 221.04 83.2078 220.804 83.1192 220.599C83.0352 220.394 82.9138 220.235 82.7552 220.123C82.6012 220.006 82.4215 219.948 82.2162 219.948C82.0155 219.948 81.8358 220.006 81.6772 220.123C81.5232 220.235 81.4018 220.394 81.3132 220.599C81.2292 220.804 81.1872 221.04 81.1872 221.306C81.1872 221.577 81.2292 221.815 81.3132 222.02C81.4018 222.221 81.5232 222.377 81.6772 222.489C81.8358 222.601 82.0155 222.657 82.2162 222.657ZM84.7014 223V219.605H85.1214L85.1634 220.228H85.1844C85.3011 220.013 85.4411 219.843 85.6044 219.717C85.7724 219.586 85.9544 219.521 86.1504 219.521C86.2204 219.521 86.2834 219.528 86.3394 219.542C86.3954 219.551 86.4491 219.568 86.5004 219.591L86.4024 220.039C86.3464 220.02 86.2951 220.006 86.2484 219.997C86.2064 219.988 86.1504 219.983 86.0804 219.983C85.9358 219.983 85.7841 220.044 85.6254 220.165C85.4668 220.282 85.3268 220.489 85.2054 220.788V223H84.7014ZM89.6227 223.084C89.1981 223.084 88.8597 222.93 88.6077 222.622C88.3557 222.309 88.2297 221.871 88.2297 221.306C88.2297 220.942 88.2974 220.627 88.4327 220.361C88.5727 220.095 88.7547 219.89 88.9787 219.745C89.2027 219.596 89.4454 219.521 89.7067 219.521C89.9074 219.521 90.0801 219.556 90.2247 219.626C90.3694 219.696 90.5187 219.794 90.6727 219.92L90.6517 219.332V218.002H91.1557V223H90.7357L90.6937 222.587H90.6727C90.5421 222.722 90.3857 222.839 90.2037 222.937C90.0264 223.035 89.8327 223.084 89.6227 223.084ZM89.7347 222.65C89.8981 222.65 90.0544 222.61 90.2037 222.531C90.3531 222.447 90.5024 222.326 90.6517 222.167V220.326C90.4977 220.191 90.3507 220.095 90.2107 220.039C90.0707 219.983 89.9284 219.955 89.7837 219.955C89.5924 219.955 89.4174 220.013 89.2587 220.13C89.1047 220.242 88.9811 220.401 88.8877 220.606C88.7991 220.807 88.7547 221.04 88.7547 221.306C88.7547 221.721 88.8387 222.05 89.0067 222.293C89.1794 222.531 89.4221 222.65 89.7347 222.65ZM93.688 223.084C93.394 223.084 93.1234 223.014 92.876 222.874C92.6334 222.729 92.4397 222.526 92.295 222.265C92.1504 221.999 92.078 221.679 92.078 221.306C92.078 220.937 92.1504 220.62 92.295 220.354C92.4397 220.088 92.6264 219.883 92.855 219.738C93.0884 219.593 93.3357 219.521 93.597 219.521C93.877 219.521 94.1174 219.586 94.318 219.717C94.5187 219.848 94.6704 220.032 94.773 220.27C94.8804 220.503 94.934 220.783 94.934 221.11C94.934 221.166 94.9317 221.222 94.927 221.278C94.927 221.329 94.9224 221.376 94.913 221.418H92.477L92.47 221.047H94.479C94.479 220.683 94.402 220.408 94.248 220.221C94.094 220.03 93.8794 219.934 93.604 219.934C93.436 219.934 93.2727 219.983 93.114 220.081C92.9554 220.179 92.8247 220.328 92.722 220.529C92.6194 220.73 92.568 220.989 92.568 221.306C92.568 221.609 92.6217 221.861 92.729 222.062C92.8364 222.263 92.9787 222.414 93.156 222.517C93.338 222.62 93.5364 222.671 93.751 222.671C93.9237 222.671 94.0777 222.645 94.213 222.594C94.353 222.543 94.486 222.477 94.612 222.398L94.801 222.734C94.6564 222.827 94.493 222.909 94.311 222.979C94.1337 223.049 93.926 223.084 93.688 223.084ZM97.7437 223.084C97.6177 223.084 97.5127 223.056 97.4287 223C97.3447 222.949 97.284 222.872 97.2467 222.769C97.2094 222.662 97.1907 222.531 97.1907 222.377V218.002H97.6947V222.419C97.6947 222.503 97.711 222.564 97.7437 222.601C97.7764 222.638 97.8137 222.657 97.8557 222.657C97.8697 222.657 97.886 222.657 97.9047 222.657C97.9234 222.652 97.949 222.648 97.9817 222.643L98.0517 223.035C98.0144 223.044 97.97 223.054 97.9187 223.063C97.872 223.077 97.8137 223.084 97.7437 223.084ZM99.7107 223.084C99.524 223.084 99.356 223.047 99.2067 222.972C99.0574 222.897 98.9384 222.79 98.8497 222.65C98.761 222.505 98.7167 222.33 98.7167 222.125C98.7167 221.756 98.8847 221.474 99.2207 221.278C99.5614 221.077 100.098 220.937 100.831 220.858C100.831 220.704 100.81 220.557 100.768 220.417C100.73 220.277 100.658 220.165 100.551 220.081C100.448 219.992 100.299 219.948 100.103 219.948C99.8974 219.948 99.706 219.988 99.5287 220.067C99.356 220.146 99.2044 220.23 99.0737 220.319L98.8707 219.969C98.9687 219.904 99.0854 219.836 99.2207 219.766C99.356 219.696 99.5054 219.638 99.6687 219.591C99.832 219.544 100.005 219.521 100.187 219.521C100.462 219.521 100.684 219.579 100.852 219.696C101.02 219.813 101.141 219.974 101.216 220.179C101.295 220.384 101.335 220.625 101.335 220.9V223H100.915L100.873 222.587H100.852C100.688 222.722 100.511 222.839 100.32 222.937C100.128 223.035 99.9254 223.084 99.7107 223.084ZM99.8437 222.671C100.021 222.671 100.184 222.631 100.334 222.552C100.488 222.468 100.653 222.349 100.831 222.195V221.201C100.429 221.248 100.112 221.313 99.8787 221.397C99.6454 221.476 99.4774 221.574 99.3747 221.691C99.272 221.808 99.2207 221.943 99.2207 222.097C99.2207 222.298 99.2814 222.445 99.4027 222.538C99.5287 222.627 99.6757 222.671 99.8437 222.671ZM102.448 223V219.605H102.868L102.91 220.109H102.931C103.094 219.941 103.267 219.801 103.449 219.689C103.635 219.577 103.843 219.521 104.072 219.521C104.431 219.521 104.692 219.633 104.856 219.857C105.024 220.081 105.108 220.41 105.108 220.844V223H104.597V220.907C104.597 220.58 104.543 220.342 104.436 220.193C104.333 220.044 104.163 219.969 103.925 219.969C103.747 219.969 103.586 220.016 103.442 220.109C103.297 220.198 103.134 220.333 102.952 220.515V223H102.448ZM105.863 223V222.727L107.704 220.025H106.066V219.605H108.348V219.878L106.507 222.58H108.411V223H105.863ZM109.78 223.084C109.593 223.084 109.425 223.047 109.276 222.972C109.127 222.897 109.008 222.79 108.919 222.65C108.83 222.505 108.786 222.33 108.786 222.125C108.786 221.756 108.954 221.474 109.29 221.278C109.631 221.077 110.167 220.937 110.9 220.858C110.9 220.704 110.879 220.557 110.837 220.417C110.8 220.277 110.727 220.165 110.62 220.081C110.517 219.992 110.368 219.948 110.172 219.948C109.967 219.948 109.775 219.988 109.598 220.067C109.425 220.146 109.274 220.23 109.143 220.319L108.94 219.969C109.038 219.904 109.155 219.836 109.29 219.766C109.425 219.696 109.575 219.638 109.738 219.591C109.901 219.544 110.074 219.521 110.256 219.521C110.531 219.521 110.753 219.579 110.921 219.696C111.089 219.813 111.21 219.974 111.285 220.179C111.364 220.384 111.404 220.625 111.404 220.9V223H110.984L110.942 222.587H110.921C110.758 222.722 110.58 222.839 110.389 222.937C110.198 223.035 109.995 223.084 109.78 223.084ZM109.913 222.671C110.09 222.671 110.254 222.631 110.403 222.552C110.557 222.468 110.723 222.349 110.9 222.195V221.201C110.499 221.248 110.181 221.313 109.948 221.397C109.715 221.476 109.547 221.574 109.444 221.691C109.341 221.808 109.29 221.943 109.29 222.097C109.29 222.298 109.351 222.445 109.472 222.538C109.598 222.627 109.745 222.671 109.913 222.671ZM112.517 223V219.605H112.937L112.979 220.109H113C113.149 219.946 113.313 219.808 113.49 219.696C113.672 219.579 113.861 219.521 114.057 219.521C114.323 219.521 114.528 219.582 114.673 219.703C114.822 219.82 114.93 219.978 114.995 220.179C115.177 219.983 115.359 219.824 115.541 219.703C115.728 219.582 115.921 219.521 116.122 219.521C116.472 219.521 116.731 219.633 116.899 219.857C117.067 220.081 117.151 220.41 117.151 220.844V223H116.64V220.907C116.64 220.58 116.586 220.342 116.479 220.193C116.372 220.044 116.204 219.969 115.975 219.969C115.84 219.969 115.697 220.016 115.548 220.109C115.403 220.198 115.249 220.333 115.086 220.515V223H114.575V220.907C114.575 220.58 114.521 220.342 114.414 220.193C114.311 220.044 114.146 219.969 113.917 219.969C113.646 219.969 113.348 220.151 113.021 220.515V223H112.517ZM118.293 223V219.605H118.797V223H118.293ZM118.552 218.877C118.454 218.877 118.37 218.844 118.3 218.779C118.235 218.714 118.202 218.627 118.202 218.52C118.202 218.417 118.235 218.336 118.3 218.275C118.37 218.21 118.454 218.177 118.552 218.177C118.655 218.177 118.739 218.21 118.804 218.275C118.87 218.336 118.902 218.417 118.902 218.52C118.902 218.627 118.87 218.714 118.804 218.779C118.739 218.844 118.655 218.877 118.552 218.877ZM121.333 223.084C121.039 223.084 120.768 223.014 120.521 222.874C120.278 222.729 120.084 222.526 119.94 222.265C119.795 221.999 119.723 221.679 119.723 221.306C119.723 220.937 119.795 220.62 119.94 220.354C120.084 220.088 120.271 219.883 120.5 219.738C120.733 219.593 120.98 219.521 121.242 219.521C121.522 219.521 121.762 219.586 121.963 219.717C122.163 219.848 122.315 220.032 122.418 220.27C122.525 220.503 122.579 220.783 122.579 221.11C122.579 221.166 122.576 221.222 122.572 221.278C122.572 221.329 122.567 221.376 122.558 221.418H120.122L120.115 221.047H122.124C122.124 220.683 122.047 220.408 121.893 220.221C121.739 220.03 121.524 219.934 121.249 219.934C121.081 219.934 120.917 219.983 120.759 220.081C120.6 220.179 120.469 220.328 120.367 220.529C120.264 220.73 120.213 220.989 120.213 221.306C120.213 221.609 120.266 221.861 120.374 222.062C120.481 222.263 120.623 222.414 120.801 222.517C120.983 222.62 121.181 222.671 121.396 222.671C121.568 222.671 121.722 222.645 121.858 222.594C121.998 222.543 122.131 222.477 122.257 222.398L122.446 222.734C122.301 222.827 122.138 222.909 121.956 222.979C121.778 223.049 121.571 223.084 121.333 223.084ZM123.434 223V219.605H123.854L123.896 220.109H123.917C124.08 219.941 124.253 219.801 124.435 219.689C124.622 219.577 124.829 219.521 125.058 219.521C125.417 219.521 125.679 219.633 125.842 219.857C126.01 220.081 126.094 220.41 126.094 220.844V223H125.583V220.907C125.583 220.58 125.529 220.342 125.422 220.193C125.319 220.044 125.149 219.969 124.911 219.969C124.734 219.969 124.573 220.016 124.428 220.109C124.283 220.198 124.12 220.333 123.938 220.515V223H123.434ZM128.264 223.084C127.914 223.084 127.669 222.981 127.529 222.776C127.393 222.571 127.326 222.305 127.326 221.978V220.025H126.815V219.64L127.347 219.605L127.41 218.646H127.837V219.605H128.768V220.025H127.837V221.992C127.837 222.202 127.874 222.368 127.949 222.489C128.028 222.606 128.17 222.664 128.376 222.664C128.436 222.664 128.502 222.655 128.572 222.636C128.646 222.617 128.712 222.596 128.768 222.573L128.873 222.958C128.779 222.991 128.679 223.019 128.572 223.042C128.464 223.07 128.362 223.084 128.264 223.084ZM130.758 223.084C130.483 223.084 130.226 223.014 129.988 222.874C129.75 222.734 129.559 222.533 129.414 222.272C129.269 222.006 129.197 221.684 129.197 221.306C129.197 220.928 129.269 220.606 129.414 220.34C129.559 220.074 129.75 219.871 129.988 219.731C130.226 219.591 130.483 219.521 130.758 219.521C131.033 219.521 131.288 219.591 131.521 219.731C131.759 219.871 131.95 220.074 132.095 220.34C132.244 220.606 132.319 220.928 132.319 221.306C132.319 221.684 132.244 222.006 132.095 222.272C131.95 222.533 131.759 222.734 131.521 222.874C131.288 223.014 131.033 223.084 130.758 223.084ZM130.758 222.657C130.963 222.657 131.143 222.601 131.297 222.489C131.456 222.377 131.577 222.221 131.661 222.02C131.75 221.815 131.794 221.577 131.794 221.306C131.794 221.04 131.75 220.804 131.661 220.599C131.577 220.394 131.456 220.235 131.297 220.123C131.143 220.006 130.963 219.948 130.758 219.948C130.557 219.948 130.378 220.006 130.219 220.123C130.065 220.235 129.944 220.394 129.855 220.599C129.771 220.804 129.729 221.04 129.729 221.306C129.729 221.577 129.771 221.815 129.855 222.02C129.944 222.221 130.065 222.377 130.219 222.489C130.378 222.601 130.557 222.657 130.758 222.657ZM58.595 233.456V228.605H59.015L59.057 229.011H59.078C59.232 228.876 59.4023 228.761 59.589 228.668C59.7803 228.57 59.9763 228.521 60.177 228.521C60.471 228.521 60.7183 228.593 60.919 228.738C61.1197 228.878 61.269 229.079 61.367 229.34C61.4697 229.597 61.521 229.9 61.521 230.25C61.521 230.637 61.451 230.969 61.311 231.244C61.1757 231.515 60.996 231.722 60.772 231.867C60.548 232.012 60.3077 232.084 60.051 232.084C59.897 232.084 59.7383 232.049 59.575 231.979C59.4117 231.909 59.2483 231.811 59.085 231.685L59.099 232.287V233.456H58.595ZM59.967 231.65C60.1677 231.65 60.345 231.594 60.499 231.482C60.653 231.37 60.7743 231.209 60.863 230.999C60.9517 230.789 60.996 230.542 60.996 230.257C60.996 230 60.9633 229.774 60.898 229.578C60.8373 229.382 60.737 229.23 60.597 229.123C60.4617 229.011 60.282 228.955 60.058 228.955C59.9087 228.955 59.7547 228.997 59.596 229.081C59.442 229.16 59.2763 229.282 59.099 229.445V231.279C59.267 231.414 59.4257 231.51 59.575 231.566C59.7243 231.622 59.855 231.65 59.967 231.65ZM63.7523 232.084C63.477 232.084 63.2203 232.014 62.9823 231.874C62.7443 231.734 62.553 231.533 62.4083 231.272C62.2636 231.006 62.1913 230.684 62.1913 230.306C62.1913 229.928 62.2636 229.606 62.4083 229.34C62.553 229.074 62.7443 228.871 62.9823 228.731C63.2203 228.591 63.477 228.521 63.7523 228.521C64.0276 228.521 64.282 228.591 64.5153 228.731C64.7533 228.871 64.9446 229.074 65.0893 229.34C65.2386 229.606 65.3133 229.928 65.3133 230.306C65.3133 230.684 65.2386 231.006 65.0893 231.272C64.9446 231.533 64.7533 231.734 64.5153 231.874C64.282 232.014 64.0276 232.084 63.7523 232.084ZM63.7523 231.657C63.9576 231.657 64.1373 231.601 64.2913 231.489C64.45 231.377 64.5713 231.221 64.6553 231.02C64.744 230.815 64.7883 230.577 64.7883 230.306C64.7883 230.04 64.744 229.804 64.6553 229.599C64.5713 229.394 64.45 229.235 64.2913 229.123C64.1373 229.006 63.9576 228.948 63.7523 228.948C63.5516 228.948 63.372 229.006 63.2133 229.123C63.0593 229.235 62.938 229.394 62.8493 229.599C62.7653 229.804 62.7233 230.04 62.7233 230.306C62.7233 230.577 62.7653 230.815 62.8493 231.02C62.938 231.221 63.0593 231.377 63.2133 231.489C63.372 231.601 63.5516 231.657 63.7523 231.657ZM67.1572 232.084C66.8072 232.084 66.5622 231.981 66.4222 231.776C66.2869 231.571 66.2192 231.305 66.2192 230.978V229.025H65.7082V228.64L66.2402 228.605L66.3032 227.646H66.7302V228.605H67.6612V229.025H66.7302V230.992C66.7302 231.202 66.7675 231.368 66.8422 231.489C66.9215 231.606 67.0639 231.664 67.2692 231.664C67.3299 231.664 67.3952 231.655 67.4652 231.636C67.5399 231.617 67.6052 231.596 67.6612 231.573L67.7662 231.958C67.6729 231.991 67.5725 232.019 67.4652 232.042C67.3579 232.07 67.2552 232.084 67.1572 232.084ZM69.7007 232.084C69.4067 232.084 69.1361 232.014 68.8887 231.874C68.6461 231.729 68.4524 231.526 68.3077 231.265C68.1631 230.999 68.0907 230.679 68.0907 230.306C68.0907 229.937 68.1631 229.62 68.3077 229.354C68.4524 229.088 68.6391 228.883 68.8677 228.738C69.1011 228.593 69.3484 228.521 69.6097 228.521C69.8897 228.521 70.1301 228.586 70.3307 228.717C70.5314 228.848 70.6831 229.032 70.7857 229.27C70.8931 229.503 70.9467 229.783 70.9467 230.11C70.9467 230.166 70.9444 230.222 70.9397 230.278C70.9397 230.329 70.9351 230.376 70.9257 230.418H68.4897L68.4827 230.047H70.4917C70.4917 229.683 70.4147 229.408 70.2607 229.221C70.1067 229.03 69.8921 228.934 69.6167 228.934C69.4487 228.934 69.2854 228.983 69.1267 229.081C68.9681 229.179 68.8374 229.328 68.7347 229.529C68.6321 229.73 68.5807 229.989 68.5807 230.306C68.5807 230.609 68.6344 230.861 68.7417 231.062C68.8491 231.263 68.9914 231.414 69.1687 231.517C69.3507 231.62 69.5491 231.671 69.7637 231.671C69.9364 231.671 70.0904 231.645 70.2257 231.594C70.3657 231.543 70.4987 231.477 70.6247 231.398L70.8137 231.734C70.6691 231.827 70.5057 231.909 70.3237 231.979C70.1464 232.049 69.9387 232.084 69.7007 232.084ZM71.802 232V228.605H72.222L72.264 229.109H72.285C72.4484 228.941 72.621 228.801 72.803 228.689C72.9897 228.577 73.1974 228.521 73.426 228.521C73.7854 228.521 74.0467 228.633 74.21 228.857C74.378 229.081 74.462 229.41 74.462 229.844V232H73.951V229.907C73.951 229.58 73.8974 229.342 73.79 229.193C73.6874 229.044 73.517 228.969 73.279 228.969C73.1017 228.969 72.9407 229.016 72.796 229.109C72.6514 229.198 72.488 229.333 72.306 229.515V232H71.802ZM76.9188 232.084C76.6201 232.084 76.3518 232.014 76.1138 231.874C75.8758 231.734 75.6868 231.533 75.5468 231.272C75.4068 231.006 75.3368 230.684 75.3368 230.306C75.3368 229.928 75.4115 229.606 75.5608 229.34C75.7148 229.074 75.9131 228.871 76.1558 228.731C76.3985 228.591 76.6645 228.521 76.9538 228.521C77.1778 228.521 77.3691 228.563 77.5278 228.647C77.6865 228.726 77.8241 228.82 77.9408 228.927L77.6748 229.263C77.5768 229.17 77.4695 229.095 77.3528 229.039C77.2408 228.978 77.1148 228.948 76.9748 228.948C76.7601 228.948 76.5688 229.006 76.4008 229.123C76.2375 229.235 76.1068 229.394 76.0088 229.599C75.9155 229.804 75.8688 230.04 75.8688 230.306C75.8688 230.577 75.9131 230.815 76.0018 231.02C76.0951 231.221 76.2235 231.377 76.3868 231.489C76.5501 231.601 76.7415 231.657 76.9608 231.657C77.1241 231.657 77.2758 231.622 77.4158 231.552C77.5558 231.482 77.6795 231.4 77.7868 231.307L78.0108 231.65C77.8615 231.785 77.6935 231.893 77.5068 231.972C77.3201 232.047 77.1241 232.084 76.9188 232.084ZM78.7815 232V228.605H79.2855V232H78.7815ZM79.0405 227.877C78.9425 227.877 78.8585 227.844 78.7885 227.779C78.7232 227.714 78.6905 227.627 78.6905 227.52C78.6905 227.417 78.7232 227.336 78.7885 227.275C78.8585 227.21 78.9425 227.177 79.0405 227.177C79.1432 227.177 79.2272 227.21 79.2925 227.275C79.3579 227.336 79.3905 227.417 79.3905 227.52C79.3905 227.627 79.3579 227.714 79.2925 227.779C79.2272 227.844 79.1432 227.877 79.0405 227.877ZM81.2468 232.084C81.0602 232.084 80.8922 232.047 80.7428 231.972C80.5935 231.897 80.4745 231.79 80.3858 231.65C80.2972 231.505 80.2528 231.33 80.2528 231.125C80.2528 230.756 80.4208 230.474 80.7568 230.278C81.0975 230.077 81.6342 229.937 82.3668 229.858C82.3668 229.704 82.3458 229.557 82.3038 229.417C82.2665 229.277 82.1942 229.165 82.0868 229.081C81.9842 228.992 81.8348 228.948 81.6388 228.948C81.4335 228.948 81.2422 228.988 81.0648 229.067C80.8922 229.146 80.7405 229.23 80.6098 229.319L80.4068 228.969C80.5048 228.904 80.6215 228.836 80.7568 228.766C80.8922 228.696 81.0415 228.638 81.2048 228.591C81.3682 228.544 81.5408 228.521 81.7228 228.521C81.9982 228.521 82.2198 228.579 82.3878 228.696C82.5558 228.813 82.6772 228.974 82.7518 229.179C82.8312 229.384 82.8708 229.625 82.8708 229.9V232H82.4508L82.4088 231.587H82.3878C82.2245 231.722 82.0472 231.839 81.8558 231.937C81.6645 232.035 81.4615 232.084 81.2468 232.084ZM81.3798 231.671C81.5572 231.671 81.7205 231.631 81.8698 231.552C82.0238 231.468 82.1895 231.349 82.3668 231.195V230.201C81.9655 230.248 81.6482 230.313 81.4148 230.397C81.1815 230.476 81.0135 230.574 80.9108 230.691C80.8082 230.808 80.7568 230.943 80.7568 231.097C80.7568 231.298 80.8175 231.445 80.9388 231.538C81.0648 231.627 81.2118 231.671 81.3798 231.671ZM85.1247 232.084C84.7 232.084 84.3617 231.93 84.1097 231.622C83.8577 231.309 83.7317 230.871 83.7317 230.306C83.7317 229.942 83.7993 229.627 83.9347 229.361C84.0747 229.095 84.2567 228.89 84.4807 228.745C84.7047 228.596 84.9473 228.521 85.2087 228.521C85.4093 228.521 85.582 228.556 85.7267 228.626C85.8713 228.696 86.0207 228.794 86.1747 228.92L86.1537 228.332V227.002H86.6577V232H86.2377L86.1957 231.587H86.1747C86.044 231.722 85.8877 231.839 85.7057 231.937C85.5283 232.035 85.3347 232.084 85.1247 232.084ZM85.2367 231.65C85.4 231.65 85.5563 231.61 85.7057 231.531C85.855 231.447 86.0043 231.326 86.1537 231.167V229.326C85.9997 229.191 85.8527 229.095 85.7127 229.039C85.5727 228.983 85.4303 228.955 85.2857 228.955C85.0943 228.955 84.9193 229.013 84.7607 229.13C84.6067 229.242 84.483 229.401 84.3897 229.606C84.301 229.807 84.2567 230.04 84.2567 230.306C84.2567 230.721 84.3407 231.05 84.5087 231.293C84.6813 231.531 84.924 231.65 85.2367 231.65ZM89.141 232.084C88.8656 232.084 88.609 232.014 88.371 231.874C88.133 231.734 87.9416 231.533 87.797 231.272C87.6523 231.006 87.58 230.684 87.58 230.306C87.58 229.928 87.6523 229.606 87.797 229.34C87.9416 229.074 88.133 228.871 88.371 228.731C88.609 228.591 88.8656 228.521 89.141 228.521C89.4163 228.521 89.6706 228.591 89.904 228.731C90.142 228.871 90.3333 229.074 90.478 229.34C90.6273 229.606 90.702 229.928 90.702 230.306C90.702 230.684 90.6273 231.006 90.478 231.272C90.3333 231.533 90.142 231.734 89.904 231.874C89.6706 232.014 89.4163 232.084 89.141 232.084ZM89.141 231.657C89.3463 231.657 89.526 231.601 89.68 231.489C89.8386 231.377 89.96 231.221 90.044 231.02C90.1326 230.815 90.177 230.577 90.177 230.306C90.177 230.04 90.1326 229.804 90.044 229.599C89.96 229.394 89.8386 229.235 89.68 229.123C89.526 229.006 89.3463 228.948 89.141 228.948C88.9403 228.948 88.7606 229.006 88.602 229.123C88.448 229.235 88.3266 229.394 88.238 229.599C88.154 229.804 88.112 230.04 88.112 230.306C88.112 230.577 88.154 230.815 88.238 231.02C88.3266 231.221 88.448 231.377 88.602 231.489C88.7606 231.601 88.9403 231.657 89.141 231.657ZM93.0276 233.456V228.605H93.4476L93.4896 229.011H93.5106C93.6646 228.876 93.835 228.761 94.0216 228.668C94.213 228.57 94.409 228.521 94.6096 228.521C94.9036 228.521 95.151 228.593 95.3516 228.738C95.5523 228.878 95.7016 229.079 95.7996 229.34C95.9023 229.597 95.9536 229.9 95.9536 230.25C95.9536 230.637 95.8836 230.969 95.7436 231.244C95.6083 231.515 95.4286 231.722 95.2046 231.867C94.9806 232.012 94.7403 232.084 94.4836 232.084C94.3296 232.084 94.171 232.049 94.0076 231.979C93.8443 231.909 93.681 231.811 93.5176 231.685L93.5316 232.287V233.456H93.0276ZM94.3996 231.65C94.6003 231.65 94.7776 231.594 94.9316 231.482C95.0856 231.37 95.207 231.209 95.2956 230.999C95.3843 230.789 95.4286 230.542 95.4286 230.257C95.4286 230 95.396 229.774 95.3306 229.578C95.27 229.382 95.1696 229.23 95.0296 229.123C94.8943 229.011 94.7146 228.955 94.4906 228.955C94.3413 228.955 94.1873 228.997 94.0286 229.081C93.8746 229.16 93.709 229.282 93.5316 229.445V231.279C93.6996 231.414 93.8583 231.51 94.0076 231.566C94.157 231.622 94.2876 231.65 94.3996 231.65ZM98.1849 232.084C97.9096 232.084 97.6529 232.014 97.4149 231.874C97.1769 231.734 96.9856 231.533 96.8409 231.272C96.6963 231.006 96.6239 230.684 96.6239 230.306C96.6239 229.928 96.6963 229.606 96.8409 229.34C96.9856 229.074 97.1769 228.871 97.4149 228.731C97.6529 228.591 97.9096 228.521 98.1849 228.521C98.4603 228.521 98.7146 228.591 98.9479 228.731C99.1859 228.871 99.3773 229.074 99.5219 229.34C99.6713 229.606 99.7459 229.928 99.7459 230.306C99.7459 230.684 99.6713 231.006 99.5219 231.272C99.3773 231.533 99.1859 231.734 98.9479 231.874C98.7146 232.014 98.4603 232.084 98.1849 232.084ZM98.1849 231.657C98.3903 231.657 98.5699 231.601 98.7239 231.489C98.8826 231.377 99.0039 231.221 99.0879 231.02C99.1766 230.815 99.2209 230.577 99.2209 230.306C99.2209 230.04 99.1766 229.804 99.0879 229.599C99.0039 229.394 98.8826 229.235 98.7239 229.123C98.5699 229.006 98.3903 228.948 98.1849 228.948C97.9843 228.948 97.8046 229.006 97.6459 229.123C97.4919 229.235 97.3706 229.394 97.2819 229.599C97.1979 229.804 97.1559 230.04 97.1559 230.306C97.1559 230.577 97.1979 230.815 97.2819 231.02C97.3706 231.221 97.4919 231.377 97.6459 231.489C97.8046 231.601 97.9843 231.657 98.1849 231.657ZM100.67 232V228.605H101.09L101.132 229.228H101.153C101.27 229.013 101.41 228.843 101.573 228.717C101.741 228.586 101.923 228.521 102.119 228.521C102.189 228.521 102.252 228.528 102.308 228.542C102.364 228.551 102.418 228.568 102.469 228.591L102.371 229.039C102.315 229.02 102.264 229.006 102.217 228.997C102.175 228.988 102.119 228.983 102.049 228.983C101.905 228.983 101.753 229.044 101.594 229.165C101.436 229.282 101.296 229.489 101.174 229.788V232H100.67ZM105.5 232.084C105.262 232.084 105.052 232.054 104.87 231.993C104.688 231.932 104.53 231.855 104.394 231.762C104.259 231.664 104.142 231.561 104.044 231.454L104.303 231.118C104.439 231.258 104.597 231.384 104.779 231.496C104.966 231.603 105.197 231.657 105.472 231.657C105.752 231.657 105.981 231.58 106.158 231.426C106.34 231.267 106.431 231.057 106.431 230.796C106.431 230.614 106.382 230.453 106.284 230.313C106.191 230.173 106.037 230.066 105.822 229.991C105.612 229.912 105.328 229.872 104.968 229.872V229.473C105.29 229.473 105.545 229.436 105.731 229.361C105.923 229.282 106.06 229.177 106.144 229.046C106.228 228.915 106.27 228.768 106.27 228.605C106.27 228.381 106.198 228.204 106.053 228.073C105.909 227.938 105.713 227.87 105.465 227.87C105.274 227.87 105.097 227.914 104.933 228.003C104.77 228.087 104.623 228.197 104.492 228.332L104.212 228.003C104.385 227.844 104.574 227.714 104.779 227.611C104.985 227.504 105.218 227.45 105.479 227.45C105.731 227.45 105.955 227.494 106.151 227.583C106.347 227.672 106.501 227.8 106.613 227.968C106.73 228.131 106.788 228.332 106.788 228.57C106.788 228.845 106.711 229.072 106.557 229.249C106.408 229.422 106.21 229.552 105.962 229.641V229.669C106.144 229.711 106.31 229.783 106.459 229.886C106.609 229.984 106.728 230.112 106.816 230.271C106.905 230.425 106.949 230.605 106.949 230.81C106.949 231.076 106.884 231.305 106.753 231.496C106.623 231.683 106.448 231.827 106.228 231.93C106.009 232.033 105.766 232.084 105.5 232.084ZM108.946 232.084C108.708 232.084 108.498 232.054 108.316 231.993C108.134 231.932 107.975 231.855 107.84 231.762C107.704 231.664 107.588 231.561 107.49 231.454L107.749 231.118C107.884 231.258 108.043 231.384 108.225 231.496C108.411 231.603 108.642 231.657 108.918 231.657C109.198 231.657 109.426 231.58 109.604 231.426C109.786 231.267 109.877 231.057 109.877 230.796C109.877 230.614 109.828 230.453 109.73 230.313C109.636 230.173 109.482 230.066 109.268 229.991C109.058 229.912 108.773 229.872 108.414 229.872V229.473C108.736 229.473 108.99 229.436 109.177 229.361C109.368 229.282 109.506 229.177 109.59 229.046C109.674 228.915 109.716 228.768 109.716 228.605C109.716 228.381 109.643 228.204 109.499 228.073C109.354 227.938 109.158 227.87 108.911 227.87C108.719 227.87 108.542 227.914 108.379 228.003C108.215 228.087 108.068 228.197 107.938 228.332L107.658 228.003C107.83 227.844 108.019 227.714 108.225 227.611C108.43 227.504 108.663 227.45 108.925 227.45C109.177 227.45 109.401 227.494 109.597 227.583C109.793 227.672 109.947 227.8 110.059 227.968C110.175 228.131 110.234 228.332 110.234 228.57C110.234 228.845 110.157 229.072 110.003 229.249C109.853 229.422 109.655 229.552 109.408 229.641V229.669C109.59 229.711 109.755 229.783 109.905 229.886C110.054 229.984 110.173 230.112 110.262 230.271C110.35 230.425 110.395 230.605 110.395 230.81C110.395 231.076 110.329 231.305 110.199 231.496C110.068 231.683 109.893 231.827 109.674 231.93C109.454 232.033 109.212 232.084 108.946 232.084ZM112.742 232V228.605H113.162L113.204 229.109H113.225C113.375 228.946 113.538 228.808 113.715 228.696C113.897 228.579 114.086 228.521 114.282 228.521C114.548 228.521 114.754 228.582 114.898 228.703C115.048 228.82 115.155 228.978 115.22 229.179C115.402 228.983 115.584 228.824 115.766 228.703C115.953 228.582 116.147 228.521 116.347 228.521C116.697 228.521 116.956 228.633 117.124 228.857C117.292 229.081 117.376 229.41 117.376 229.844V232H116.865V229.907C116.865 229.58 116.812 229.342 116.704 229.193C116.597 229.044 116.429 228.969 116.2 228.969C116.065 228.969 115.923 229.016 115.773 229.109C115.629 229.198 115.475 229.333 115.311 229.515V232H114.8V229.907C114.8 229.58 114.747 229.342 114.639 229.193C114.537 229.044 114.371 228.969 114.142 228.969C113.872 228.969 113.573 229.151 113.246 229.515V232H112.742ZM119.814 232.084C119.538 232.084 119.282 232.014 119.044 231.874C118.806 231.734 118.614 231.533 118.47 231.272C118.325 231.006 118.253 230.684 118.253 230.306C118.253 229.928 118.325 229.606 118.47 229.34C118.614 229.074 118.806 228.871 119.044 228.731C119.282 228.591 119.538 228.521 119.814 228.521C120.089 228.521 120.343 228.591 120.577 228.731C120.815 228.871 121.006 229.074 121.151 229.34C121.3 229.606 121.375 229.928 121.375 230.306C121.375 230.684 121.3 231.006 121.151 231.272C121.006 231.533 120.815 231.734 120.577 231.874C120.343 232.014 120.089 232.084 119.814 232.084ZM119.814 231.657C120.019 231.657 120.199 231.601 120.353 231.489C120.511 231.377 120.633 231.221 120.717 231.02C120.805 230.815 120.85 230.577 120.85 230.306C120.85 230.04 120.805 229.804 120.717 229.599C120.633 229.394 120.511 229.235 120.353 229.123C120.199 229.006 120.019 228.948 119.814 228.948C119.613 228.948 119.433 229.006 119.275 229.123C119.121 229.235 118.999 229.394 118.911 229.599C118.827 229.804 118.785 230.04 118.785 230.306C118.785 230.577 118.827 230.815 118.911 231.02C118.999 231.221 119.121 231.377 119.275 231.489C119.433 231.601 119.613 231.657 119.814 231.657ZM123.219 232.084C122.869 232.084 122.624 231.981 122.484 231.776C122.348 231.571 122.281 231.305 122.281 230.978V229.025H121.77V228.64L122.302 228.605L122.365 227.646H122.792V228.605H123.723V229.025H122.792V230.992C122.792 231.202 122.829 231.368 122.904 231.489C122.983 231.606 123.125 231.664 123.331 231.664C123.391 231.664 123.457 231.655 123.527 231.636C123.601 231.617 123.667 231.596 123.723 231.573L123.828 231.958C123.734 231.991 123.634 232.019 123.527 232.042C123.419 232.07 123.317 232.084 123.219 232.084ZM125.713 232.084C125.438 232.084 125.181 232.014 124.943 231.874C124.705 231.734 124.514 231.533 124.369 231.272C124.225 231.006 124.152 230.684 124.152 230.306C124.152 229.928 124.225 229.606 124.369 229.34C124.514 229.074 124.705 228.871 124.943 228.731C125.181 228.591 125.438 228.521 125.713 228.521C125.989 228.521 126.243 228.591 126.476 228.731C126.714 228.871 126.906 229.074 127.05 229.34C127.2 229.606 127.274 229.928 127.274 230.306C127.274 230.684 127.2 231.006 127.05 231.272C126.906 231.533 126.714 231.734 126.476 231.874C126.243 232.014 125.989 232.084 125.713 232.084ZM125.713 231.657C125.919 231.657 126.098 231.601 126.252 231.489C126.411 231.377 126.532 231.221 126.616 231.02C126.705 230.815 126.749 230.577 126.749 230.306C126.749 230.04 126.705 229.804 126.616 229.599C126.532 229.394 126.411 229.235 126.252 229.123C126.098 229.006 125.919 228.948 125.713 228.948C125.513 228.948 125.333 229.006 125.174 229.123C125.02 229.235 124.899 229.394 124.81 229.599C124.726 229.804 124.684 230.04 124.684 230.306C124.684 230.577 124.726 230.815 124.81 231.02C124.899 231.221 125.02 231.377 125.174 231.489C125.333 231.601 125.513 231.657 125.713 231.657ZM128.199 232V228.605H128.619L128.661 229.228H128.682C128.798 229.013 128.938 228.843 129.102 228.717C129.27 228.586 129.452 228.521 129.648 228.521C129.718 228.521 129.781 228.528 129.837 228.542C129.893 228.551 129.946 228.568 129.998 228.591L129.9 229.039C129.844 229.02 129.792 229.006 129.746 228.997C129.704 228.988 129.648 228.983 129.578 228.983C129.433 228.983 129.281 229.044 129.123 229.165C128.964 229.282 128.824 229.489 128.703 229.788V232H128.199ZM131.853 232.084C131.559 232.084 131.288 232.014 131.041 231.874C130.798 231.729 130.605 231.526 130.46 231.265C130.315 230.999 130.243 230.679 130.243 230.306C130.243 229.937 130.315 229.62 130.46 229.354C130.605 229.088 130.791 228.883 131.02 228.738C131.253 228.593 131.501 228.521 131.762 228.521C132.042 228.521 132.282 228.586 132.483 228.717C132.684 228.848 132.835 229.032 132.938 229.27C133.045 229.503 133.099 229.783 133.099 230.11C133.099 230.166 133.097 230.222 133.092 230.278C133.092 230.329 133.087 230.376 133.078 230.418H130.642L130.635 230.047H132.644C132.644 229.683 132.567 229.408 132.413 229.221C132.259 229.03 132.044 228.934 131.769 228.934C131.601 228.934 131.438 228.983 131.279 229.081C131.12 229.179 130.99 229.328 130.887 229.529C130.784 229.73 130.733 229.989 130.733 230.306C130.733 230.609 130.787 230.861 130.894 231.062C131.001 231.263 131.144 231.414 131.321 231.517C131.503 231.62 131.701 231.671 131.916 231.671C132.089 231.671 132.243 231.645 132.378 231.594C132.518 231.543 132.651 231.477 132.777 231.398L132.966 231.734C132.821 231.827 132.658 231.909 132.476 231.979C132.299 232.049 132.091 232.084 131.853 232.084ZM134.822 232.084C134.58 232.084 134.349 232.04 134.129 231.951C133.91 231.858 133.721 231.746 133.562 231.615L133.821 231.272C133.971 231.389 134.125 231.487 134.283 231.566C134.442 231.645 134.629 231.685 134.843 231.685C135.077 231.685 135.252 231.629 135.368 231.517C135.485 231.405 135.543 231.272 135.543 231.118C135.543 230.997 135.504 230.896 135.424 230.817C135.345 230.733 135.245 230.663 135.123 230.607C135.002 230.546 134.878 230.493 134.752 230.446C134.594 230.39 134.435 230.322 134.276 230.243C134.118 230.164 133.985 230.063 133.877 229.942C133.775 229.821 133.723 229.664 133.723 229.473C133.723 229.207 133.824 228.983 134.024 228.801C134.23 228.614 134.514 228.521 134.878 228.521C135.084 228.521 135.275 228.558 135.452 228.633C135.63 228.708 135.781 228.796 135.907 228.899L135.662 229.228C135.546 229.144 135.424 229.074 135.298 229.018C135.177 228.957 135.037 228.927 134.878 228.927C134.654 228.927 134.489 228.981 134.381 229.088C134.274 229.191 134.22 229.31 134.22 229.445C134.22 229.557 134.255 229.65 134.325 229.725C134.4 229.795 134.496 229.856 134.612 229.907C134.729 229.958 134.853 230.01 134.983 230.061C135.151 230.122 135.315 230.192 135.473 230.271C135.637 230.346 135.772 230.446 135.879 230.572C135.987 230.698 136.04 230.871 136.04 231.09C136.04 231.267 135.994 231.433 135.9 231.587C135.807 231.736 135.669 231.858 135.487 231.951C135.305 232.04 135.084 232.084 134.822 232.084ZM138.317 232V227.401H139.724C140.032 227.401 140.305 227.443 140.543 227.527C140.781 227.606 140.968 227.739 141.103 227.926C141.238 228.113 141.306 228.362 141.306 228.675C141.306 228.974 141.238 229.223 141.103 229.424C140.968 229.62 140.781 229.767 140.543 229.865C140.305 229.963 140.032 230.012 139.724 230.012H138.835V232H138.317ZM140.844 232L139.619 229.872L140.039 229.62L141.432 232H140.844ZM138.835 229.592H139.64C140.009 229.592 140.291 229.517 140.487 229.368C140.688 229.214 140.788 228.983 140.788 228.675C140.788 228.362 140.688 228.143 140.487 228.017C140.291 227.886 140.009 227.821 139.64 227.821H138.835V229.592ZM142.962 232.084C142.775 232.084 142.607 232.047 142.458 231.972C142.308 231.897 142.189 231.79 142.101 231.65C142.012 231.505 141.968 231.33 141.968 231.125C141.968 230.756 142.136 230.474 142.472 230.278C142.812 230.077 143.349 229.937 144.082 229.858C144.082 229.704 144.061 229.557 144.019 229.417C143.981 229.277 143.909 229.165 143.802 229.081C143.699 228.992 143.55 228.948 143.354 228.948C143.148 228.948 142.957 228.988 142.78 229.067C142.607 229.146 142.455 229.23 142.325 229.319L142.122 228.969C142.22 228.904 142.336 228.836 142.472 228.766C142.607 228.696 142.756 228.638 142.92 228.591C143.083 228.544 143.256 228.521 143.438 228.521C143.713 228.521 143.935 228.579 144.103 228.696C144.271 228.813 144.392 228.974 144.467 229.179C144.546 229.384 144.586 229.625 144.586 229.9V232H144.166L144.124 231.587H144.103C143.939 231.722 143.762 231.839 143.571 231.937C143.379 232.035 143.176 232.084 142.962 232.084ZM143.095 231.671C143.272 231.671 143.435 231.631 143.585 231.552C143.739 231.468 143.904 231.349 144.082 231.195V230.201C143.68 230.248 143.363 230.313 143.13 230.397C142.896 230.476 142.728 230.574 142.626 230.691C142.523 230.808 142.472 230.943 142.472 231.097C142.472 231.298 142.532 231.445 142.654 231.538C142.78 231.627 142.927 231.671 143.095 231.671ZM145.699 233.456V228.605H146.119L146.161 229.011H146.182C146.336 228.876 146.506 228.761 146.693 228.668C146.884 228.57 147.08 228.521 147.281 228.521C147.575 228.521 147.822 228.593 148.023 228.738C148.223 228.878 148.373 229.079 148.471 229.34C148.573 229.597 148.625 229.9 148.625 230.25C148.625 230.637 148.555 230.969 148.415 231.244C148.279 231.515 148.1 231.722 147.876 231.867C147.652 232.012 147.411 232.084 147.155 232.084C147.001 232.084 146.842 232.049 146.679 231.979C146.515 231.909 146.352 231.811 146.189 231.685L146.203 232.287V233.456H145.699ZM147.071 231.65C147.271 231.65 147.449 231.594 147.603 231.482C147.757 231.37 147.878 231.209 147.967 230.999C148.055 230.789 148.1 230.542 148.1 230.257C148.1 230 148.067 229.774 148.002 229.578C147.941 229.382 147.841 229.23 147.701 229.123C147.565 229.011 147.386 228.955 147.162 228.955C147.012 228.955 146.858 228.997 146.7 229.081C146.546 229.16 146.38 229.282 146.203 229.445V231.279C146.371 231.414 146.529 231.51 146.679 231.566C146.828 231.622 146.959 231.65 147.071 231.65ZM150.48 232.084C150.13 232.084 149.885 231.981 149.745 231.776C149.61 231.571 149.542 231.305 149.542 230.978V229.025H149.031V228.64L149.563 228.605L149.626 227.646H150.053V228.605H150.984V229.025H150.053V230.992C150.053 231.202 150.091 231.368 150.165 231.489C150.245 231.606 150.387 231.664 150.592 231.664C150.653 231.664 150.718 231.655 150.788 231.636C150.863 231.617 150.928 231.596 150.984 231.573L151.089 231.958C150.996 231.991 150.896 232.019 150.788 232.042C150.681 232.07 150.578 232.084 150.48 232.084ZM152.975 232.084C152.7 232.084 152.443 232.014 152.205 231.874C151.967 231.734 151.776 231.533 151.631 231.272C151.486 231.006 151.414 230.684 151.414 230.306C151.414 229.928 151.486 229.606 151.631 229.34C151.776 229.074 151.967 228.871 152.205 228.731C152.443 228.591 152.7 228.521 152.975 228.521C153.25 228.521 153.505 228.591 153.738 228.731C153.976 228.871 154.167 229.074 154.312 229.34C154.461 229.606 154.536 229.928 154.536 230.306C154.536 230.684 154.461 231.006 154.312 231.272C154.167 231.533 153.976 231.734 153.738 231.874C153.505 232.014 153.25 232.084 152.975 232.084ZM152.975 231.657C153.18 231.657 153.36 231.601 153.514 231.489C153.673 231.377 153.794 231.221 153.878 231.02C153.967 230.815 154.011 230.577 154.011 230.306C154.011 230.04 153.967 229.804 153.878 229.599C153.794 229.394 153.673 229.235 153.514 229.123C153.36 229.006 153.18 228.948 152.975 228.948C152.774 228.948 152.595 229.006 152.436 229.123C152.282 229.235 152.161 229.394 152.072 229.599C151.988 229.804 151.946 230.04 151.946 230.306C151.946 230.577 151.988 230.815 152.072 231.02C152.161 231.221 152.282 231.377 152.436 231.489C152.595 231.601 152.774 231.657 152.975 231.657ZM155.46 232V228.605H155.88L155.922 229.228H155.943C156.06 229.013 156.2 228.843 156.363 228.717C156.531 228.586 156.713 228.521 156.909 228.521C156.979 228.521 157.042 228.528 157.098 228.542C157.154 228.551 157.208 228.568 157.259 228.591L157.161 229.039C157.105 229.02 157.054 229.006 157.007 228.997C156.965 228.988 156.909 228.983 156.839 228.983C156.695 228.983 156.543 229.044 156.384 229.165C156.226 229.282 156.086 229.489 155.964 229.788V232H155.46Z" fill="white"/>
<path d="M59.981 210.132C59.475 210.132 59.0093 210.033 58.584 209.835C58.1587 209.637 57.7883 209.377 57.473 209.054L57.968 208.493C58.232 208.772 58.5363 208.995 58.881 209.164C59.233 209.333 59.6033 209.417 59.992 209.417C60.4907 209.417 60.8793 209.303 61.158 209.076C61.4367 208.841 61.576 208.537 61.576 208.163C61.576 207.906 61.521 207.701 61.411 207.547C61.301 207.386 61.1543 207.254 60.971 207.151C60.7877 207.041 60.5787 206.935 60.344 206.832L59.299 206.37C59.079 206.275 58.8553 206.15 58.628 205.996C58.4007 205.842 58.21 205.648 58.056 205.413C57.9093 205.178 57.836 204.881 57.836 204.522C57.836 204.163 57.9313 203.844 58.122 203.565C58.3127 203.279 58.5767 203.055 58.914 202.894C59.2513 202.725 59.6327 202.641 60.058 202.641C60.4907 202.641 60.8867 202.725 61.246 202.894C61.6127 203.063 61.917 203.275 62.159 203.532L61.719 204.06C61.5063 203.84 61.2607 203.668 60.982 203.543C60.7107 203.418 60.4027 203.356 60.058 203.356C59.64 203.356 59.299 203.459 59.035 203.664C58.7783 203.862 58.65 204.133 58.65 204.478C58.65 204.72 58.7123 204.918 58.837 205.072C58.9617 205.226 59.1157 205.354 59.299 205.457C59.4897 205.552 59.6767 205.64 59.86 205.721L60.905 206.183C61.191 206.3 61.444 206.44 61.664 206.601C61.884 206.762 62.06 206.964 62.192 207.206C62.3313 207.448 62.401 207.749 62.401 208.108C62.401 208.482 62.302 208.823 62.104 209.131C61.9133 209.439 61.6347 209.685 61.268 209.868C60.9087 210.044 60.4797 210.132 59.981 210.132ZM66.364 210.132C66.012 210.132 65.6783 210.081 65.363 209.978C65.055 209.868 64.7837 209.696 64.549 209.461C64.3217 209.226 64.142 208.915 64.01 208.526C63.878 208.13 63.812 207.646 63.812 207.074V202.773H64.626V207.074C64.626 207.668 64.703 208.137 64.857 208.482C65.0183 208.819 65.2273 209.061 65.484 209.208C65.748 209.347 66.0413 209.417 66.364 209.417C66.694 209.417 66.991 209.347 67.255 209.208C67.5263 209.061 67.7427 208.819 67.904 208.482C68.0653 208.137 68.146 207.668 68.146 207.074V202.773H68.927V207.074C68.927 207.646 68.8573 208.13 68.718 208.526C68.586 208.915 68.4027 209.226 68.168 209.461C67.9407 209.696 67.673 209.868 67.365 209.978C67.057 210.081 66.7233 210.132 66.364 210.132ZM70.9134 210V202.773H72.9154C73.4507 202.773 73.92 202.843 74.3234 202.982C74.7267 203.114 75.0384 203.334 75.2584 203.642C75.4857 203.943 75.5994 204.353 75.5994 204.874C75.5994 205.373 75.4894 205.783 75.2694 206.106C75.0494 206.429 74.7414 206.671 74.3454 206.832C73.9494 206.993 73.4874 207.074 72.9594 207.074H71.7274V210H70.9134ZM71.7274 206.403H72.8384C73.4984 206.403 73.986 206.282 74.3014 206.04C74.624 205.791 74.7854 205.402 74.7854 204.874C74.7854 204.331 74.6167 203.957 74.2794 203.752C73.9494 203.539 73.4544 203.433 72.7944 203.433H71.7274V206.403ZM77.0901 210V202.773H81.1931V203.466H77.9041V205.853H80.6761V206.535H77.9041V209.307H81.3031V210H77.0901ZM82.8587 210V202.773H85.0697C85.5537 202.773 85.9827 202.839 86.3567 202.971C86.7307 203.096 87.024 203.305 87.2367 203.598C87.4493 203.891 87.5557 204.284 87.5557 204.775C87.5557 205.244 87.4493 205.637 87.2367 205.952C87.024 206.26 86.7307 206.491 86.3567 206.645C85.9827 206.799 85.5537 206.876 85.0697 206.876H83.6727V210H82.8587ZM86.8297 210L84.9047 206.656L85.5647 206.26L87.7537 210H86.8297ZM83.6727 206.216H84.9377C85.517 206.216 85.9607 206.099 86.2687 205.864C86.584 205.622 86.7417 205.259 86.7417 204.775C86.7417 204.284 86.584 203.939 86.2687 203.741C85.9607 203.536 85.517 203.433 84.9377 203.433H83.6727V206.216ZM89.0569 210V202.773H89.8709V205.831H93.3579V202.773H94.1719V210H93.3579V206.546H89.8709V210H89.0569ZM96.1897 210V202.773H100.293V203.466H97.0037V205.853H99.7757V206.535H97.0037V209.307H100.403V210H96.1897ZM100.99 210L103.465 202.773H104.367L106.831 210H105.973L104.664 205.908C104.532 205.497 104.404 205.094 104.279 204.698C104.162 204.295 104.041 203.88 103.916 203.455H103.872C103.762 203.88 103.645 204.295 103.52 204.698C103.403 205.094 103.275 205.497 103.135 205.908L101.815 210H100.99ZM102.244 207.723V207.074H105.555V207.723H102.244ZM109.079 210L106.747 202.773H107.616L108.826 206.755C108.958 207.188 109.076 207.591 109.178 207.965C109.281 208.332 109.398 208.728 109.53 209.153H109.574C109.714 208.728 109.835 208.332 109.937 207.965C110.047 207.591 110.165 207.188 110.289 206.755L111.499 202.773H112.324L110.014 210H109.079ZM114.5 210V207.162L112.333 202.773H113.202L114.17 204.874C114.295 205.138 114.412 205.398 114.522 205.655C114.639 205.912 114.764 206.172 114.896 206.436H114.94C115.065 206.172 115.189 205.912 115.314 205.655C115.446 205.398 115.567 205.138 115.677 204.874L116.645 202.773H117.492L115.314 207.162V210H114.5Z" fill="white"/>
<path d="M179.5 213.5H57.5" stroke="#BBECF9"/>
<circle cx="179.5" cy="213.5" r="1.5" fill="white"/>
<path d="M58.61 104V99.842H57.196V99.401H60.535V99.842H59.128V104H58.61ZM60.9993 104V100.605H61.4193L61.4613 101.228H61.4823C61.599 101.013 61.739 100.843 61.9023 100.717C62.0703 100.586 62.2523 100.521 62.4483 100.521C62.5183 100.521 62.5813 100.528 62.6373 100.542C62.6933 100.551 62.747 100.568 62.7983 100.591L62.7003 101.039C62.6443 101.02 62.593 101.006 62.5463 100.997C62.5043 100.988 62.4483 100.983 62.3783 100.983C62.2336 100.983 62.082 101.044 61.9233 101.165C61.7646 101.282 61.6246 101.489 61.5033 101.788V104H60.9993ZM63.991 104.084C63.8043 104.084 63.6363 104.047 63.487 103.972C63.3376 103.897 63.2186 103.79 63.13 103.65C63.0413 103.505 62.997 103.33 62.997 103.125C62.997 102.756 63.165 102.474 63.501 102.278C63.8416 102.077 64.3783 101.937 65.111 101.858C65.111 101.704 65.09 101.557 65.048 101.417C65.0106 101.277 64.9383 101.165 64.831 101.081C64.7283 100.992 64.579 100.948 64.383 100.948C64.1776 100.948 63.9863 100.988 63.809 101.067C63.6363 101.146 63.4846 101.23 63.354 101.319L63.151 100.969C63.249 100.904 63.3656 100.836 63.501 100.766C63.6363 100.696 63.7856 100.638 63.949 100.591C64.1123 100.544 64.285 100.521 64.467 100.521C64.7423 100.521 64.964 100.579 65.132 100.696C65.3 100.813 65.4213 100.974 65.496 101.179C65.5753 101.384 65.615 101.625 65.615 101.9V104H65.195L65.153 103.587H65.132C64.9686 103.722 64.7913 103.839 64.6 103.937C64.4086 104.035 64.2056 104.084 63.991 104.084ZM64.124 103.671C64.3013 103.671 64.4646 103.631 64.614 103.552C64.768 103.468 64.9336 103.349 65.111 103.195V102.201C64.7096 102.248 64.3923 102.313 64.159 102.397C63.9256 102.476 63.7576 102.574 63.655 102.691C63.5523 102.808 63.501 102.943 63.501 103.097C63.501 103.298 63.5616 103.445 63.683 103.538C63.809 103.627 63.956 103.671 64.124 103.671ZM66.7278 104V100.605H67.1478L67.1898 101.109H67.2108C67.3741 100.941 67.5468 100.801 67.7288 100.689C67.9155 100.577 68.1231 100.521 68.3518 100.521C68.7111 100.521 68.9725 100.633 69.1358 100.857C69.3038 101.081 69.3878 101.41 69.3878 101.844V104H68.8768V101.907C68.8768 101.58 68.8231 101.342 68.7158 101.193C68.6131 101.044 68.4428 100.969 68.2048 100.969C68.0275 100.969 67.8665 101.016 67.7218 101.109C67.5771 101.198 67.4138 101.333 67.2318 101.515V104H66.7278ZM71.3966 104.084C71.1539 104.084 70.9229 104.04 70.7036 103.951C70.4843 103.858 70.2953 103.746 70.1366 103.615L70.3956 103.272C70.5449 103.389 70.6989 103.487 70.8576 103.566C71.0163 103.645 71.2029 103.685 71.4176 103.685C71.6509 103.685 71.8259 103.629 71.9426 103.517C72.0593 103.405 72.1176 103.272 72.1176 103.118C72.1176 102.997 72.0779 102.896 71.9986 102.817C71.9193 102.733 71.8189 102.663 71.6976 102.607C71.5763 102.546 71.4526 102.493 71.3266 102.446C71.1679 102.39 71.0093 102.322 70.8506 102.243C70.6919 102.164 70.5589 102.063 70.4516 101.942C70.3489 101.821 70.2976 101.664 70.2976 101.473C70.2976 101.207 70.3979 100.983 70.5986 100.801C70.8039 100.614 71.0886 100.521 71.4526 100.521C71.6579 100.521 71.8493 100.558 72.0266 100.633C72.2039 100.708 72.3556 100.796 72.4816 100.899L72.2366 101.228C72.1199 101.144 71.9986 101.074 71.8726 101.018C71.7513 100.957 71.6113 100.927 71.4526 100.927C71.2286 100.927 71.0629 100.981 70.9556 101.088C70.8483 101.191 70.7946 101.31 70.7946 101.445C70.7946 101.557 70.8296 101.65 70.8996 101.725C70.9743 101.795 71.0699 101.856 71.1866 101.907C71.3033 101.958 71.4269 102.01 71.5576 102.061C71.7256 102.122 71.8889 102.192 72.0476 102.271C72.2109 102.346 72.3463 102.446 72.4536 102.572C72.5609 102.698 72.6146 102.871 72.6146 103.09C72.6146 103.267 72.5679 103.433 72.4746 103.587C72.3813 103.736 72.2436 103.858 72.0616 103.951C71.8796 104.04 71.6579 104.084 71.3966 104.084ZM73.4407 105.456V100.605H73.8607L73.9027 101.011H73.9237C74.0777 100.876 74.248 100.761 74.4347 100.668C74.626 100.57 74.822 100.521 75.0227 100.521C75.3167 100.521 75.564 100.593 75.7647 100.738C75.9654 100.878 76.1147 101.079 76.2127 101.34C76.3154 101.597 76.3667 101.9 76.3667 102.25C76.3667 102.637 76.2967 102.969 76.1567 103.244C76.0214 103.515 75.8417 103.722 75.6177 103.867C75.3937 104.012 75.1534 104.084 74.8967 104.084C74.7427 104.084 74.584 104.049 74.4207 103.979C74.2574 103.909 74.094 103.811 73.9307 103.685L73.9447 104.287V105.456H73.4407ZM74.8127 103.65C75.0134 103.65 75.1907 103.594 75.3447 103.482C75.4987 103.37 75.62 103.209 75.7087 102.999C75.7974 102.789 75.8417 102.542 75.8417 102.257C75.8417 102 75.809 101.774 75.7437 101.578C75.683 101.382 75.5827 101.23 75.4427 101.123C75.3074 101.011 75.1277 100.955 74.9037 100.955C74.7544 100.955 74.6004 100.997 74.4417 101.081C74.2877 101.16 74.122 101.282 73.9447 101.445V103.279C74.1127 103.414 74.2714 103.51 74.4207 103.566C74.57 103.622 74.7007 103.65 74.8127 103.65ZM78.598 104.084C78.3227 104.084 78.066 104.014 77.828 103.874C77.59 103.734 77.3987 103.533 77.254 103.272C77.1093 103.006 77.037 102.684 77.037 102.306C77.037 101.928 77.1093 101.606 77.254 101.34C77.3987 101.074 77.59 100.871 77.828 100.731C78.066 100.591 78.3227 100.521 78.598 100.521C78.8733 100.521 79.1277 100.591 79.361 100.731C79.599 100.871 79.7903 101.074 79.935 101.34C80.0843 101.606 80.159 101.928 80.159 102.306C80.159 102.684 80.0843 103.006 79.935 103.272C79.7903 103.533 79.599 103.734 79.361 103.874C79.1277 104.014 78.8733 104.084 78.598 104.084ZM78.598 103.657C78.8033 103.657 78.983 103.601 79.137 103.489C79.2957 103.377 79.417 103.221 79.501 103.02C79.5897 102.815 79.634 102.577 79.634 102.306C79.634 102.04 79.5897 101.804 79.501 101.599C79.417 101.394 79.2957 101.235 79.137 101.123C78.983 101.006 78.8033 100.948 78.598 100.948C78.3973 100.948 78.2177 101.006 78.059 101.123C77.905 101.235 77.7837 101.394 77.695 101.599C77.611 101.804 77.569 102.04 77.569 102.306C77.569 102.577 77.611 102.815 77.695 103.02C77.7837 103.221 77.905 103.377 78.059 103.489C78.2177 103.601 78.3973 103.657 78.598 103.657ZM81.0833 104V100.605H81.5033L81.5453 101.228H81.5663C81.6829 101.013 81.8229 100.843 81.9863 100.717C82.1543 100.586 82.3363 100.521 82.5323 100.521C82.6023 100.521 82.6653 100.528 82.7213 100.542C82.7773 100.551 82.8309 100.568 82.8823 100.591L82.7843 101.039C82.7283 101.02 82.6769 101.006 82.6303 100.997C82.5883 100.988 82.5323 100.983 82.4623 100.983C82.3176 100.983 82.1659 101.044 82.0073 101.165C81.8486 101.282 81.7086 101.489 81.5873 101.788V104H81.0833ZM84.4912 104.084C84.1412 104.084 83.8962 103.981 83.7562 103.776C83.6209 103.571 83.5532 103.305 83.5532 102.978V101.025H83.0422V100.64L83.5742 100.605L83.6372 99.646H84.0642V100.605H84.9952V101.025H84.0642V102.992C84.0642 103.202 84.1015 103.368 84.1762 103.489C84.2555 103.606 84.3979 103.664 84.6032 103.664C84.6639 103.664 84.7292 103.655 84.7992 103.636C84.8739 103.617 84.9392 103.596 84.9952 103.573L85.1002 103.958C85.0069 103.991 84.9065 104.019 84.7992 104.042C84.6919 104.07 84.5892 104.084 84.4912 104.084ZM87.0347 104.084C86.7407 104.084 86.47 104.014 86.2227 103.874C85.98 103.729 85.7864 103.526 85.6417 103.265C85.497 102.999 85.4247 102.679 85.4247 102.306C85.4247 101.937 85.497 101.62 85.6417 101.354C85.7864 101.088 85.973 100.883 86.2017 100.738C86.435 100.593 86.6824 100.521 86.9437 100.521C87.2237 100.521 87.464 100.586 87.6647 100.717C87.8654 100.848 88.017 101.032 88.1197 101.27C88.227 101.503 88.2807 101.783 88.2807 102.11C88.2807 102.166 88.2784 102.222 88.2737 102.278C88.2737 102.329 88.269 102.376 88.2597 102.418H85.8237L85.8167 102.047H87.8257C87.8257 101.683 87.7487 101.408 87.5947 101.221C87.4407 101.03 87.226 100.934 86.9507 100.934C86.7827 100.934 86.6194 100.983 86.4607 101.081C86.302 101.179 86.1714 101.328 86.0687 101.529C85.966 101.73 85.9147 101.989 85.9147 102.306C85.9147 102.609 85.9684 102.861 86.0757 103.062C86.183 103.263 86.3254 103.414 86.5027 103.517C86.6847 103.62 86.883 103.671 87.0977 103.671C87.2704 103.671 87.4244 103.645 87.5597 103.594C87.6997 103.543 87.8327 103.477 87.9587 103.398L88.1477 103.734C88.003 103.827 87.8397 103.909 87.6577 103.979C87.4804 104.049 87.2727 104.084 87.0347 104.084ZM91.6784 104.084C91.2537 104.084 90.9154 103.93 90.6634 103.622C90.4114 103.309 90.2854 102.871 90.2854 102.306C90.2854 101.942 90.353 101.627 90.4884 101.361C90.6284 101.095 90.8104 100.89 91.0344 100.745C91.2584 100.596 91.501 100.521 91.7624 100.521C91.963 100.521 92.1357 100.556 92.2804 100.626C92.425 100.696 92.5744 100.794 92.7284 100.92L92.7074 100.332V99.002H93.2114V104H92.7914L92.7494 103.587H92.7284C92.5977 103.722 92.4414 103.839 92.2594 103.937C92.082 104.035 91.8884 104.084 91.6784 104.084ZM91.7904 103.65C91.9537 103.65 92.11 103.61 92.2594 103.531C92.4087 103.447 92.558 103.326 92.7074 103.167V101.326C92.5534 101.191 92.4064 101.095 92.2664 101.039C92.1264 100.983 91.984 100.955 91.8394 100.955C91.648 100.955 91.473 101.013 91.3144 101.13C91.1604 101.242 91.0367 101.401 90.9434 101.606C90.8547 101.807 90.8104 102.04 90.8104 102.306C90.8104 102.721 90.8944 103.05 91.0624 103.293C91.235 103.531 91.4777 103.65 91.7904 103.65ZM95.7437 104.084C95.4497 104.084 95.179 104.014 94.9317 103.874C94.689 103.729 94.4954 103.526 94.3507 103.265C94.206 102.999 94.1337 102.679 94.1337 102.306C94.1337 101.937 94.206 101.62 94.3507 101.354C94.4954 101.088 94.682 100.883 94.9107 100.738C95.144 100.593 95.3914 100.521 95.6527 100.521C95.9327 100.521 96.173 100.586 96.3737 100.717C96.5744 100.848 96.726 101.032 96.8287 101.27C96.936 101.503 96.9897 101.783 96.9897 102.11C96.9897 102.166 96.9874 102.222 96.9827 102.278C96.9827 102.329 96.978 102.376 96.9687 102.418H94.5327L94.5257 102.047H96.5347C96.5347 101.683 96.4577 101.408 96.3037 101.221C96.1497 101.03 95.935 100.934 95.6597 100.934C95.4917 100.934 95.3284 100.983 95.1697 101.081C95.011 101.179 94.8804 101.328 94.7777 101.529C94.675 101.73 94.6237 101.989 94.6237 102.306C94.6237 102.609 94.6774 102.861 94.7847 103.062C94.892 103.263 95.0344 103.414 95.2117 103.517C95.3937 103.62 95.592 103.671 95.8067 103.671C95.9794 103.671 96.1334 103.645 96.2687 103.594C96.4087 103.543 96.5417 103.477 96.6677 103.398L96.8567 103.734C96.712 103.827 96.5487 103.909 96.3667 103.979C96.1894 104.049 95.9817 104.084 95.7437 104.084ZM100.562 104.084C100.264 104.084 99.9954 104.014 99.7574 103.874C99.5194 103.734 99.3304 103.533 99.1904 103.272C99.0504 103.006 98.9804 102.684 98.9804 102.306C98.9804 101.928 99.055 101.606 99.2044 101.34C99.3584 101.074 99.5567 100.871 99.7994 100.731C100.042 100.591 100.308 100.521 100.597 100.521C100.821 100.521 101.013 100.563 101.171 100.647C101.33 100.726 101.468 100.82 101.584 100.927L101.318 101.263C101.22 101.17 101.113 101.095 100.996 101.039C100.884 100.978 100.758 100.948 100.618 100.948C100.404 100.948 100.212 101.006 100.044 101.123C99.881 101.235 99.7504 101.394 99.6524 101.599C99.559 101.804 99.5124 102.04 99.5124 102.306C99.5124 102.577 99.5567 102.815 99.6454 103.02C99.7387 103.221 99.867 103.377 100.03 103.489C100.194 103.601 100.385 103.657 100.604 103.657C100.768 103.657 100.919 103.622 101.059 103.552C101.199 103.482 101.323 103.4 101.43 103.307L101.654 103.65C101.505 103.785 101.337 103.893 101.15 103.972C100.964 104.047 100.768 104.084 100.562 104.084ZM103.127 104.084C102.94 104.084 102.772 104.047 102.623 103.972C102.473 103.897 102.354 103.79 102.266 103.65C102.177 103.505 102.133 103.33 102.133 103.125C102.133 102.756 102.301 102.474 102.637 102.278C102.977 102.077 103.514 101.937 104.247 101.858C104.247 101.704 104.226 101.557 104.184 101.417C104.146 101.277 104.074 101.165 103.967 101.081C103.864 100.992 103.715 100.948 103.519 100.948C103.313 100.948 103.122 100.988 102.945 101.067C102.772 101.146 102.62 101.23 102.49 101.319L102.287 100.969C102.385 100.904 102.501 100.836 102.637 100.766C102.772 100.696 102.921 100.638 103.085 100.591C103.248 100.544 103.421 100.521 103.603 100.521C103.878 100.521 104.1 100.579 104.268 100.696C104.436 100.813 104.557 100.974 104.632 101.179C104.711 101.384 104.751 101.625 104.751 101.9V104H104.331L104.289 103.587H104.268C104.104 103.722 103.927 103.839 103.736 103.937C103.544 104.035 103.341 104.084 103.127 104.084ZM103.26 103.671C103.437 103.671 103.6 103.631 103.75 103.552C103.904 103.468 104.069 103.349 104.247 103.195V102.201C103.845 102.248 103.528 102.313 103.295 102.397C103.061 102.476 102.893 102.574 102.791 102.691C102.688 102.808 102.637 102.943 102.637 103.097C102.637 103.298 102.697 103.445 102.819 103.538C102.945 103.627 103.092 103.671 103.26 103.671ZM105.864 104V100.605H106.284L106.326 101.228H106.347C106.463 101.013 106.603 100.843 106.767 100.717C106.935 100.586 107.117 100.521 107.313 100.521C107.383 100.521 107.446 100.528 107.502 100.542C107.558 100.551 107.611 100.568 107.663 100.591L107.565 101.039C107.509 101.02 107.457 101.006 107.411 100.997C107.369 100.988 107.313 100.983 107.243 100.983C107.098 100.983 106.946 101.044 106.788 101.165C106.629 101.282 106.489 101.489 106.368 101.788V104H105.864ZM109.308 105.582C109.028 105.582 108.783 105.545 108.573 105.47C108.363 105.395 108.2 105.29 108.083 105.155C107.966 105.02 107.908 104.856 107.908 104.665C107.908 104.516 107.952 104.373 108.041 104.238C108.13 104.103 108.251 103.984 108.405 103.881V103.853C108.321 103.797 108.249 103.725 108.188 103.636C108.132 103.543 108.104 103.431 108.104 103.3C108.104 103.155 108.144 103.029 108.223 102.922C108.307 102.815 108.391 102.731 108.475 102.67V102.642C108.368 102.553 108.267 102.43 108.174 102.271C108.085 102.112 108.041 101.933 108.041 101.732C108.041 101.485 108.097 101.272 108.209 101.095C108.326 100.913 108.477 100.773 108.664 100.675C108.855 100.572 109.065 100.521 109.294 100.521C109.387 100.521 109.474 100.53 109.553 100.549C109.637 100.563 109.707 100.582 109.763 100.605H110.939V101.004H110.218C110.307 101.088 110.379 101.193 110.435 101.319C110.491 101.445 110.519 101.585 110.519 101.739C110.519 101.982 110.463 102.192 110.351 102.369C110.244 102.546 110.097 102.684 109.91 102.782C109.728 102.875 109.523 102.922 109.294 102.922C109.21 102.922 109.121 102.913 109.028 102.894C108.939 102.871 108.855 102.84 108.776 102.803C108.711 102.854 108.655 102.913 108.608 102.978C108.566 103.043 108.545 103.125 108.545 103.223C108.545 103.335 108.587 103.428 108.671 103.503C108.76 103.573 108.918 103.608 109.147 103.608H109.826C110.218 103.608 110.51 103.673 110.701 103.804C110.897 103.93 110.995 104.133 110.995 104.413C110.995 104.618 110.925 104.81 110.785 104.987C110.65 105.164 110.456 105.307 110.204 105.414C109.952 105.526 109.653 105.582 109.308 105.582ZM109.378 105.218C109.602 105.218 109.796 105.183 109.959 105.113C110.127 105.043 110.258 104.952 110.351 104.84C110.444 104.728 110.491 104.609 110.491 104.483C110.491 104.32 110.43 104.205 110.309 104.14C110.192 104.075 110.017 104.042 109.784 104.042H109.161C109.11 104.042 109.044 104.037 108.965 104.028C108.89 104.019 108.811 104.005 108.727 103.986C108.596 104.079 108.501 104.177 108.44 104.28C108.384 104.387 108.356 104.492 108.356 104.595C108.356 104.786 108.447 104.938 108.629 105.05C108.811 105.162 109.061 105.218 109.378 105.218ZM109.294 102.572C109.429 102.572 109.553 102.537 109.665 102.467C109.782 102.397 109.875 102.299 109.945 102.173C110.015 102.047 110.05 101.9 110.05 101.732C110.05 101.559 110.015 101.412 109.945 101.291C109.88 101.165 109.789 101.069 109.672 101.004C109.56 100.934 109.434 100.899 109.294 100.899C109.084 100.899 108.904 100.974 108.755 101.123C108.606 101.268 108.531 101.471 108.531 101.732C108.531 101.9 108.566 102.047 108.636 102.173C108.706 102.299 108.799 102.397 108.916 102.467C109.033 102.537 109.159 102.572 109.294 102.572ZM112.335 104.084C112.148 104.084 111.98 104.047 111.831 103.972C111.681 103.897 111.562 103.79 111.474 103.65C111.385 103.505 111.341 103.33 111.341 103.125C111.341 102.756 111.509 102.474 111.845 102.278C112.185 102.077 112.722 101.937 113.455 101.858C113.455 101.704 113.434 101.557 113.392 101.417C113.354 101.277 113.282 101.165 113.175 101.081C113.072 100.992 112.923 100.948 112.727 100.948C112.521 100.948 112.33 100.988 112.153 101.067C111.98 101.146 111.828 101.23 111.698 101.319L111.495 100.969C111.593 100.904 111.709 100.836 111.845 100.766C111.98 100.696 112.129 100.638 112.293 100.591C112.456 100.544 112.629 100.521 112.811 100.521C113.086 100.521 113.308 100.579 113.476 100.696C113.644 100.813 113.765 100.974 113.84 101.179C113.919 101.384 113.959 101.625 113.959 101.9V104H113.539L113.497 103.587H113.476C113.312 103.722 113.135 103.839 112.944 103.937C112.752 104.035 112.549 104.084 112.335 104.084ZM112.468 103.671C112.645 103.671 112.808 103.631 112.958 103.552C113.112 103.468 113.277 103.349 113.455 103.195V102.201C113.053 102.248 112.736 102.313 112.503 102.397C112.269 102.476 112.101 102.574 111.999 102.691C111.896 102.808 111.845 102.943 111.845 103.097C111.845 103.298 111.905 103.445 112.027 103.538C112.153 103.627 112.3 103.671 112.468 103.671ZM116.48 105.484C116.405 105.484 116.335 105.477 116.27 105.463C116.205 105.449 116.146 105.433 116.095 105.414L116.193 105.001C116.23 105.015 116.272 105.027 116.319 105.036C116.37 105.05 116.417 105.057 116.459 105.057C116.655 105.057 116.818 104.982 116.949 104.833C117.08 104.688 117.18 104.504 117.25 104.28L117.334 104.021L115.962 100.605H116.487L117.215 102.551C117.271 102.696 117.327 102.852 117.383 103.02C117.444 103.183 117.5 103.344 117.551 103.503H117.579C117.63 103.349 117.682 103.19 117.733 103.027C117.784 102.859 117.831 102.7 117.873 102.551L118.51 100.605H119.007L117.719 104.315C117.64 104.53 117.546 104.726 117.439 104.903C117.332 105.08 117.199 105.22 117.04 105.323C116.886 105.43 116.699 105.484 116.48 105.484ZM121.087 105.456V100.605H121.507L121.549 101.011H121.57C121.724 100.876 121.895 100.761 122.081 100.668C122.273 100.57 122.469 100.521 122.669 100.521C122.963 100.521 123.211 100.593 123.411 100.738C123.612 100.878 123.761 101.079 123.859 101.34C123.962 101.597 124.013 101.9 124.013 102.25C124.013 102.637 123.943 102.969 123.803 103.244C123.668 103.515 123.488 103.722 123.264 103.867C123.04 104.012 122.8 104.084 122.543 104.084C122.389 104.084 122.231 104.049 122.067 103.979C121.904 103.909 121.741 103.811 121.577 103.685L121.591 104.287V105.456H121.087ZM122.459 103.65C122.66 103.65 122.837 103.594 122.991 103.482C123.145 103.37 123.267 103.209 123.355 102.999C123.444 102.789 123.488 102.542 123.488 102.257C123.488 102 123.456 101.774 123.39 101.578C123.33 101.382 123.229 101.23 123.089 101.123C122.954 101.011 122.774 100.955 122.55 100.955C122.401 100.955 122.247 100.997 122.088 101.081C121.934 101.16 121.769 101.282 121.591 101.445V103.279C121.759 103.414 121.918 103.51 122.067 103.566C122.217 103.622 122.347 103.65 122.459 103.65ZM125.624 104.084C125.437 104.084 125.269 104.047 125.12 103.972C124.97 103.897 124.851 103.79 124.763 103.65C124.674 103.505 124.63 103.33 124.63 103.125C124.63 102.756 124.798 102.474 125.134 102.278C125.474 102.077 126.011 101.937 126.744 101.858C126.744 101.704 126.723 101.557 126.681 101.417C126.643 101.277 126.571 101.165 126.464 101.081C126.361 100.992 126.212 100.948 126.016 100.948C125.81 100.948 125.619 100.988 125.442 101.067C125.269 101.146 125.117 101.23 124.987 101.319L124.784 100.969C124.882 100.904 124.998 100.836 125.134 100.766C125.269 100.696 125.418 100.638 125.582 100.591C125.745 100.544 125.918 100.521 126.1 100.521C126.375 100.521 126.597 100.579 126.765 100.696C126.933 100.813 127.054 100.974 127.129 101.179C127.208 101.384 127.248 101.625 127.248 101.9V104H126.828L126.786 103.587H126.765C126.601 103.722 126.424 103.839 126.233 103.937C126.041 104.035 125.838 104.084 125.624 104.084ZM125.757 103.671C125.934 103.671 126.097 103.631 126.247 103.552C126.401 103.468 126.566 103.349 126.744 103.195V102.201C126.342 102.248 126.025 102.313 125.792 102.397C125.558 102.476 125.39 102.574 125.288 102.691C125.185 102.808 125.134 102.943 125.134 103.097C125.134 103.298 125.194 103.445 125.316 103.538C125.442 103.627 125.589 103.671 125.757 103.671ZM129.229 104.084C128.986 104.084 128.755 104.04 128.536 103.951C128.316 103.858 128.127 103.746 127.969 103.615L128.228 103.272C128.377 103.389 128.531 103.487 128.69 103.566C128.848 103.645 129.035 103.685 129.25 103.685C129.483 103.685 129.658 103.629 129.775 103.517C129.891 103.405 129.95 103.272 129.95 103.118C129.95 102.997 129.91 102.896 129.831 102.817C129.751 102.733 129.651 102.663 129.53 102.607C129.408 102.546 129.285 102.493 129.159 102.446C129 102.39 128.841 102.322 128.683 102.243C128.524 102.164 128.391 102.063 128.284 101.942C128.181 101.821 128.13 101.664 128.13 101.473C128.13 101.207 128.23 100.983 128.431 100.801C128.636 100.614 128.921 100.521 129.285 100.521C129.49 100.521 129.681 100.558 129.859 100.633C130.036 100.708 130.188 100.796 130.314 100.899L130.069 101.228C129.952 101.144 129.831 101.074 129.705 101.018C129.583 100.957 129.443 100.927 129.285 100.927C129.061 100.927 128.895 100.981 128.788 101.088C128.68 101.191 128.627 101.31 128.627 101.445C128.627 101.557 128.662 101.65 128.732 101.725C128.806 101.795 128.902 101.856 129.019 101.907C129.135 101.958 129.259 102.01 129.39 102.061C129.558 102.122 129.721 102.192 129.88 102.271C130.043 102.346 130.178 102.446 130.286 102.572C130.393 102.698 130.447 102.871 130.447 103.09C130.447 103.267 130.4 103.433 130.307 103.587C130.213 103.736 130.076 103.858 129.894 103.951C129.712 104.04 129.49 104.084 129.229 104.084ZM132.043 104.084C131.856 104.084 131.688 104.047 131.539 103.972C131.389 103.897 131.27 103.79 131.182 103.65C131.093 103.505 131.049 103.33 131.049 103.125C131.049 102.756 131.217 102.474 131.553 102.278C131.893 102.077 132.43 101.937 133.163 101.858C133.163 101.704 133.142 101.557 133.1 101.417C133.062 101.277 132.99 101.165 132.883 101.081C132.78 100.992 132.631 100.948 132.435 100.948C132.229 100.948 132.038 100.988 131.861 101.067C131.688 101.146 131.536 101.23 131.406 101.319L131.203 100.969C131.301 100.904 131.417 100.836 131.553 100.766C131.688 100.696 131.837 100.638 132.001 100.591C132.164 100.544 132.337 100.521 132.519 100.521C132.794 100.521 133.016 100.579 133.184 100.696C133.352 100.813 133.473 100.974 133.548 101.179C133.627 101.384 133.667 101.625 133.667 101.9V104H133.247L133.205 103.587H133.184C133.02 103.722 132.843 103.839 132.652 103.937C132.46 104.035 132.257 104.084 132.043 104.084ZM132.176 103.671C132.353 103.671 132.516 103.631 132.666 103.552C132.82 103.468 132.985 103.349 133.163 103.195V102.201C132.761 102.248 132.444 102.313 132.211 102.397C131.977 102.476 131.809 102.574 131.707 102.691C131.604 102.808 131.553 102.943 131.553 103.097C131.553 103.298 131.613 103.445 131.735 103.538C131.861 103.627 132.008 103.671 132.176 103.671ZM134.416 105.54C134.318 105.54 134.229 105.531 134.15 105.512C134.066 105.493 133.993 105.475 133.933 105.456L134.038 105.064C134.08 105.078 134.129 105.09 134.185 105.099C134.245 105.113 134.306 105.12 134.367 105.12C134.539 105.12 134.654 105.057 134.71 104.931C134.766 104.81 134.794 104.646 134.794 104.441L134.801 100.605H135.305V104.448C135.305 104.677 135.274 104.873 135.214 105.036C135.153 105.199 135.057 105.323 134.927 105.407C134.796 105.496 134.626 105.54 134.416 105.54ZM134.416 105.54C134.318 105.54 134.229 105.531 134.15 105.512C134.066 105.493 133.993 105.475 133.933 105.456L134.038 105.064C134.08 105.078 134.129 105.09 134.185 105.099C134.245 105.113 134.306 105.12 134.367 105.12C134.539 105.12 134.654 105.057 134.71 104.931C134.766 104.81 134.794 104.646 134.794 104.441L134.801 100.605H135.305V104.448C135.305 104.677 135.274 104.873 135.214 105.036C135.153 105.199 135.057 105.323 134.927 105.407C134.796 105.496 134.626 105.54 134.416 105.54ZM135.039 99.877C134.941 99.877 134.857 99.8443 134.787 99.779C134.721 99.7137 134.689 99.6273 134.689 99.52C134.689 99.4173 134.721 99.3357 134.787 99.275C134.857 99.2097 134.941 99.177 135.039 99.177C135.141 99.177 135.225 99.2097 135.291 99.275C135.356 99.3357 135.389 99.4173 135.389 99.52C135.389 99.6273 135.356 99.7137 135.291 99.779C135.225 99.8443 135.141 99.877 135.039 99.877ZM137.819 104.084C137.525 104.084 137.254 104.014 137.007 103.874C136.764 103.729 136.571 103.526 136.426 103.265C136.281 102.999 136.209 102.679 136.209 102.306C136.209 101.937 136.281 101.62 136.426 101.354C136.571 101.088 136.757 100.883 136.986 100.738C137.219 100.593 137.467 100.521 137.728 100.521C138.008 100.521 138.248 100.586 138.449 100.717C138.65 100.848 138.801 101.032 138.904 101.27C139.011 101.503 139.065 101.783 139.065 102.11C139.065 102.166 139.063 102.222 139.058 102.278C139.058 102.329 139.053 102.376 139.044 102.418H136.608L136.601 102.047H138.61C138.61 101.683 138.533 101.408 138.379 101.221C138.225 101.03 138.01 100.934 137.735 100.934C137.567 100.934 137.404 100.983 137.245 101.081C137.086 101.179 136.956 101.328 136.853 101.529C136.75 101.73 136.699 101.989 136.699 102.306C136.699 102.609 136.753 102.861 136.86 103.062C136.967 103.263 137.11 103.414 137.287 103.517C137.469 103.62 137.667 103.671 137.882 103.671C138.055 103.671 138.209 103.645 138.344 103.594C138.484 103.543 138.617 103.477 138.743 103.398L138.932 103.734C138.787 103.827 138.624 103.909 138.442 103.979C138.265 104.049 138.057 104.084 137.819 104.084ZM139.92 104V100.605H140.34L140.382 101.228H140.403C140.52 101.013 140.66 100.843 140.823 100.717C140.991 100.586 141.173 100.521 141.369 100.521C141.439 100.521 141.502 100.528 141.558 100.542C141.614 100.551 141.668 100.568 141.719 100.591L141.621 101.039C141.565 101.02 141.514 101.006 141.467 100.997C141.425 100.988 141.369 100.983 141.299 100.983C141.155 100.983 141.003 101.044 140.844 101.165C140.686 101.282 140.546 101.489 140.424 101.788V104H139.92ZM143.526 104.084C143.25 104.084 142.994 104.014 142.756 103.874C142.518 103.734 142.326 103.533 142.182 103.272C142.037 103.006 141.965 102.684 141.965 102.306C141.965 101.928 142.037 101.606 142.182 101.34C142.326 101.074 142.518 100.871 142.756 100.731C142.994 100.591 143.25 100.521 143.526 100.521C143.801 100.521 144.055 100.591 144.289 100.731C144.527 100.871 144.718 101.074 144.863 101.34C145.012 101.606 145.087 101.928 145.087 102.306C145.087 102.684 145.012 103.006 144.863 103.272C144.718 103.533 144.527 103.734 144.289 103.874C144.055 104.014 143.801 104.084 143.526 104.084ZM143.526 103.657C143.731 103.657 143.911 103.601 144.065 103.489C144.223 103.377 144.345 103.221 144.429 103.02C144.517 102.815 144.562 102.577 144.562 102.306C144.562 102.04 144.517 101.804 144.429 101.599C144.345 101.394 144.223 101.235 144.065 101.123C143.911 101.006 143.731 100.948 143.526 100.948C143.325 100.948 143.145 101.006 142.987 101.123C142.833 101.235 142.711 101.394 142.623 101.599C142.539 101.804 142.497 102.04 142.497 102.306C142.497 102.577 142.539 102.815 142.623 103.02C142.711 103.221 142.833 103.377 142.987 103.489C143.145 103.601 143.325 103.657 143.526 103.657ZM146.865 104.084C146.623 104.084 146.392 104.04 146.172 103.951C145.953 103.858 145.764 103.746 145.605 103.615L145.864 103.272C146.014 103.389 146.168 103.487 146.326 103.566C146.485 103.645 146.672 103.685 146.886 103.685C147.12 103.685 147.295 103.629 147.411 103.517C147.528 103.405 147.586 103.272 147.586 103.118C147.586 102.997 147.547 102.896 147.467 102.817C147.388 102.733 147.288 102.663 147.166 102.607C147.045 102.546 146.921 102.493 146.795 102.446C146.637 102.39 146.478 102.322 146.319 102.243C146.161 102.164 146.028 102.063 145.92 101.942C145.818 101.821 145.766 101.664 145.766 101.473C145.766 101.207 145.867 100.983 146.067 100.801C146.273 100.614 146.557 100.521 146.921 100.521C147.127 100.521 147.318 100.558 147.495 100.633C147.673 100.708 147.824 100.796 147.95 100.899L147.705 101.228C147.589 101.144 147.467 101.074 147.341 101.018C147.22 100.957 147.08 100.927 146.921 100.927C146.697 100.927 146.532 100.981 146.424 101.088C146.317 101.191 146.263 101.31 146.263 101.445C146.263 101.557 146.298 101.65 146.368 101.725C146.443 101.795 146.539 101.856 146.655 101.907C146.772 101.958 146.896 102.01 147.026 102.061C147.194 102.122 147.358 102.192 147.516 102.271C147.68 102.346 147.815 102.446 147.922 102.572C148.03 102.698 148.083 102.871 148.083 103.09C148.083 103.267 148.037 103.433 147.943 103.587C147.85 103.736 147.712 103.858 147.53 103.951C147.348 104.04 147.127 104.084 146.865 104.084Z" fill="white"/>
<path d="M58.981 91.132C58.475 91.132 58.0093 91.033 57.584 90.835C57.1587 90.637 56.7883 90.3767 56.473 90.054L56.968 89.493C57.232 89.7717 57.5363 89.9953 57.881 90.164C58.233 90.3327 58.6033 90.417 58.992 90.417C59.4907 90.417 59.8793 90.3033 60.158 90.076C60.4367 89.8413 60.576 89.537 60.576 89.163C60.576 88.9063 60.521 88.701 60.411 88.547C60.301 88.3857 60.1543 88.2537 59.971 88.151C59.7877 88.041 59.5787 87.9347 59.344 87.832L58.299 87.37C58.079 87.2747 57.8553 87.15 57.628 86.996C57.4007 86.842 57.21 86.6477 57.056 86.413C56.9093 86.1783 56.836 85.8813 56.836 85.522C56.836 85.1627 56.9313 84.8437 57.122 84.565C57.3127 84.279 57.5767 84.0553 57.914 83.894C58.2513 83.7253 58.6327 83.641 59.058 83.641C59.4907 83.641 59.8867 83.7253 60.246 83.894C60.6127 84.0627 60.917 84.2753 61.159 84.532L60.719 85.06C60.5063 84.84 60.2607 84.6677 59.982 84.543C59.7107 84.4183 59.4027 84.356 59.058 84.356C58.64 84.356 58.299 84.4587 58.035 84.664C57.7783 84.862 57.65 85.1333 57.65 85.478C57.65 85.72 57.7123 85.918 57.837 86.072C57.9617 86.226 58.1157 86.3543 58.299 86.457C58.4897 86.5523 58.6767 86.6403 58.86 86.721L59.905 87.183C60.191 87.3003 60.444 87.4397 60.664 87.601C60.884 87.7623 61.06 87.964 61.192 88.206C61.3313 88.448 61.401 88.7487 61.401 89.108C61.401 89.482 61.302 89.823 61.104 90.131C60.9133 90.439 60.6347 90.6847 60.268 90.868C59.9087 91.044 59.4797 91.132 58.981 91.132ZM64.1482 91V84.466H61.9262V83.773H67.1732V84.466H64.9622V91H64.1482ZM67.087 91L69.562 83.773H70.464L72.928 91H72.07L70.761 86.908C70.629 86.4973 70.5006 86.094 70.376 85.698C70.2586 85.2947 70.1376 84.8803 70.013 84.455H69.969C69.859 84.8803 69.7416 85.2947 69.617 85.698C69.4996 86.094 69.3713 86.4973 69.232 86.908L67.912 91H67.087ZM68.341 88.723V88.074H71.652V88.723H68.341ZM73.9847 91V83.773H76.1957C76.6797 83.773 77.1087 83.839 77.4827 83.971C77.8567 84.0957 78.15 84.3047 78.3627 84.598C78.5753 84.8913 78.6817 85.2837 78.6817 85.775C78.6817 86.2443 78.5753 86.6367 78.3627 86.952C78.15 87.26 77.8567 87.491 77.4827 87.645C77.1087 87.799 76.6797 87.876 76.1957 87.876H74.7987V91H73.9847ZM77.9557 91L76.0307 87.656L76.6907 87.26L78.8797 91H77.9557ZM74.7987 87.216H76.0637C76.643 87.216 77.0867 87.0987 77.3947 86.864C77.71 86.622 77.8677 86.259 77.8677 85.775C77.8677 85.2837 77.71 84.939 77.3947 84.741C77.0867 84.5357 76.643 84.433 76.0637 84.433H74.7987V87.216ZM82.0015 91.132C81.4955 91.132 81.0298 91.033 80.6045 90.835C80.1792 90.637 79.8088 90.3767 79.4935 90.054L79.9885 89.493C80.2525 89.7717 80.5568 89.9953 80.9015 90.164C81.2535 90.3327 81.6238 90.417 82.0125 90.417C82.5112 90.417 82.8998 90.3033 83.1785 90.076C83.4572 89.8413 83.5965 89.537 83.5965 89.163C83.5965 88.9063 83.5415 88.701 83.4315 88.547C83.3215 88.3857 83.1748 88.2537 82.9915 88.151C82.8082 88.041 82.5992 87.9347 82.3645 87.832L81.3195 87.37C81.0995 87.2747 80.8758 87.15 80.6485 86.996C80.4212 86.842 80.2305 86.6477 80.0765 86.413C79.9298 86.1783 79.8565 85.8813 79.8565 85.522C79.8565 85.1627 79.9518 84.8437 80.1425 84.565C80.3332 84.279 80.5972 84.0553 80.9345 83.894C81.2718 83.7253 81.6532 83.641 82.0785 83.641C82.5112 83.641 82.9072 83.7253 83.2665 83.894C83.6332 84.0627 83.9375 84.2753 84.1795 84.532L83.7395 85.06C83.5268 84.84 83.2812 84.6677 83.0025 84.543C82.7312 84.4183 82.4232 84.356 82.0785 84.356C81.6605 84.356 81.3195 84.4587 81.0555 84.664C80.7988 84.862 80.6705 85.1333 80.6705 85.478C80.6705 85.72 80.7328 85.918 80.8575 86.072C80.9822 86.226 81.1362 86.3543 81.3195 86.457C81.5102 86.5523 81.6972 86.6403 81.8805 86.721L82.9255 87.183C83.2115 87.3003 83.4645 87.4397 83.6845 87.601C83.9045 87.7623 84.0805 87.964 84.2125 88.206C84.3518 88.448 84.4215 88.7487 84.4215 89.108C84.4215 89.482 84.3225 89.823 84.1245 90.131C83.9338 90.439 83.6552 90.6847 83.2885 90.868C82.9292 91.044 82.5002 91.132 82.0015 91.132ZM85.8655 91V83.773H86.6795V86.831H90.1665V83.773H90.9805V91H90.1665V87.546H86.6795V91H85.8655ZM92.9983 91V83.773H93.8123V91H92.9983ZM95.8235 91V83.773H97.8255C98.3609 83.773 98.8302 83.8427 99.2335 83.982C99.6369 84.114 99.9485 84.334 100.169 84.642C100.396 84.9427 100.51 85.3533 100.51 85.874C100.51 86.3727 100.4 86.7833 100.18 87.106C99.9595 87.4287 99.6515 87.6707 99.2555 87.832C98.8595 87.9933 98.3975 88.074 97.8695 88.074H96.6375V91H95.8235ZM96.6375 87.403H97.7485C98.4085 87.403 98.8962 87.282 99.2115 87.04C99.5342 86.7907 99.6955 86.402 99.6955 85.874C99.6955 85.3313 99.5269 84.9573 99.1895 84.752C98.8595 84.5393 98.3645 84.433 97.7045 84.433H96.6375V87.403Z" fill="white"/>
<path d="M178.5 94.5H56.5" stroke="#BBECF9"/>
<circle cx="178.5" cy="94.5" r="1.5" fill="white"/>
</g>
<defs>
<filter id="filter0_d_25_7" x="185.439" y="-0.0462036" width="45.3821" height="308.602" filterUnits="userSpaceOnUse" color-interpolation-filters="sRGB">
<feFlood flood-opacity="0" result="BackgroundImageFix"/>
<feColorMatrix in="SourceAlpha" type="matrix" values="0 0 0 0 0 0 0 0 0 0 0 0 0 0 0 0 0 0 127 0" result="hardAlpha"/>
<feOffset dy="4"/>
<feGaussianBlur stdDeviation="2"/>
<feComposite in2="hardAlpha" operator="out"/>
<feColorMatrix type="matrix" values="0 0 0 0 0 0 0 0 0 0 0 0 0 0 0 0 0 0 0.25 0"/>
<feBlend mode="normal" in2="BackgroundImageFix" result="effect1_dropShadow_25_7"/>
<feBlend mode="normal" in="SourceGraphic" in2="effect1_dropShadow_25_7" result="shape"/>
</filter>
<clipPath id="clip0_25_7">
<rect width="391" height="320" fill="white"/>
</clipPath>
</defs>
</svg>
